<svg width="14" height="20" viewBox="0 0 14 20" fill="none" xmlns="http://www.w3.org/2000/svg">
<path d="M1 18.6458H0.25C0.25 19.06 0.585786 19.3958 1 19.3958L1 18.6458ZM1 1.64916V0.899158C0.585786 0.899158 0.25 1.23494 0.25 1.64916L1 1.64916ZM9.53846 1.64916V2.39916C9.55525 2.39916 9.57204 2.39859 9.58879 2.39747L9.53846 1.64916ZM1.75 18.6458V1.64916H0.25V18.6458H1.75ZM1 2.39916H9.53846V0.899158H1V2.39916ZM9.58879 2.39747C10.2742 2.35137 12.25 3.21104 12.25 6.07293H13.75C13.75 2.41559 11.1104 0.791731 9.48813 0.900849L9.58879 2.39747ZM12.25 6.07293C12.25 7.43421 11.4646 8.88684 10.3552 10.0334C9.80931 10.5976 9.21037 11.06 8.64265 11.3772C8.06278 11.7011 7.57219 11.8422 7.23077 11.8422V13.3422C7.92781 13.3422 8.67761 13.0758 9.37418 12.6867C10.0829 12.2908 10.7965 11.7346 11.4332 11.0764C12.6893 9.77826 13.75 7.97127 13.75 6.07293H12.25ZM7.23077 11.8422C6.81795 11.8422 6.51646 11.6574 6.29053 11.3297C6.04912 10.9796 5.90385 10.468 5.90385 9.91463C5.90385 9.36126 6.04912 8.84968 6.29053 8.49955C6.51646 8.17189 6.81795 7.98708 7.23077 7.98708V6.48708C6.25897 6.48708 5.52201 6.97167 5.05562 7.64808C4.60472 8.30204 4.40385 9.12923 4.40385 9.91463C4.40385 10.7 4.60472 11.5272 5.05562 12.1812C5.52201 12.8576 6.25897 13.3422 7.23077 13.3422V11.8422ZM7.23077 7.98708C8.06092 7.98708 9.31303 8.66418 10.4075 9.96166C11.4738 11.2258 12.25 12.9229 12.25 14.6876H13.75C13.75 12.4943 12.7954 10.4661 11.5541 8.9945C10.3408 7.55622 8.70831 6.48708 7.23077 6.48708V7.98708ZM12.25 14.6876C12.25 16.4944 11.6801 17.2395 11.2696 17.5595C11.0489 17.7316 10.8299 17.8163 10.6695 17.858C10.5895 17.8788 10.5261 17.8883 10.4876 17.8926C10.4685 17.8948 10.4559 17.8955 10.4511 17.8958C10.4487 17.8959 10.4483 17.8959 10.45 17.8959C10.4508 17.8958 10.4522 17.8958 10.4541 17.8958C10.4551 17.8958 10.4562 17.8958 10.4574 17.8958C10.458 17.8958 10.4587 17.8958 10.4594 17.8958C10.4597 17.8958 10.4603 17.8958 10.4604 17.8958C10.461 17.8958 10.4615 17.8958 10.4615 18.6458C10.4615 19.3958 10.4621 19.3958 10.4627 19.3958C10.4629 19.3958 10.4635 19.3957 10.4639 19.3957C10.4648 19.3957 10.4657 19.3957 10.4666 19.3957C10.4685 19.3957 10.4705 19.3957 10.4727 19.3957C10.477 19.3956 10.482 19.3955 10.4877 19.3954C10.499 19.3951 10.5128 19.3946 10.529 19.3938C10.5613 19.3921 10.6033 19.389 10.6536 19.3834C10.754 19.3722 10.8888 19.3509 11.0468 19.3098C11.3624 19.2278 11.7781 19.0651 12.1919 18.7425C13.0506 18.073 13.75 16.839 13.75 14.6876H12.25ZM10.4615 17.8958H1V19.3958H10.4615V17.8958Z" fill="#EEBF77"/>
</svg>
