<svg width="15" height="14" viewBox="0 0 15 14" fill="none" xmlns="http://www.w3.org/2000/svg">
<path d="M0.595215 7V14H14.5952V0H0.595215V7ZM11.8766 6.44175C12.2122 6.52077 12.5172 6.69663 12.7538 6.9475C12.8815 7.084 13.0727 7.33469 13.0889 7.39638C13.0933 7.41475 12.4852 7.8225 12.1159 8.05044C12.1023 8.05962 12.0477 8.00275 11.9882 7.9135C11.8083 7.65144 11.6189 7.53769 11.3297 7.51712C10.9058 7.48956 10.6323 7.71094 10.6345 8.08238C10.6323 8.17326 10.6526 8.26329 10.6936 8.34444C10.7872 8.53825 10.9627 8.65419 11.5047 8.88913C12.5075 9.31962 12.9358 9.60444 13.2022 10.0078C13.5006 10.4589 13.5667 11.179 13.3663 11.7167C13.1432 12.2977 12.5915 12.6941 11.8167 12.824C11.5773 12.8673 11.0077 12.8603 10.75 12.8126C10.1874 12.7124 9.65409 12.4342 9.32596 12.0697C9.19603 11.9284 8.94534 11.557 8.96153 11.5321C8.96853 11.5229 9.0254 11.4866 9.08928 11.4498L9.60903 11.1488L10.0124 10.9143L10.0968 11.0394C10.2154 11.2192 10.4727 11.4656 10.628 11.5474C11.0747 11.7845 11.6876 11.7504 11.9908 11.4791C12.1137 11.3767 12.1824 11.2193 12.1732 11.06C12.1732 10.8981 12.1527 10.8255 12.0682 10.7043C11.9588 10.5494 11.7379 10.4173 11.1066 10.1439C10.3843 9.8315 10.0719 9.64031 9.78971 9.33275C9.61207 9.13031 9.48069 8.89158 9.40471 8.63319C9.35221 8.435 9.33865 7.938 9.37978 7.73981C9.52809 7.04025 10.0566 6.55506 10.8152 6.41156C11.0615 6.36387 11.6355 6.38181 11.877 6.44131L11.8766 6.44175ZM8.59096 7.02756L8.59534 7.59938H6.77228V12.7789H5.48253V7.59938H3.66209V7.03894C3.66209 6.72656 3.66909 6.46712 3.67784 6.46012C3.68484 6.45094 4.79215 6.44656 6.13659 6.44875L8.58396 6.45575L8.59096 7.02756Z" fill="#C6D6E6"/>
</svg>
