<svg width="14" height="14" viewBox="0 0 14 14" fill="none" xmlns="http://www.w3.org/2000/svg">
<path d="M4.98167 6.25921C4.92333 6.07838 4.87083 5.90338 4.8125 5.72255C4.75417 5.54171 4.70167 5.37255 4.655 5.20338C4.60833 5.04005 4.5675 4.88838 4.52667 4.74838H4.515C4.4625 4.99922 4.39833 5.25005 4.31667 5.50088C4.22917 5.78088 4.14167 6.07255 4.04833 6.36421C3.9725 6.66171 3.87917 6.93588 3.79167 7.18088H5.27333C5.23833 7.05838 5.19167 6.91255 5.13917 6.76088C5.08667 6.60338 5.03417 6.43421 4.98167 6.25921ZM9.98667 6.09005C9.66583 6.07255 9.3625 6.24171 9.21083 6.53338C9.14083 6.66755 9.1 6.80755 9.0825 6.95338H10.3127C10.4644 6.95338 10.5752 6.95338 10.6453 6.94755C10.6919 6.94171 10.7386 6.93005 10.7794 6.90088V6.84255C10.7772 6.74097 10.7548 6.64084 10.7137 6.54794C10.6725 6.45503 10.6134 6.37119 10.5397 6.30124C10.466 6.23129 10.3792 6.17662 10.2843 6.14037C10.1894 6.10412 10.0882 6.08702 9.98667 6.09005ZM11.5208 0.175049H2.47917C1.10833 0.175049 0 1.28338 0 2.65422V11.3459C0 12.7167 1.10833 13.825 2.47917 13.825H11.5208C12.8917 13.825 14 12.7167 14 11.3459V2.65422C14 1.28338 12.8917 0.175049 11.5208 0.175049ZM7.41417 9.80647H6.195C6.15417 9.8123 6.11333 9.78255 6.10167 9.7423L5.62333 8.3423H3.45333L3.01 9.71896C2.99833 9.77146 2.95167 9.80647 2.89917 9.80063H1.8025C1.73833 9.80063 1.72083 9.76563 1.73833 9.69563L3.61667 4.31088C3.63417 4.25255 3.65167 4.20005 3.675 4.13005C3.69833 4.00755 3.71 3.87921 3.71 3.75088C3.70417 3.72171 3.7275 3.69255 3.75667 3.68671H5.2675C5.30833 3.68671 5.3375 3.70422 5.34333 3.73338L7.4725 9.71255C7.49 9.77671 7.47308 9.80647 7.41417 9.80647ZM11.9939 7.47838C11.9817 7.58863 11.9758 7.67088 11.97 7.72338C11.9642 7.76421 11.9297 7.79921 11.8883 7.79921C11.8533 7.79921 11.7892 7.80505 11.6958 7.81146C11.6031 7.82313 11.4917 7.82838 11.3581 7.82838C11.2239 7.82838 11.0833 7.80505 10.9322 7.80505H9.08308C9.10583 7.98588 9.16475 8.16671 9.26392 8.32421C9.36714 8.48122 9.51536 8.60341 9.68917 8.6748C9.9225 8.77396 10.1798 8.82646 10.4364 8.82063C10.6406 8.81421 10.8442 8.7973 11.0425 8.75646C11.2207 8.73373 11.3953 8.68865 11.5622 8.6223C11.5914 8.59955 11.6089 8.61063 11.6089 8.66896V9.56205C11.6089 9.5848 11.6031 9.60871 11.5967 9.63146C11.5862 9.64769 11.5725 9.66158 11.5564 9.6723C11.3698 9.75396 11.1772 9.8123 10.9731 9.8473C10.6983 9.8998 10.4248 9.92313 10.1447 9.9173C9.70083 9.9173 9.32808 9.8473 9.02475 9.71313C8.73937 9.58886 8.48734 9.39899 8.28917 9.15896C8.10308 8.93146 7.96833 8.6748 7.88667 8.3948C7.80504 8.1181 7.76397 7.83103 7.76475 7.54255C7.76475 7.22813 7.81142 6.91838 7.91058 6.61505C8.00392 6.32338 8.14975 6.05505 8.34808 5.81588C8.54058 5.58255 8.77917 5.39588 9.05333 5.26171C9.32808 5.12755 9.65417 5.08088 10.0275 5.08088C10.3385 5.07363 10.6473 5.13538 10.9317 5.26171C11.1708 5.36671 11.3808 5.52421 11.5442 5.72838C11.6958 5.92671 11.8183 6.14838 11.8947 6.39338C11.97 6.62671 12.005 6.86588 12.005 7.10505C12.005 7.24505 11.9992 7.36755 11.9939 7.47838Z" fill="#C6D6E6"/>
</svg>
