<svg width="23" height="19" viewBox="0 0 23 19" fill="none" xmlns="http://www.w3.org/2000/svg">
<path d="M21.5527 1.27125C21.5527 1.27125 19.6265 2.40056 18.5555 2.72078C17.9806 2.06471 17.2166 1.5997 16.3667 1.38865C15.5169 1.1776 14.6223 1.23069 13.8038 1.54074C12.9854 1.85079 12.2826 2.40283 11.7906 3.12221C11.2986 3.8416 11.041 4.6936 11.0527 5.56301V6.51042C9.37525 6.55359 7.71304 6.18433 6.21415 5.43553C4.71526 4.68673 3.42622 3.58163 2.46183 2.21865C2.46183 2.21865 -1.35636 10.7453 7.23455 14.535C5.26869 15.8594 2.92684 16.5235 0.552734 16.4298C9.14364 21.1668 19.6436 16.4298 19.6436 5.53458C19.6436 5.27121 19.6169 5.00783 19.5673 4.74824C20.5409 3.79514 21.5527 1.27125 21.5527 1.27125Z" stroke="white" stroke-linecap="round" stroke-linejoin="round"/>
</svg>
