<svg width="16" height="22" viewBox="0 0 16 22" fill="none" xmlns="http://www.w3.org/2000/svg">
<path fill-rule="evenodd" clip-rule="evenodd" d="M2.56494 7.56238C2.56494 4.66288 4.91545 2.31238 7.81494 2.31238C10.7144 2.31238 13.0649 4.66288 13.0649 7.56238C13.0649 9.11406 12.3918 10.5085 11.3215 11.4696L9.33033 8.02075C8.65676 6.85409 6.97282 6.85408 6.29924 8.02075L4.30813 11.4695C3.23802 10.5083 2.56494 9.11396 2.56494 7.56238ZM3.54531 12.7907C2.03135 11.5529 1.06494 9.67049 1.06494 7.56238C1.06494 3.83446 4.08702 0.812378 7.81494 0.812378C11.5429 0.812378 14.5649 3.83446 14.5649 7.56238C14.5649 9.67059 13.5984 11.5531 12.0844 12.7909L15.3925 18.5208C16.0661 19.6874 15.2241 21.1458 13.877 21.1458H1.75261C0.405458 21.1458 -0.436508 19.6874 0.237066 18.5208L3.54531 12.7907ZM10.8233 13.6066L14.0935 19.2708C14.1897 19.4374 14.0694 19.6458 13.877 19.6458H1.75261C1.56016 19.6458 1.43988 19.4374 1.5361 19.2708L4.80638 13.6065C5.71222 14.0582 6.7339 14.3124 7.81494 14.3124C8.89588 14.3124 9.91748 14.0583 10.8233 13.6066ZM10.0713 12.3041C9.38774 12.63 8.62264 12.8124 7.81494 12.8124C7.00715 12.8124 6.24197 12.6299 5.55835 12.304L7.59828 8.77075C7.69451 8.60409 7.93507 8.60408 8.03129 8.77075L10.0713 12.3041Z" fill="#EEBF77"/>
</svg>
