<svg width="20" height="13" viewBox="0 0 20 13" fill="none" xmlns="http://www.w3.org/2000/svg">
<path fill-rule="evenodd" clip-rule="evenodd" d="M12.0003 6.29733L6.40075 1.44444H17.5999L12.0003 6.29733ZM18.6666 11.5556L18.6666 2.36977L12.4168 7.78619C12.1733 7.9972 11.8274 7.9972 11.5839 7.78619L5.33306 2.36892V2.88893L5.33372 4.33337H1.33364V2.88893H3.99971V1.44444C3.99971 0.646699 4.59667 0 5.33306 0H18.6666C19.403 0 20 0.6467 20 1.44444V11.5556C20 12.3533 19.403 13 18.6666 13H5.33307C4.59667 13 3.99971 12.3533 3.99971 11.5556H5.33306H7.99978L18.6666 11.5556ZM1.33364 8.6667H8.00043V10.1111H1.33364V8.6667ZM6.66679 5.77781H0V7.22226H6.66679V5.77781Z" fill="#002547"/>
</svg>
