<svg width="19" height="18" viewBox="0 0 19 18" fill="none" xmlns="http://www.w3.org/2000/svg">
<path d="M18.0957 17.2441H14.4395C14.3105 17.2441 14.1992 17.2002 14.1055 17.1123C14.0117 17.0244 13.9648 16.916 13.9648 16.7871V10.8984C13.9648 10.5117 13.9268 10.1836 13.8506 9.91406C13.7744 9.64453 13.6865 9.44531 13.5869 9.31641C13.4873 9.1875 13.3613 9.08496 13.209 9.00879C13.0566 8.93262 12.9424 8.8916 12.8662 8.88574C12.79 8.87988 12.6934 8.87695 12.5762 8.87695C12.2949 8.87695 12.043 8.94727 11.8203 9.08789C11.5977 9.22852 11.4424 9.36621 11.3545 9.50098C11.2666 9.63574 11.1934 9.77344 11.1348 9.91406C11.1113 9.98438 11.0908 10.0811 11.0732 10.2041C11.0557 10.3271 11.0469 10.4707 11.0469 10.6348V16.7871C11.0469 16.916 11 17.0273 10.9062 17.1211C10.8125 17.2148 10.7012 17.2617 10.5723 17.2617H6.91602C6.85742 17.2617 6.79883 17.25 6.74023 17.2266C6.68164 17.2031 6.62891 17.168 6.58203 17.1211C6.48828 17.0273 6.44727 16.916 6.45898 16.7871V15.1699L6.46777 13.5352L6.47656 11.6367V7.92773L6.46777 6.55664L6.45898 5.80078C6.44727 5.67187 6.48828 5.55762 6.58203 5.45801C6.67578 5.3584 6.78711 5.30859 6.91602 5.30859H10.5723C10.6426 5.30859 10.707 5.32031 10.7656 5.34375C10.8242 5.36719 10.874 5.39941 10.915 5.44043C10.9561 5.48145 10.9883 5.53125 11.0117 5.58984C11.0352 5.64844 11.0469 5.71289 11.0469 5.7832V6.04688C11.7969 5.37891 12.7402 5.04492 13.877 5.04492C15.3418 5.04492 16.4873 5.52539 17.3135 6.48633C18.1396 7.44727 18.5527 8.77734 18.5527 10.4766V16.7871C18.5527 16.8457 18.541 16.9043 18.5176 16.9629C18.4941 17.0215 18.4619 17.0713 18.4209 17.1123C18.3799 17.1533 18.3301 17.1855 18.2715 17.209C18.2129 17.2324 18.1543 17.2441 18.0957 17.2441ZM14.8965 16.3125H17.6211V10.4766C17.6211 9.04687 17.2959 7.94238 16.6455 7.16309C15.9951 6.38379 15.0723 5.99414 13.877 5.99414C12.6582 5.99414 11.709 6.49805 11.0293 7.50586C10.9707 7.72852 10.8242 7.83984 10.5898 7.83984H10.5547C10.3789 7.83984 10.2441 7.75781 10.1504 7.59375C10.0801 7.47656 10.0684 7.35352 10.1152 7.22461V6.24023H7.39062C7.41406 7.54102 7.41406 10.8984 7.39062 16.3125H10.1152V10.6348C10.1152 10.1777 10.168 9.82031 10.2734 9.5625C10.3555 9.36328 10.4551 9.17871 10.5723 9.00879C10.6895 8.83887 10.8213 8.68652 10.9678 8.55176C11.1143 8.41699 11.2725 8.30566 11.4424 8.21777C11.6123 8.12988 11.7939 8.05957 11.9873 8.00684C12.1807 7.9541 12.377 7.92773 12.5762 7.92773C13.0684 7.92773 13.4873 8.04492 13.833 8.2793C14.1787 8.51367 14.4424 8.85059 14.624 9.29004C14.8057 9.72949 14.8965 10.2656 14.8965 10.8984V16.3125ZM4.89453 17.2441H1.23828C1.10937 17.2441 0.998047 17.2002 0.904297 17.1123C0.810547 17.0244 0.763672 16.916 0.763672 16.7871V5.7832C0.763672 5.6543 0.810547 5.54297 0.904297 5.44922C0.998047 5.35547 1.10937 5.30859 1.23828 5.30859H4.89453C5.02344 5.30859 5.13477 5.35547 5.22852 5.44922C5.32227 5.54297 5.36914 5.6543 5.36914 5.7832V16.7871C5.36914 16.8691 5.34863 16.9453 5.30762 17.0156C5.2666 17.0859 5.20801 17.1416 5.13184 17.1826C5.05566 17.2236 4.97656 17.2441 4.89453 17.2441ZM1.71289 16.3125H4.4375V6.24023H1.71289V16.3125ZM3.06641 4.74609H3.04883C2.32227 4.74609 1.72461 4.52051 1.25586 4.06934C0.787109 3.61816 0.552734 3.0498 0.552734 2.36426C0.552734 1.67871 0.792969 1.11328 1.27344 0.667969C1.75391 0.222656 2.36328 0 3.10156 0C3.81641 0 4.4082 0.219727 4.87695 0.65918C5.3457 1.09863 5.58594 1.66406 5.59766 2.35547C5.59766 3.04687 5.36035 3.61816 4.88574 4.06934C4.41113 4.52051 3.80469 4.74609 3.06641 4.74609ZM3.10156 0.931641C2.62109 0.931641 2.23145 1.06348 1.93262 1.32715C1.63379 1.59082 1.48438 1.93945 1.48438 2.37305C1.48438 2.79492 1.63086 3.14063 1.92383 3.41016C2.2168 3.67969 2.5918 3.81445 3.04883 3.81445H3.06641C3.38281 3.81445 3.66113 3.75293 3.90137 3.62988C4.1416 3.50684 4.3291 3.33691 4.46387 3.12012C4.59863 2.90332 4.66602 2.6543 4.66602 2.37305C4.6543 1.93945 4.50781 1.59082 4.22656 1.32715C3.94531 1.06348 3.57031 0.931641 3.10156 0.931641Z" fill="white"/>
</svg>
