<svg width="14" height="14" viewBox="0 0 14 14" fill="none" xmlns="http://www.w3.org/2000/svg">
<path d="M6.1425 6.25921C6.08417 6.07838 6.03167 5.90338 5.97333 5.72255C5.915 5.54171 5.8625 5.37255 5.81583 5.20338C5.76917 5.04005 5.72833 4.88838 5.6875 4.74838H5.67583C5.62333 4.99922 5.55917 5.25005 5.4775 5.50088C5.39 5.78088 5.3025 6.07255 5.20917 6.36421C5.1275 6.66171 5.04 6.93588 4.9525 7.18088H6.43417C6.39917 7.0578 6.3525 6.91255 6.3 6.7603C6.2475 6.60338 6.195 6.43421 6.1425 6.25921ZM11.5208 0.175049H2.47917C1.10833 0.175049 0 1.28338 0 2.65422V11.3459C0 12.7167 1.10833 13.825 2.47917 13.825H11.5208C12.8917 13.825 14 12.7167 14 11.3459V2.65422C14 1.28338 12.8917 0.175049 11.5208 0.175049ZM8.575 9.81755H7.35525C7.315 9.82338 7.27417 9.79421 7.2625 9.75338L6.78417 8.36505H4.61417L4.17083 9.73588C4.15917 9.78838 4.1125 9.82338 4.06 9.81813H2.96333C2.89917 9.81813 2.88167 9.78255 2.89917 9.71313L4.7775 4.30505C4.795 4.24672 4.8125 4.18255 4.83583 4.11255C4.85917 3.99005 4.87083 3.86171 4.87083 3.73338C4.865 3.70422 4.88833 3.67505 4.9175 3.66921H6.42833C6.475 3.66921 6.49833 3.68671 6.50417 3.71588L8.63333 9.72421C8.65083 9.7878 8.63333 9.81755 8.575 9.81755ZM10.5583 9.73005C10.5583 9.79422 10.5356 9.82338 10.4831 9.82338H9.33917C9.28083 9.82338 9.25167 9.7878 9.25167 9.73005V5.23838C9.25167 5.18005 9.27558 5.15671 9.32808 5.15671H10.4831C10.5356 5.15671 10.5583 5.18588 10.5583 5.23838V9.73005ZM10.4364 4.46255C10.3675 4.53251 10.2845 4.58693 10.1928 4.62214C10.1011 4.65736 10.003 4.67256 9.905 4.66671C9.7125 4.67255 9.52583 4.59671 9.38525 4.46255C9.2516 4.31642 9.18042 4.1238 9.18692 3.92588C9.18108 3.72755 9.25692 3.54088 9.39633 3.40671C9.5375 3.27255 9.72417 3.20255 9.91667 3.20255C10.1447 3.20255 10.3186 3.27255 10.4475 3.40671C10.5758 3.54672 10.6458 3.73338 10.64 3.92588C10.6458 4.12421 10.5758 4.31671 10.4364 4.46255Z" fill="#C6D6E6"/>
</svg>
