<svg width="13" height="14" viewBox="0 0 13 14" fill="none" xmlns="http://www.w3.org/2000/svg">
<path d="M9.55965 3.12234e-05C9.24174 0.00178122 8.92732 0.0781977 8.82699 0.214114C8.76282 0.310364 8.71499 0.911779 8.76282 1.21628C8.76282 1.21628 8.78149 1.41753 8.81532 1.57444C8.81166 1.60986 8.80777 1.64525 8.80366 1.68061C8.78994 1.79902 8.77106 1.91677 8.74707 2.03353C8.74124 2.06619 8.62632 2.08894 8.49916 2.12219C8.47257 2.11325 8.44572 2.10508 8.41866 2.09769C8.28216 2.05744 8.19407 2.16944 8.05816 2.24936C8.01791 2.22602 7.84174 2.14552 7.74549 2.20152C7.64924 2.25752 7.58508 2.31411 7.48883 2.35377C7.44099 2.32986 7.31266 2.32986 7.20883 2.37011C7.10406 2.40264 7.00783 2.45802 6.92708 2.53227C5.57725 2.87061 4.1195 3.48602 4.00342 3.54785C3.41017 3.85235 2.44068 4.37327 2.00026 4.73377C1.24718 5.35851 0.798597 6.08826 0.621848 6.62493C0.397265 7.28993 0.461432 7.69068 0.677848 7.43401C0.85168 7.22051 1.62984 6.58584 2.12159 6.26793L2.12043 6.27201C2.20183 6.21473 2.28765 6.16402 2.37709 6.12035L2.51301 6.04801L2.80759 5.8596C3.15876 6.1816 3.27601 6.69551 3.35417 7.39376C3.48251 8.46767 4.34817 8.96467 5.35733 8.98042C6.40733 8.99675 6.78416 9.21317 7.17674 9.74167C7.26599 9.85892 7.36224 9.92075 7.45091 9.95634C7.41109 10.0314 7.37979 10.1106 7.35758 10.1926C7.31383 10.2917 7.28466 10.4142 7.26599 10.5472C7.25644 10.5601 7.25041 10.5751 7.24849 10.591C7.20883 10.9037 7.21641 11.641 7.20883 12.0336C7.20066 12.4262 7.19249 12.4827 7.16041 12.5387C7.12833 12.6029 7.09624 12.6426 7.05658 12.8112C7.01633 12.9873 6.94399 13.0352 6.87224 13.1792C6.75208 13.4038 6.776 13.6517 6.89616 13.7643C7.01633 13.8763 7.34533 14.0449 7.79333 13.9889C8.24249 13.9329 8.30666 13.9008 8.23432 13.468C8.22616 13.4038 8.12232 13.1151 8.15441 13.0031C8.20224 12.8829 8.09841 12.6747 8.12232 12.6665C8.14624 12.6583 8.17832 12.4985 8.17832 12.418C8.17832 12.3381 8.17016 11.9537 8.25824 11.753C8.29441 11.6713 8.37082 11.4847 8.44841 11.2951C8.70624 10.8733 8.71616 10.6178 8.72841 10.4726C8.74591 10.3547 8.75524 10.2043 8.73891 10.0386C8.77099 9.99017 8.90749 9.87817 8.92324 9.66175C8.92324 9.66175 9.2989 9.46517 9.56607 8.99209C9.6594 9.317 9.7469 9.52292 9.7329 9.73409C9.44182 9.96159 9.3339 10.1296 9.28957 10.2935C9.26157 10.2818 9.24524 10.2719 9.2254 10.2702H9.20965C9.18841 10.2732 9.16764 10.2789 9.14782 10.2871C9.03582 10.3268 9.12391 11.0559 9.24407 11.3528C9.36424 11.6492 9.4284 11.8253 9.47624 12.1462C9.52465 12.4664 9.36424 12.859 9.30007 13.0352C9.30007 13.0352 9.19565 13.3478 9.43599 13.5158C9.64482 13.6605 10.43 13.6208 10.7823 13.6208C11.1352 13.6208 11.6637 13.7486 12.0003 13.6844C12.4174 13.6121 12.481 13.3636 12.2331 13.2352C11.9846 13.1069 11.6077 13.0433 11.1189 12.691C10.9906 12.6023 10.8144 12.5224 10.7905 12.4507C10.7666 12.3783 10.7666 11.9618 10.7747 11.6007C10.7823 11.2402 10.9031 10.7759 10.9427 10.5274C10.9801 10.2953 10.8984 10.3011 10.7899 10.3227C10.8086 10.2369 10.8284 10.1523 10.8465 10.0625C11.0471 9.69384 10.9591 9.34909 10.9591 9.34909C11.4374 8.74009 11.1924 7.44159 11.0874 6.98776C11.4607 7.16451 11.6474 7.09743 11.6474 7.09743C11.7069 7.06534 11.7594 7.01926 11.8072 6.96676C12.0038 6.75559 12.1047 6.43243 12.1047 6.43243V6.41668C12.5609 5.95993 12.7761 5.28735 12.2564 4.84635C12.2988 4.72272 12.3094 4.59038 12.2871 4.46158C12.2647 4.33279 12.2102 4.21172 12.1286 4.1096C12.1992 3.93925 12.2164 3.75147 12.1778 3.57115C12.1393 3.39083 12.0469 3.22648 11.9128 3.09986C11.8314 3.02267 11.7346 2.96362 11.6287 2.92661C11.5121 2.75452 11.4858 2.68336 11.2951 2.72302C11.2076 2.62677 11.1912 2.55502 11.0069 2.61919C11.0069 2.61919 10.9509 2.48269 10.8465 2.45061C10.8371 2.44668 10.8273 2.44375 10.8173 2.44186C10.6411 2.31936 10.4813 2.31644 10.367 2.34852C10.3296 2.32052 10.3314 2.27619 10.3262 2.12219C10.3215 2.00553 10.3151 1.83869 10.3081 1.68819C10.3238 1.49686 10.3676 1.12003 10.3816 0.928112C10.3979 0.712279 10.4061 0.375113 10.3098 0.231031C10.1972 0.070031 9.87699 -0.00171877 9.55965 3.12234e-05ZM9.55674 0.198364C9.96507 0.198364 10.1412 0.326697 10.1657 0.398447C10.1733 0.41478 10.2136 0.687196 10.1891 0.863362C10.1815 0.927528 10.1733 1.16028 10.1576 1.26411C10.1494 1.36853 10.1173 1.48869 10.0852 1.65669C10.0613 1.79319 9.94932 1.94544 9.86123 1.96936C9.70899 2.00961 9.4284 2.00144 9.26799 1.96936C9.22774 1.96119 9.19565 1.93728 9.15599 1.91336C9.0679 1.76869 9.01949 1.65669 9.00374 1.48053C8.9874 1.31194 8.95532 1.24019 8.94774 1.11186C8.93957 0.919362 8.93957 0.791029 8.93957 0.791029C8.94774 0.687196 8.97982 0.43053 8.97982 0.406613C8.9874 0.334864 9.11574 0.198364 9.55674 0.198364ZM8.89582 1.77453C8.98099 1.86144 9.0714 1.95303 9.14782 2.01719C9.22015 2.08136 9.39632 2.07319 9.55615 2.07319C9.70082 2.07319 9.82915 2.08952 9.88515 2.05744C9.97499 2.01253 10.0922 1.92036 10.1902 1.82761C10.1967 1.91628 10.2031 2.00494 10.2054 2.08136C10.2112 2.25344 10.1803 2.35436 10.2194 2.41386C10.1716 2.44186 10.1179 2.47511 10.0625 2.50486C9.9744 2.55152 9.88399 2.58419 9.8274 2.57194H9.82623C9.70432 2.55152 9.28315 2.44652 9.04982 2.33452C8.95241 2.18344 8.85441 2.10236 8.85966 2.07319C8.87541 1.99328 8.88299 1.92911 8.89116 1.82528C8.89349 1.80778 8.89407 1.79144 8.89582 1.77394V1.77453ZM8.39824 2.17702L8.41866 2.17761C8.66599 2.19861 8.79782 2.26627 8.88999 2.34327L8.93432 2.36077L8.93899 2.34502C8.9664 2.36252 8.99849 2.38002 9.03349 2.39636C9.30765 2.48911 9.67749 2.57602 9.79707 2.60227C9.94115 2.63436 10.1733 2.49027 10.2859 2.41794C10.486 2.28961 10.7426 2.39461 10.8628 2.53052C10.9427 2.61802 10.9748 2.67461 10.9748 2.69852C11.1591 2.63436 11.1831 2.72244 11.2711 2.81869C11.4957 2.71427 11.5115 2.84261 11.5278 2.89861C11.4566 2.89861 11.354 2.90677 11.214 2.92194L11.207 2.91494C11.123 2.82569 10.9725 2.74636 10.8576 2.69094C10.8068 2.67286 10.7526 2.66236 10.7106 2.63436C10.6464 2.60227 10.5822 2.55444 10.486 2.56261C10.0852 2.61044 10.0053 2.74636 9.66057 2.66644C9.32399 2.58827 9.23065 2.51827 8.88299 2.53752L8.88357 2.55269C8.82232 2.56202 8.76691 2.57019 8.75524 2.57019C8.63507 2.57719 8.33407 2.60927 8.08266 2.51186C8.05244 2.49488 8.02106 2.48006 7.98874 2.46752L7.98583 2.46636H7.98524C7.88024 2.42552 7.75774 2.40219 7.61774 2.40102H7.60258C7.72974 2.33686 7.81024 2.24994 7.92924 2.27386C8.05757 2.29777 8.18591 2.40219 8.25824 2.48211C8.23513 2.41977 8.19983 2.36266 8.15441 2.31411C8.22907 2.26161 8.29732 2.18052 8.39824 2.17761V2.17702ZM7.75658 2.49494C7.84408 2.49611 7.91991 2.51011 7.99983 2.53752C8.01032 2.54277 8.01966 2.54802 8.03424 2.55444C8.20224 2.63436 8.50674 2.65011 8.76341 2.63436C8.87478 2.62984 8.98513 2.61122 9.09182 2.57894C9.27965 2.59294 9.39165 2.64311 9.66174 2.70494C9.84257 2.74577 9.95457 2.73119 10.0672 2.70086C10.1797 2.66994 10.2923 2.62502 10.4889 2.60169C10.5256 2.59779 10.5627 2.60036 10.5986 2.60927C10.6207 2.62094 10.6423 2.63261 10.6627 2.64486C10.6989 2.67344 10.7876 2.72361 10.8628 2.75511C10.9585 2.79477 11.207 2.96336 11.2391 3.00302C11.2449 3.01058 11.2525 3.01659 11.2612 3.02052C11.4024 3.20369 11.4986 3.46094 11.4922 3.72635C11.4572 3.99469 11.2437 3.85119 11.1271 3.79635C10.8867 3.69252 10.6464 3.62019 10.3658 3.62019C10.0858 3.62019 9.72474 3.6441 9.41207 3.7246C8.97982 3.84477 8.85149 3.8366 8.65957 3.74035C8.46707 3.63652 8.13049 3.37985 8.13049 3.37985V3.38569C8.12641 3.3816 8.12349 3.37869 8.12232 3.37985C8.09782 3.4201 8.04182 3.52394 8.00974 3.57235C7.99399 3.87685 7.80966 4.35752 7.46491 4.47768C7.42057 4.49414 7.37312 4.50052 7.32601 4.49639C7.2789 4.49225 7.23329 4.47769 7.19249 4.45377C7.09255 4.38731 6.98479 4.33343 6.87166 4.29335C7.15224 4.51735 7.29691 4.68593 7.42524 4.98227C7.52674 5.2331 7.66733 5.57551 8.00974 5.94243C8.22149 5.9401 8.43266 5.99901 8.57091 6.14426C8.65082 6.22418 8.77916 6.31285 8.76341 6.39276C8.76341 6.41668 8.71499 6.48084 8.67532 6.52926C8.6371 6.5739 8.5968 6.61672 8.55457 6.65759C8.52307 6.68093 8.41049 6.76959 8.38657 6.78593C8.36266 6.80168 8.33057 6.84134 8.30666 6.84951C8.22616 6.88976 8.13807 6.85768 8.05816 6.81743C7.97824 6.77718 8.07391 6.76959 7.98583 6.70543C7.78749 6.56543 7.67024 6.46568 7.72099 6.2201C7.17733 5.75693 6.22708 5.4851 6.02291 4.99043C5.89458 4.6696 5.87825 4.50977 5.99841 4.37327C6.35133 3.97252 6.21483 3.5881 6.47966 3.4201C6.72758 3.25969 6.93641 3.44344 7.05658 3.6126C6.98424 3.31569 6.73575 3.24335 6.73575 3.21944C6.73575 2.85077 7.08866 2.59469 7.44158 2.53052C7.56874 2.50661 7.66849 2.49436 7.75658 2.49552V2.49494ZM6.67916 2.80644C6.5975 2.92077 6.54441 3.06019 6.53566 3.22702C6.4155 3.24335 6.14308 3.2591 6.00658 3.7561C5.97676 3.88041 5.93495 4.00153 5.88175 4.11777C5.82166 4.14402 4.16325 4.86093 2.83151 5.6006L2.82567 5.59651C2.63901 5.70151 2.45993 5.80826 2.28959 5.91501L2.21668 5.95993L2.21609 5.96168C1.55343 6.38343 1.0261 6.80751 0.677848 7.19368C0.91818 5.63093 2.15251 4.81368 2.73701 4.45318C4.14867 3.5846 5.43725 3.15527 6.67916 2.80644ZM11.3674 2.99486C11.5191 2.99252 11.6801 3.02986 11.8084 3.15527C12.1526 3.49185 12.0563 3.86052 11.9525 4.1166C12.04 4.22102 12.2488 4.51735 12.1205 4.86968C12.0971 4.95018 11.9204 4.95018 11.7921 5.15843C12.1129 4.9741 12.313 5.02252 12.3853 5.25468C12.4973 5.61518 12.2488 6.04801 12.0324 6.28835C12.0324 6.28018 12.0242 6.27201 12.0242 6.26443C11.9921 6.3846 11.9525 6.61676 11.7121 6.87343C11.592 7.00176 11.4957 6.98543 11.3592 6.95334C11.2338 6.92184 11.1714 6.87051 11.0425 6.79234C11.0215 6.67159 10.983 6.51118 10.983 6.44818C10.983 6.42251 10.9806 6.36593 10.9771 6.30643C10.9958 6.28543 11.0156 6.26326 11.039 6.23993C11.039 6.23993 11.1428 6.09585 11.2956 6.10401C11.4473 6.11218 11.6077 6.0801 11.648 6.03985C11.648 5.75985 11.3271 5.75168 11.4397 5.27043C11.4473 5.2471 11.4876 5.20627 11.6159 5.19052C11.4234 5.15027 11.3359 5.1421 11.1994 5.01435L11.1918 5.00677C11.256 4.85918 11.3225 4.74018 11.3674 4.65385C11.48 4.42927 11.4152 4.15685 11.4152 4.15685C11.536 4.1166 11.6398 4.05244 11.6561 4.01277C11.7746 3.62019 11.5605 3.2416 11.3032 2.99777C11.3242 2.99602 11.3458 2.99486 11.3674 2.99427V2.99486ZM8.18241 3.53444C8.18824 3.54377 8.19407 3.55369 8.20224 3.5636C8.30666 3.69194 8.53882 3.85235 8.85149 3.95619C9.00316 4.0046 9.1239 3.97252 9.25982 3.94044C9.9149 3.77827 10.6038 3.7386 11.2023 4.03085C11.2355 4.243 11.2036 4.46022 11.1107 4.65385C10.9754 4.9251 10.7998 5.27685 10.8307 5.94593C10.6872 5.9716 10.003 6.02993 9.66874 5.96751C9.36482 5.91093 8.84274 5.66126 8.72374 5.56501C8.68891 5.40185 8.66455 5.23662 8.65082 5.07035C8.75213 5.02292 8.84235 4.95476 8.91566 4.87027C8.67532 4.90993 8.57907 4.8936 8.43441 4.81368C8.29732 4.73785 8.05991 4.50277 7.92691 4.33535C8.06049 4.16619 8.15616 3.93285 8.12232 3.62019C8.14391 3.59102 8.16316 3.56244 8.18182 3.53444H8.18241ZM5.62742 4.4666C5.57492 4.61418 5.68167 4.8481 5.75808 5.02252C6.05441 5.71026 6.96558 5.77501 7.58216 6.29418C7.57273 6.37141 7.58484 6.44974 7.61716 6.52051C7.66558 6.61676 7.83358 6.76143 7.83358 6.76143C7.80149 6.79293 7.81783 6.85709 7.81783 6.85709C7.93683 6.98368 8.11182 6.99884 8.13691 7.00059C7.88316 7.72859 7.66091 8.53242 7.87383 9.38934C7.76941 9.53167 7.65916 9.64892 7.56408 9.779C7.46036 9.74853 7.36942 9.68504 7.30508 9.59817C6.96033 9.10117 6.45516 8.77217 5.54167 8.79667C4.17142 8.82875 3.62659 8.26759 3.52276 7.19368C3.46792 6.62551 3.31451 6.07251 3.00476 5.7476C3.88909 5.25818 5.1205 4.62993 5.51017 4.50918C5.54958 4.49647 5.5885 4.48227 5.62683 4.4666H5.62742ZM7.66674 4.5716C7.88899 4.82943 8.13049 4.99568 8.36266 5.14268C8.41049 5.34277 8.42682 5.47926 8.47466 5.74351H8.45074L8.43499 5.92318C8.31726 5.88784 8.19595 5.86573 8.07332 5.85726L8.07391 5.85551C7.55299 5.23893 7.66558 4.99802 7.45674 4.67777C7.51333 4.65793 7.58799 4.62293 7.66674 4.5716ZM11.1148 5.2051C11.1591 5.24418 11.2186 5.2751 11.3032 5.29493C11.1125 5.6916 11.4957 5.82693 11.5191 5.97743C11.4356 6.02585 11.305 5.99901 11.1673 5.99201C11.1002 5.98851 11.0337 6.02993 10.9801 6.07776L10.9987 5.86368C11.0022 5.61285 11.0512 5.39177 11.1154 5.20452L11.1148 5.2051ZM8.73132 5.80243C8.74532 5.82285 8.83516 5.87885 9.31582 6.00776C9.91432 6.16818 10.6709 6.07776 10.8033 6.06026C10.8012 6.07802 10.7969 6.09546 10.7905 6.11218C10.7905 6.31226 10.8226 6.45635 10.8465 6.58468C10.8774 6.76434 10.9223 6.89559 10.9416 7.01634L10.9462 7.01226C11.0827 7.80967 11.2735 8.83984 10.7905 9.37359C10.8144 9.48559 10.8307 9.646 10.7986 9.83033C10.7784 9.93672 10.7489 10.0411 10.7106 10.1424C10.6841 10.2091 10.663 10.2777 10.6476 10.3478C10.0059 10.4306 9.62382 10.3798 9.4459 10.339C9.51765 10.1208 9.68332 9.89917 9.9569 9.91025C9.94407 9.37884 9.8029 9.19684 9.65882 8.80717C9.88924 8.29209 9.83323 7.83592 10.0211 7.14584C9.87698 7.29809 9.7644 7.85109 9.66874 8.18767C9.54857 8.67651 9.34032 9.149 8.77916 9.52584C8.77916 9.65417 8.73891 9.74984 8.69107 9.814C8.58666 9.96625 8.45074 10.0147 8.40291 10.2632C8.46707 10.1827 8.55457 10.1109 8.55457 10.1348C8.55249 10.2308 8.54763 10.3267 8.53999 10.4224L8.54699 10.423C8.45074 11.032 8.24249 11.3126 8.11416 11.6567C8.02607 11.9052 8.05816 12.4501 8.02607 12.4582C7.80149 12.5067 7.45733 12.4186 7.36108 12.3707C7.45558 11.7057 7.37216 11.0419 7.61541 10.2708L7.60666 10.2673C7.69999 9.94408 7.88549 9.75508 8.15441 9.41325C8.06049 9.10992 7.84408 8.45659 8.30957 6.97376C8.32882 6.96559 8.34866 6.95626 8.37082 6.94518L8.49099 6.86526C8.51432 6.84893 8.54699 6.82501 8.57091 6.80926C8.61116 6.78476 8.78732 6.59284 8.81124 6.56893C8.86724 6.51234 8.90749 6.4966 8.92324 6.43243C8.95532 6.31226 8.77916 6.1921 8.70741 6.1116C8.69691 6.10051 8.68991 6.09176 8.68232 6.08243C8.68991 6.05968 8.69807 6.03751 8.70682 6.01593C8.71266 5.94301 8.72316 5.86426 8.73132 5.80185V5.80243ZM9.2464 10.4353C9.27557 10.4364 9.3479 10.5064 9.68449 10.5274C10.0695 10.5507 10.5822 10.479 10.7181 10.4469C10.8546 10.4148 10.7747 10.5111 10.7584 10.6073L10.7432 10.7059C10.5105 10.7841 10.1552 10.8156 9.91724 10.8237C9.68799 10.8313 9.42374 10.8167 9.23999 10.7596C9.21199 10.6079 9.20324 10.4854 9.2359 10.4388C9.23733 10.4375 9.23899 10.4365 9.24079 10.4359C9.2426 10.4353 9.24451 10.4351 9.2464 10.4353ZM10.7082 10.9287C10.6966 11.0075 10.6878 11.0588 10.6744 11.1457C10.4481 11.2157 10.1564 11.2169 9.93357 11.2245C9.73588 11.2336 9.53779 11.2199 9.34324 11.1837C9.33624 11.1627 9.32982 11.1414 9.32399 11.1201C9.31079 11.0712 9.29815 11.0222 9.28607 10.9731C9.39049 10.9929 9.59524 11.0192 9.9569 11.0238C10.2108 11.0318 10.4643 10.9997 10.7082 10.9287ZM10.6464 11.3283C10.6061 11.585 10.6143 12.3702 10.6382 12.5866C10.6464 12.6507 11.1912 12.8911 11.3831 13.0357C11.4456 13.0853 11.5342 13.1273 11.6293 13.1652C11.6538 13.1897 11.697 13.2265 11.7442 13.2837C11.8387 13.4079 11.7746 13.538 11.6655 13.5905C11.5115 13.5864 11.3341 13.5602 11.039 13.5158C10.6336 13.4552 10.3804 13.4569 10.0298 13.454V13.4522C9.94115 13.2918 9.99715 13.0276 9.99715 13.0276C9.83461 13.0228 9.67447 12.9872 9.52524 12.9226L9.53224 12.9074C9.66874 12.6274 9.66057 12.5627 9.62032 12.082C9.5929 11.7448 9.50599 11.5669 9.4249 11.3849C9.52349 11.3942 9.66349 11.4053 9.92482 11.4088C10.1679 11.4151 10.4107 11.388 10.6464 11.3283ZM7.55124 12.544C7.69299 12.544 7.90124 12.5627 7.94557 12.6023V12.6105C7.95374 12.7067 8.04182 12.8432 8.00974 12.915C7.99399 12.9552 7.95374 12.8911 7.89774 12.8753C7.92166 13.027 7.98583 13.3076 8.08207 13.524C8.14624 13.6687 8.10599 13.7725 7.88958 13.8127C7.69708 13.8209 7.44916 13.8127 7.24091 13.7643C7.00058 13.6442 6.92008 13.58 6.96849 13.356C7.00816 13.1956 7.25666 13.0118 7.47308 12.8672C7.35291 12.8753 7.22458 12.9634 7.24091 12.859C7.27299 12.6507 7.36108 12.6665 7.41708 12.5627C7.40541 12.551 7.46608 12.544 7.55124 12.544Z" fill="#C6D6E6"/>
</svg>
