<svg width="14" height="14" viewBox="0 0 14 14" fill="none" xmlns="http://www.w3.org/2000/svg">
<g clip-path="url(#clip0_318_101)">
<path d="M2.47917 0.174805C1.10833 0.174805 0 1.28314 0 2.65397V11.3456C0 12.7165 1.10833 13.8248 2.47917 13.8248H11.5208C12.8917 13.8248 14 12.7165 14 11.3456V2.65397C14 1.28314 12.8917 0.174805 11.5208 0.174805H2.47917ZM9.07667 3.1673H10.2608C10.29 3.16147 10.3133 3.1848 10.3192 3.20814V8.77314C10.3192 8.87814 10.325 8.9948 10.3308 9.12314C10.3425 9.24564 10.3483 9.3623 10.3542 9.46147C10.3542 9.5023 10.3367 9.5373 10.2958 9.5548C9.9925 9.68314 9.67167 9.77647 9.345 9.83481C9.05333 9.88731 8.75 9.91647 8.44667 9.91647C8.015 9.92231 7.58333 9.8348 7.1925 9.65397C6.825 9.4848 6.52167 9.2048 6.31167 8.86064C6.09583 8.5048 5.99083 8.06147 5.99083 7.53064C5.985 7.09897 6.09583 6.67314 6.31167 6.2998C6.53333 5.92064 6.85417 5.60564 7.23917 5.39564C7.6475 5.16814 8.1375 5.0573 8.715 5.0573C8.74417 5.0573 8.785 5.0573 8.8375 5.06314C8.89 5.06897 8.94833 5.06897 9.01833 5.0748V3.23147C9.01833 3.19064 9.03583 3.1673 9.07667 3.1673ZM3.8675 3.66897H5.005C5.04 3.66314 5.075 3.68647 5.08083 3.7273C5.08667 3.73314 5.08667 3.73897 5.08667 3.7448V9.7298C5.08667 9.79397 5.0575 9.82314 5.005 9.82314H3.86167C3.80917 9.82314 3.78583 9.79397 3.78583 9.7298V3.7448C3.78583 3.6923 3.815 3.66897 3.8675 3.66897ZM8.66833 6.1423C8.44083 6.1423 8.21333 6.18897 8.00917 6.29397C7.81083 6.39314 7.64167 6.53897 7.51333 6.72564C7.385 6.9123 7.32083 7.16314 7.32083 7.46647C7.315 7.67064 7.35 7.8748 7.42 8.0673C7.47833 8.2248 7.56583 8.3648 7.6825 8.48147C7.79333 8.58647 7.9275 8.66814 8.07917 8.7148C8.23667 8.7673 8.4 8.79064 8.56333 8.79064C8.65083 8.79064 8.7325 8.7848 8.80833 8.77897C8.88417 8.7848 8.95417 8.77314 9.01833 8.7498V6.18314C8.90369 6.15575 8.7862 6.14204 8.66833 6.1423Z" fill="#DCE3E9"/>
</g>
<defs>
<clipPath id="clip0_318_101">
<rect width="14" height="14" fill="white"/>
</clipPath>
</defs>
</svg>
