<svg width="14" height="14" viewBox="0 0 14 14" fill="none" xmlns="http://www.w3.org/2000/svg">
<path d="M5.92083 4.91171C5.70186 4.82588 5.46753 4.78616 5.2325 4.79505C5.02048 4.79062 4.80838 4.79451 4.59667 4.80671V6.76671L4.82417 6.77838H5.13333C5.36083 6.77838 5.58833 6.74338 5.80417 6.67338C5.99083 6.62088 6.15417 6.51005 6.2825 6.36421C6.405 6.21838 6.46333 6.02005 6.46333 5.76338C6.4765 5.58196 6.43084 5.40113 6.33312 5.24771C6.23539 5.0943 6.09081 4.97647 5.92083 4.91171ZM11.5208 0.175049H2.47917C1.82165 0.175049 1.19106 0.436246 0.726131 0.90118C0.261197 1.36611 0 1.9967 0 2.65422L0 11.3459C0 12.7167 1.10833 13.825 2.47917 13.825H11.5208C12.8917 13.825 14 12.7167 14 11.3459V2.65422C14 1.28338 12.8917 0.175049 11.5208 0.175049ZM7.385 6.97088C7.15167 7.29755 6.825 7.54255 6.44583 7.68255C6.04917 7.82838 5.61167 7.88088 5.13333 7.88088L4.84167 7.87505L4.59083 7.86921V9.74172C4.59249 9.75136 4.5921 9.76125 4.5897 9.77073C4.5873 9.78022 4.58293 9.7891 4.57688 9.79679C4.57084 9.80449 4.56324 9.81083 4.55459 9.81541C4.54594 9.81999 4.53643 9.82271 4.52667 9.82338H3.395C3.34833 9.82338 3.325 9.80005 3.325 9.74755V3.74505C3.325 3.70422 3.3425 3.68088 3.38333 3.68088L3.71 3.67505L4.15333 3.66338L4.66083 3.65172L5.19167 3.64588C5.67 3.64588 6.06667 3.70421 6.39333 3.82671C6.685 3.92588 6.95333 4.08921 7.175 4.30505C7.36167 4.49171 7.5075 4.71921 7.60083 4.97005C7.68833 5.21505 7.735 5.46588 7.735 5.72838C7.735 6.23005 7.61833 6.64421 7.385 6.97088ZM11.3633 5.13338V6.27088C11.3633 6.31755 11.3342 6.33505 11.27 6.33505C10.8851 6.32107 10.5021 6.39487 10.15 6.55088C10.0392 6.60338 9.93417 6.67338 9.8525 6.76671V9.74172C9.8525 9.80005 9.82917 9.82338 9.77667 9.82338H8.6275C8.61676 9.82503 8.6058 9.82451 8.59526 9.82187C8.58472 9.81923 8.57482 9.81451 8.56613 9.80799C8.55743 9.80147 8.55013 9.79328 8.54464 9.78391C8.53915 9.77453 8.53559 9.76415 8.53417 9.75338V6.49838L8.52833 6.06088L8.51667 5.60588C8.51667 5.47171 8.505 5.34338 8.49333 5.20921C8.49134 5.1954 8.49436 5.18133 8.50185 5.16956C8.50935 5.15779 8.52081 5.14909 8.53417 5.14505H9.5725C9.63083 5.14505 9.6775 5.18588 9.68917 5.23838C9.74189 5.41231 9.76746 5.59332 9.765 5.77505C9.94 5.57088 10.1558 5.40171 10.395 5.27338C10.6662 5.12276 10.9715 5.04442 11.2817 5.04588C11.3225 5.04005 11.3575 5.06921 11.3633 5.11005V5.13338Z" fill="#C6D6E6"/>
</svg>
