<svg width="32" height="32" viewBox="0 0 32 32" fill="none" xmlns="http://www.w3.org/2000/svg">
<rect x="3" y="7" width="26" height="19" rx="2" fill="#487CB1"/>
<path fill-rule="evenodd" clip-rule="evenodd" d="M5 7C3.89543 7 3 7.89543 3 9V10H29V9C29 7.89543 28.1046 7 27 7H5ZM9.5 9C9.77614 9 10 8.77614 10 8.5C10 8.22386 9.77614 8 9.5 8C9.22386 8 9 8.22386 9 8.5C9 8.77614 9.22386 9 9.5 9ZM8 8.5C8 8.77614 7.77614 9 7.5 9C7.22386 9 7 8.77614 7 8.5C7 8.22386 7.22386 8 7.5 8C7.77614 8 8 8.22386 8 8.5ZM5.5 9C5.77614 9 6 8.77614 6 8.5C6 8.22386 5.77614 8 5.5 8C5.22386 8 5 8.22386 5 8.5C5 8.77614 5.22386 9 5.5 9Z" fill="#002547"/>
<path d="M15.5 16V19.5" stroke="#002547"/>
<path d="M13 19.6923L15.5 16L18 19.6923L16.75 22H14.25L13 19.6923Z" stroke="#002547"/>
<rect x="13.25" y="22.25" width="4.5" height="0.5" stroke="#002547" stroke-width="0.5"/>
<path d="M9.5 20.5V18.5C9.5 16.8333 11.5 13.5 15.5 13.5C19.5 13.5 21.5 16.8333 21.5 18.5V20" stroke="#002547"/>
<line x1="10" y1="13.5" x2="21" y2="13.5" stroke="#002547"/>
<circle cx="9.5" cy="13.5" r="1" stroke="#002547"/>
<circle cx="21.5" cy="13.5" r="1" stroke="#002547"/>
<rect x="8.5" y="18.5" width="2" height="2" stroke="#EEBF77"/>
<rect x="20.5" y="18.5" width="2" height="2" stroke="#EEBF77"/>
<rect x="14.5" y="12.5" width="2" height="2" stroke="#EEBF77"/>
</svg>
