<svg width="18" height="18" viewBox="0 0 18 18" fill="none" xmlns="http://www.w3.org/2000/svg">
<path d="M9.05273 4.77192C8.26363 4.77192 7.49224 5.00592 6.83612 5.44432C6.18 5.88273 5.66862 6.50585 5.36664 7.23489C5.06467 7.96393 4.98565 8.76614 5.1396 9.54009C5.29355 10.314 5.67354 11.0249 6.23152 11.5829C6.78951 12.1409 7.50042 12.5209 8.27436 12.6749C9.04831 12.8288 9.85052 12.7498 10.5796 12.4478C11.3086 12.1458 11.9317 11.6344 12.3701 10.9783C12.8085 10.3222 13.0425 9.55083 13.0425 8.76172C13.0413 7.70393 12.6206 6.6898 11.8726 5.94183C11.1247 5.19385 10.1105 4.77312 9.05273 4.77192V4.77192ZM9.05273 11.7107C8.46948 11.7107 7.89933 11.5377 7.41437 11.2137C6.92941 10.8897 6.55143 10.4291 6.32823 9.89024C6.10503 9.35139 6.04663 8.75845 6.16042 8.1864C6.27421 7.61436 6.55507 7.0889 6.96749 6.67648C7.37991 6.26405 7.90537 5.98319 8.47742 5.8694C9.04946 5.75562 9.6424 5.81402 10.1813 6.03722C10.7201 6.26042 11.1807 6.6384 11.5047 7.12335C11.8288 7.60831 12.0017 8.17847 12.0017 8.76172C12.0008 9.54356 11.6898 10.2931 11.137 10.846C10.5841 11.3988 9.83458 11.7098 9.05273 11.7107V11.7107ZM12.8691 0.261719H5.23641C3.99466 0.263142 2.80417 0.757056 1.92612 1.63511C1.04807 2.51316 0.554158 3.70364 0.552734 4.94539V12.578C0.554158 13.8198 1.04807 15.0103 1.92612 15.8883C2.80417 16.7664 3.99466 17.2603 5.23641 17.2617H12.8691C14.1108 17.2603 15.3013 16.7664 16.1793 15.8883C17.0574 15.0103 17.5513 13.8198 17.5527 12.578V4.94539C17.5513 3.70364 17.0574 2.51316 16.1793 1.63511C15.3013 0.757056 14.1108 0.263142 12.8691 0.261719ZM16.5119 12.578C16.5108 13.5439 16.1267 14.4698 15.4438 15.1527C14.7608 15.8357 13.8349 16.2198 12.8691 16.2209H5.23641C4.27059 16.2198 3.34465 15.8357 2.66171 15.1527C1.97878 14.4698 1.59463 13.5439 1.59355 12.578V4.94539C1.59463 3.97958 1.97878 3.05363 2.66171 2.37069C3.34465 1.68776 4.27059 1.30361 5.23641 1.30254H12.8691C13.8349 1.30361 14.7608 1.68776 15.4438 2.37069C16.1267 3.05363 16.5108 3.97958 16.5119 4.94539V12.578ZM14.4303 4.25151C14.4303 4.42306 14.3794 4.59075 14.2841 4.73339C14.1888 4.87602 14.0533 4.98719 13.8949 5.05284C13.7364 5.11849 13.562 5.13566 13.3937 5.1022C13.2255 5.06873 13.0709 4.98612 12.9496 4.86482C12.8283 4.74352 12.7457 4.58897 12.7123 4.42073C12.6788 4.25248 12.696 4.07808 12.7616 3.9196C12.8273 3.76111 12.9384 3.62565 13.0811 3.53034C13.2237 3.43504 13.3914 3.38417 13.5629 3.38417C13.7929 3.38444 14.0133 3.47591 14.1759 3.63851C14.3385 3.80111 14.43 4.02156 14.4303 4.25151V4.25151Z" fill="white"/>
</svg>
