<svg width="15" height="15" viewBox="0 0 15 15" fill="none" xmlns="http://www.w3.org/2000/svg">
<g clip-path="url(#clip0_127_480)">
<path fill-rule="evenodd" clip-rule="evenodd" d="M0.595215 0.5H14.5952V14.5H0.595215V0.5ZM11.2976 12.2367C10.6484 12.2367 10.2815 11.8983 9.99971 11.4375L8.93046 12.0588C9.31663 12.8217 10.1059 13.4039 11.328 13.4039C12.5775 13.4039 13.5079 12.7552 13.5079 11.5705C13.5079 10.4721 12.8767 9.98383 11.759 9.50375L11.43 9.36317C10.8654 9.11817 10.621 8.95892 10.621 8.564C10.621 8.24492 10.866 8.0005 11.251 8.0005C11.6284 8.0005 11.8716 8.15975 12.0974 8.564L13.1217 7.90658C12.6883 7.14417 12.0875 6.85308 11.251 6.85308C10.0761 6.85308 9.32421 7.60442 9.32421 8.59142C9.32421 9.66183 9.95422 10.1687 10.9039 10.573L11.2329 10.7142C11.8331 10.9767 12.1907 11.1365 12.1907 11.5874C12.1907 11.9642 11.8425 12.2367 11.2976 12.2367ZM6.1993 12.2279C5.74721 12.2279 5.5588 11.9187 5.3523 11.5512L4.2813 12.1999C4.59163 12.8567 5.2018 13.4016 6.25471 13.4016C7.4208 13.4016 8.21938 12.7815 8.21938 11.4194V6.92775H6.90396V11.4019C6.90396 12.0593 6.63096 12.2279 6.19871 12.2279H6.1993Z" fill="#C6D6E6"/>
</g>
<defs>
<clipPath id="clip0_127_480">
<rect width="14" height="14" fill="white" transform="translate(0.595215 0.5)"/>
</clipPath>
</defs>
</svg>
