<svg width="13" height="14" viewBox="0 0 13 14" fill="none" xmlns="http://www.w3.org/2000/svg">
<path d="M6.46997 8.35975C6.20917 8.47036 5.92343 8.6145 5.35141 8.90428C5.13453 9.01689 4.9079 9.1295 4.69698 9.23561C4.68234 9.22209 4.66716 9.20508 4.65252 9.19106C3.52095 8.07497 1.42807 7.2867 1.51699 5.78772C1.55006 5.24169 1.75339 3.80828 5.5363 2.06758C8.64961 0.651188 11.1269 1.04357 11.5547 1.91393C12.1696 3.15464 10.2269 5.46341 7.01162 5.79824C6.65578 5.86486 6.28825 5.85681 5.93623 5.77469C5.5842 5.69256 5.25667 5.53846 4.97784 5.32377C4.80759 5.1531 4.78211 5.14309 4.71921 5.17713C4.61565 5.22718 4.68234 5.38183 4.71921 5.47041C4.84186 5.67539 5.00778 5.85558 5.20716 6.00035C5.40655 6.14511 5.63536 6.25151 5.88006 6.31324C7.14534 6.56569 8.46455 6.44507 9.65159 5.9684C11.6002 5.27222 13.1217 3.33682 12.676 1.71423C12.2287 0.0691174 9.27042 -0.473415 6.4716 0.444485C4.71882 0.989717 3.09941 1.84802 1.70567 2.97046C0.163661 4.30177 -0.0803281 5.4589 0.0194363 5.94338C0.378372 7.66356 2.94731 8.78316 3.97748 9.61248C3.92326 9.64 3.87772 9.66253 3.83705 9.68405C3.32305 9.91978 1.36355 10.8652 0.875025 11.8652C0.320356 12.9983 0.963946 13.8106 1.38903 13.9197C2.02963 14.0613 2.70216 14.0148 3.3127 13.7865C3.92325 13.5582 4.44132 13.1597 4.79458 12.6465C5.09456 12.2209 5.27877 11.7347 5.33154 11.2293C5.38431 10.7239 5.30408 10.2142 5.09767 9.7436C5.21945 9.65394 5.34933 9.57407 5.48588 9.50487C5.7483 9.36173 5.99826 9.22059 6.22002 9.11148C6.9793 8.78319 7.80791 8.61415 8.64635 8.6165C10.4063 8.80769 10.7539 9.82118 10.6872 10.2481C10.656 10.3996 10.59 10.5431 10.4937 10.6691C10.3973 10.795 10.2729 10.9005 10.1287 10.9783C10.0067 11.0499 9.96606 11.0739 9.97691 11.125C9.99155 11.2 10.0506 11.1965 10.1542 11.183C10.4186 11.1059 10.6516 10.9567 10.8225 10.7551C10.9934 10.5535 11.0942 10.3089 11.1117 10.0534C11.1659 9.05243 10.132 7.95435 8.30151 7.96436C7.75342 7.96523 7.2108 8.06503 6.7042 8.25815C6.62287 8.28918 6.54389 8.32254 6.46726 8.35825L6.46997 8.35975ZM3.85386 12.2831C3.26937 12.8702 2.45607 13.0919 2.10473 12.9042C1.72519 12.704 1.87538 11.8357 2.59271 11.2145C3.01755 10.8612 3.47675 10.5447 3.96447 10.2691C4.0496 10.2191 4.17539 10.153 4.32666 10.0689L4.36732 10.0484L4.45624 9.99835C4.58418 10.3943 4.59582 10.8145 4.48997 11.216C4.38413 11.6174 4.1646 11.9857 3.85386 12.2831Z" fill="#C6D6E6"/>
</svg>
