<svg width="14" height="14" viewBox="0 0 14 14" fill="none" xmlns="http://www.w3.org/2000/svg">
<path d="M0.133044 4.88257C0.133044 4.88257 -0.207622 4.63349 0.201294 4.30215L1.15504 3.43999C1.15504 3.43999 1.42746 3.15007 1.71621 3.40265L10.5135 10.1355V13.3637C10.5135 13.3637 10.5094 13.8712 9.86596 13.8152L0.132461 4.88199L0.133044 4.88257Z" fill="#C6D6E6"/>
<path d="M2.401 6.96313L0.133001 9.0468C0.133001 9.0468 -0.100333 9.2218 0.133001 9.53505L1.18592 10.5034C1.18592 10.5034 1.43617 10.7746 1.80542 10.4655L4.20933 8.6233L2.401 6.96313Z" fill="#C6D6E6"/>
<path d="M6.38181 6.98004L10.541 3.77054L10.5136 0.559292C10.5136 0.559292 10.3356 -0.141875 9.74356 0.223292L4.20947 5.31404L6.38181 6.98004Z" fill="#C6D6E6"/>
<path d="M9.86557 13.8192C10.1071 14.0689 10.3999 13.9872 10.3999 13.9872L13.6409 12.3731C14.0557 12.0873 13.9973 11.7326 13.9973 11.7326V2.09303C13.9973 1.66953 13.5686 1.52311 13.5686 1.52311L10.7592 0.154028C10.1456 -0.229222 9.74365 0.223445 9.74365 0.223445C9.74365 0.223445 10.2605 -0.152805 10.5137 0.559445V13.3053C10.5137 13.3928 10.495 13.4785 10.4582 13.5561C10.3842 13.7072 10.2237 13.8478 9.83874 13.7894L9.86557 13.8192Z" fill="#C6D6E6"/>
</svg>
