<svg width="8" height="12" viewBox="0 0 8 12" fill="none" xmlns="http://www.w3.org/2000/svg">
<path d="M1.75 0.166748C1.28587 0.166748 0.840752 0.351123 0.512563 0.679311C0.184374 1.0075 0 1.45262 0 1.91675C0 2.38088 0.184374 2.826 0.512563 3.15419C0.840752 3.48237 1.28587 3.66675 1.75 3.66675H5.83333C6.29746 3.66675 6.74258 3.48237 7.07077 3.15419C7.39896 2.826 7.58333 2.38088 7.58333 1.91675C7.58333 1.45262 7.39896 1.0075 7.07077 0.679311C6.74258 0.351123 6.29746 0.166748 5.83333 0.166748H1.75Z" fill="#C6D6E6"/>
<path d="M5.8335 4.25C5.36937 4.25 4.92425 4.43437 4.59606 4.76256C4.26787 5.09075 4.0835 5.53587 4.0835 6C4.0835 6.46413 4.26787 6.90925 4.59606 7.23744C4.92425 7.56563 5.36937 7.75 5.8335 7.75C6.29762 7.75 6.74274 7.56563 7.07093 7.23744C7.39912 6.90925 7.5835 6.46413 7.5835 6C7.5835 5.53587 7.39912 5.09075 7.07093 4.76256C6.74274 4.43437 6.29762 4.25 5.8335 4.25Z" fill="#C6D6E6"/>
<path d="M0 6C0 5.53587 0.184374 5.09075 0.512563 4.76256C0.840752 4.43437 1.28587 4.25 1.75 4.25H3.5V7.75H1.75C1.28587 7.75 0.840752 7.56563 0.512563 7.23744C0.184374 6.90925 0 6.46413 0 6Z" fill="#C6D6E6"/>
<path d="M1.75 8.3335C1.40388 8.3335 1.06554 8.43613 0.777753 8.62842C0.489967 8.82072 0.265665 9.09403 0.133212 9.4138C0.000758251 9.73357 -0.0338976 10.0854 0.0336265 10.4249C0.101151 10.7644 0.267822 11.0762 0.512564 11.3209C0.757306 11.5657 1.06913 11.7323 1.40859 11.7999C1.74806 11.8674 2.09993 11.8327 2.4197 11.7003C2.73947 11.5678 3.01278 11.3435 3.20507 11.0557C3.39736 10.768 3.5 10.4296 3.5 10.0835V8.3335H1.75Z" fill="#C6D6E6"/>
</svg>
