<svg width="21" height="16" viewBox="0 0 21 16" fill="none" xmlns="http://www.w3.org/2000/svg">
<path d="M8.77767 2.15529C8.97016 2.54027 8.89471 3.00524 8.59035 3.3096L4.60711 7.29284C4.21658 7.68337 4.21658 8.31653 4.60711 8.70706L8.59035 12.6903C8.89471 12.9947 8.97016 13.4596 8.77767 13.8446L8.42048 14.559C8.11523 15.1695 7.30158 15.3015 6.81894 14.8189L0.707107 8.70706C0.316583 8.31653 0.316582 7.68337 0.707107 7.29284L6.81894 1.18101C7.30158 0.69837 8.11523 0.830405 8.42048 1.4409L8.77767 2.15529ZM12.0223 13.8446C11.8298 13.4596 11.9053 12.9947 12.2097 12.6903L16.1929 8.70706C16.5834 8.31653 16.5834 7.68337 16.1929 7.29284L12.2097 3.3096C11.9053 3.00524 11.8298 2.54027 12.0223 2.15528L12.3795 1.4409C12.6848 0.830404 13.4984 0.698368 13.9811 1.18101L20.0929 7.29284C20.4834 7.68337 20.4834 8.31653 20.0929 8.70706L13.9811 14.8189C13.4984 15.3015 12.6848 15.1695 12.3795 14.559L12.0223 13.8446Z" fill="#6698CC"/>
</svg>
