<svg width="15" height="15" viewBox="0 0 15 15" fill="none" xmlns="http://www.w3.org/2000/svg">
<path d="M10.5189 9.11245L9.05952 10.5726L7.67564 11.9565L7.4054 12.2291C7.02604 12.6076 6.55531 12.8816 6.03885 13.0246C5.5224 13.1676 4.97776 13.1747 4.45775 13.0452C4.35253 13.4927 4.08675 13.886 3.71082 14.1506C3.33489 14.4151 2.87494 14.5325 2.41822 14.4804C1.9615 14.4284 1.53976 14.2105 1.23298 13.8682C0.926213 13.5258 0.755743 13.0828 0.753906 12.6232C0.753906 11.7369 1.37069 10.994 2.19619 10.7993C2.06289 10.2763 2.06798 9.72773 2.21094 9.20736C2.3539 8.687 2.62982 8.21279 3.01157 7.83136L3.1167 7.72623L4.50058 9.11089L4.39311 9.21602C4.17721 9.43214 4.05593 9.72513 4.05593 10.0306C4.05593 10.3361 4.17721 10.6291 4.39311 10.8452C4.49914 10.9536 4.62574 11.0397 4.76549 11.0985C4.90524 11.1572 5.05532 11.1875 5.20693 11.1875C5.35854 11.1875 5.50862 11.1572 5.64837 11.0985C5.78812 11.0397 5.91472 10.9536 6.02074 10.8452L6.29254 10.5734L7.67486 9.18877L9.13661 7.72545L10.5189 9.11245ZM11.0586 12.997C10.519 13.164 9.94401 13.1806 9.39563 13.045C8.84725 12.9095 8.34626 12.6268 7.94665 12.2275L7.84152 12.1193L9.22228 10.7354L9.32741 10.8437C9.54347 11.0591 9.83613 11.1801 10.1412 11.1801C10.4463 11.1801 10.739 11.0591 10.955 10.8437C11.0617 10.7369 11.1463 10.6102 11.2039 10.4708C11.2616 10.3314 11.2912 10.182 11.2911 10.0311C11.2909 9.88019 11.261 9.73082 11.2031 9.5915C11.1452 9.45218 11.0604 9.32565 10.9535 9.21914L10.6809 8.94735L9.30016 7.56347L7.8384 6.10093L9.22228 4.71783L10.6825 6.18115L12.064 7.56502L12.3358 7.83682C12.7152 8.21259 12.9906 8.68039 13.135 9.19447C13.2794 9.70855 13.2879 10.2513 13.1598 10.7697C13.6291 10.8364 14.0556 11.0785 14.3536 11.4472C14.6516 11.8159 14.7988 12.2838 14.7656 12.7567C14.7325 13.2295 14.5214 13.6723 14.1748 13.9957C13.8283 14.3192 13.3721 14.4994 12.8981 14.5C12.4665 14.5011 12.0478 14.3523 11.7138 14.079C11.3797 13.8057 11.1509 13.4249 11.0664 13.0016L11.0586 12.997ZM4.82767 6.0176L6.29254 4.55429L7.67642 3.17041L7.94665 2.90096C8.34103 2.50531 8.83519 2.22385 9.37667 2.08646C9.91814 1.94907 10.4867 1.96087 11.022 2.12063C11.0697 1.77433 11.2132 1.44825 11.4364 1.1792C11.6596 0.910143 11.9535 0.708826 12.2851 0.597966C12.6166 0.487106 12.9725 0.471117 13.3126 0.551802C13.6527 0.632488 13.9636 0.806636 14.21 1.05459C14.4564 1.30255 14.6286 1.61444 14.7071 1.95507C14.7857 2.2957 14.7674 2.6515 14.6545 2.98232C14.5415 3.31314 14.3384 3.60581 14.0679 3.82729C13.7975 4.04878 13.4705 4.19026 13.1239 4.23577C13.2784 4.76915 13.2868 5.33424 13.1481 5.87196C13.0095 6.40968 12.7289 6.90027 12.3358 7.29245L12.2291 7.4007L10.8452 6.01682L10.9535 5.90935C11.0601 5.80269 11.1447 5.67606 11.2024 5.53672C11.26 5.39737 11.2897 5.24802 11.2897 5.09721C11.2896 4.94639 11.2599 4.79706 11.2021 4.65774C11.1444 4.51842 11.0598 4.39184 10.9531 4.28522C10.8464 4.17861 10.7198 4.09405 10.5805 4.03636C10.4411 3.97868 10.2918 3.94901 10.141 3.94905C9.99014 3.94909 9.84081 3.97883 9.70149 4.03658C9.56217 4.09432 9.43559 4.17895 9.32897 4.28561L9.05874 4.55507L7.67486 5.93817L6.21154 7.39915L4.82767 6.0176ZM3.27791 7.56269L3.00845 7.29245C2.61186 6.89609 2.33009 6.39967 2.1931 5.85596C2.05611 5.31225 2.06902 4.74158 2.23046 4.20462C1.81611 4.10952 1.44622 3.87679 1.18117 3.54441C0.916111 3.21203 0.771537 2.79963 0.771039 2.37451C0.771658 1.87741 0.969455 1.40086 1.32103 1.04944C1.6726 0.698012 2.14923 0.500412 2.64632 0.5C3.57851 0.5 4.35184 1.18143 4.49825 2.07234C5.0132 1.95113 5.55058 1.96341 6.05947 2.10801C6.56836 2.25261 7.0319 2.52474 7.40618 2.89862L7.51365 3.00765L6.12899 4.39075L6.0223 4.28483C5.80621 4.07007 5.51393 3.94953 5.20926 3.94953C4.9046 3.94953 4.61232 4.07007 4.39623 4.28483C4.1801 4.50064 4.05839 4.79336 4.05781 5.09879C4.05722 5.40421 4.17781 5.6974 4.39311 5.91403L4.6649 6.1866L6.04878 7.57048L7.51209 9.03379L6.12977 10.4177L4.66335 8.95436L3.27869 7.57048V7.56269H3.27791Z" fill="#C6D6E6"/>
</svg>
