<svg width="32" height="32" viewBox="0 0 32 32" fill="none" xmlns="http://www.w3.org/2000/svg">
<rect x="9" y="6" width="13" height="21" rx="2" fill="#002547"/>
<path d="M9 8C9 6.89543 9.89543 6 11 6H20C21.1046 6 22 6.89543 22 8V23.6842H9V8Z" fill="#487CB1"/>
<rect x="10" y="7.10522" width="11" height="5.52632" rx="1" fill="#002547"/>
<rect x="10" y="13.7368" width="5" height="4.42105" rx="1" fill="#002547"/>
<rect x="16" y="13.7368" width="5" height="4.42105" rx="1" fill="#002547"/>
<rect x="15" y="24.7894" width="1" height="1.10526" rx="0.5" fill="#487CB1"/>
<rect x="5" y="10" width="8" height="5" rx="1" fill="#EEBF77"/>
<rect x="6" y="11" width="6" height="1" rx="0.5" fill="#E8A94A"/>
<rect x="6" y="13" width="4" height="1" rx="0.5" fill="#E8A94A"/>
<rect x="19" y="17" width="8" height="5" rx="1" fill="#EEBF77"/>
<rect x="20" y="18" width="6" height="1" rx="0.5" fill="#E8A94A"/>
<rect x="20" y="20" width="4" height="1" rx="0.5" fill="#E8A94A"/>
</svg>
