<svg width="16" height="13" viewBox="0 0 16 13" fill="none" xmlns="http://www.w3.org/2000/svg">
<path d="M14.8248 5.57209L3.2613 5.57209L6.80056 1.52388C6.8825 1.43 6.94422 1.32166 6.9822 1.20506C7.02018 1.08845 7.03367 0.965868 7.0219 0.844301C6.99813 0.598784 6.87292 0.372316 6.67381 0.214715C6.47469 0.0571151 6.218 -0.0187066 5.96018 0.0039297C5.70236 0.026566 5.46455 0.145807 5.29905 0.33542L0.424054 5.90635C0.391255 5.95066 0.361926 5.99721 0.336303 6.04562C0.336303 6.09205 0.287554 6.1199 0.268054 6.16632C0.22386 6.27278 0.200722 6.38611 0.199804 6.50058C0.200722 6.61505 0.22386 6.72838 0.268054 6.83484C0.268054 6.88126 0.316803 6.90911 0.336303 6.95554C0.361926 7.00395 0.391255 7.0505 0.424053 7.09481L5.29905 12.6657C5.39073 12.7706 5.50552 12.8548 5.63528 12.9126C5.76504 12.9704 5.90657 13.0002 6.0498 13C6.27761 13.0004 6.49839 12.9249 6.6738 12.7864C6.77253 12.7085 6.85414 12.6128 6.91396 12.5047C6.97378 12.3967 7.01063 12.2785 7.0224 12.1569C7.03418 12.0353 7.02064 11.9127 6.98257 11.796C6.9445 11.6794 6.88265 11.5711 6.80055 11.4773L3.2613 7.42907L14.8248 7.42907C15.0834 7.42907 15.3314 7.33125 15.5142 7.15712C15.6971 6.983 15.7998 6.74683 15.7998 6.50058C15.7998 6.25433 15.6971 6.01817 15.5142 5.84404C15.3314 5.66992 15.0834 5.57209 14.8248 5.57209Z" fill="#eebf77"/>
</svg>
