<svg width="14" height="14" viewBox="0 0 14 14" fill="none" xmlns="http://www.w3.org/2000/svg">
<path d="M13.7348 6.376L7.622 0.264128C7.53831 0.180392 7.43894 0.113966 7.32956 0.0686462C7.22019 0.0233263 7.10296 0 6.98456 0C6.86617 0 6.74894 0.0233263 6.63957 0.0686462C6.53019 0.113966 6.43082 0.180392 6.34713 0.264128L5.07838 1.53288L6.68838 3.14288C6.87826 3.07805 7.08254 3.06791 7.2779 3.11361C7.47327 3.15931 7.65185 3.25902 7.79327 3.40135C7.93469 3.54368 8.03324 3.7229 8.07769 3.91855C8.12213 4.11421 8.11068 4.31842 8.04463 4.50788L9.596 6.06013C9.82553 5.97931 10.0757 5.97907 10.3054 6.05943C10.5351 6.1398 10.7306 6.29598 10.8596 6.50227C10.9887 6.70855 11.0437 6.95264 11.0155 7.19434C10.9873 7.43603 10.8777 7.66093 10.7046 7.832C10.5294 8.00827 10.2985 8.11824 10.0512 8.14313C9.80396 8.16803 9.55572 8.1063 9.34891 7.9685C9.1421 7.83069 8.98956 7.62536 8.91732 7.38758C8.84509 7.14979 8.85766 6.8943 8.95288 6.66475L7.5065 5.2175V9.02638C7.72635 9.1352 7.90226 9.31609 8.00492 9.53889C8.10757 9.76169 8.13076 10.0129 8.07062 10.2508C8.01048 10.4886 7.87065 10.6986 7.67444 10.8459C7.47822 10.9931 7.23747 11.0686 6.99232 11.0599C6.74716 11.0511 6.51241 10.9586 6.3272 10.7977C6.14199 10.6369 6.01749 10.4174 5.97448 10.1759C5.93146 9.9344 5.97251 9.68544 6.0908 9.47053C6.20908 9.25562 6.39745 9.08774 6.6245 8.99488V5.151C6.49351 5.09733 6.37443 5.01825 6.27414 4.91834C6.17384 4.81842 6.09432 4.69964 6.04015 4.56885C5.98597 4.43806 5.95823 4.29783 5.9585 4.15627C5.95878 4.0147 5.98707 3.87458 6.04175 3.744L4.45538 2.15675L0.264128 6.348C0.180392 6.4317 0.113966 6.53107 0.0686462 6.64044C0.0233263 6.74982 0 6.86705 0 6.98544C0 7.10383 0.0233263 7.22106 0.0686462 7.33044C0.113966 7.43981 0.180392 7.53918 0.264128 7.62288L6.37688 13.7356C6.46057 13.8194 6.55994 13.8858 6.66932 13.9311C6.77869 13.9764 6.89592 13.9998 7.01432 13.9998C7.13271 13.9998 7.24994 13.9764 7.35931 13.9311C7.46869 13.8858 7.56806 13.8194 7.65175 13.7356L13.7356 7.65175C13.9045 7.48261 13.9994 7.25335 13.9994 7.01432C13.9994 6.77528 13.9045 6.54602 13.7356 6.37688" fill="white"/>
</svg>
