<svg width="19" height="19" viewBox="0 0 19 19" fill="none" xmlns="http://www.w3.org/2000/svg">
<path d="M12.8843 18.2617V15.8255C12.9161 15.4207 12.8614 15.0138 12.7239 14.6318C12.5863 14.2498 12.369 13.9015 12.0864 13.61C14.7518 13.3128 17.553 12.3027 17.553 7.66791C17.5528 6.48275 17.0969 5.34304 16.2797 4.48467C16.6667 3.44779 16.6393 2.3017 16.2033 1.28446C16.2033 1.28446 15.2017 0.98736 12.8843 2.54078C10.9387 2.01348 8.88783 2.01348 6.94225 2.54078C4.62485 0.98736 3.62319 1.28446 3.62319 1.28446C3.1872 2.3017 3.15984 3.44779 3.5468 4.48467C2.72351 5.34941 2.26716 6.49942 2.2735 7.69338C2.2735 12.2942 5.07475 13.3044 7.74018 13.6354C7.4609 13.924 7.24552 14.2682 7.10804 14.6455C6.97056 15.0228 6.91407 15.4249 6.94225 15.8255V18.2617" stroke="white" stroke-linecap="round" stroke-linejoin="round"/>
<path d="M6.94204 16.5642C4.39545 17.3901 2.27329 16.5642 1 14.0176" stroke="white" stroke-linecap="round" stroke-linejoin="round"/>
</svg>
