<svg width="14" height="14" viewBox="0 0 14 14" fill="none" xmlns="http://www.w3.org/2000/svg">
<path d="M5.74583 4.91196C5.53 4.82446 5.29667 4.78946 5.0575 4.79529C4.90583 4.79529 4.77167 4.79529 4.66083 4.80113C4.54417 4.79529 4.4625 4.80113 4.42167 4.80696V6.76696C4.50333 6.77279 4.57917 6.77863 4.64917 6.77863H4.95833C5.18583 6.77863 5.41333 6.74363 5.62917 6.67363C5.81583 6.62113 5.97917 6.51029 6.1075 6.36446C6.23 6.21863 6.28833 6.02029 6.28833 5.76363C6.29417 5.58279 6.2475 5.40196 6.15417 5.24446C6.0569 5.093 5.91386 4.97652 5.74583 4.91196ZM11.5208 0.175293H2.47917C1.10833 0.175293 0 1.28363 0 2.65446V11.3455C0 12.7164 1.10833 13.8247 2.47917 13.8247H11.5208C12.8917 13.8247 14 12.7164 14 11.3455V2.65446C14 1.28363 12.8917 0.175293 11.5208 0.175293ZM7.20942 6.97113C6.97667 7.29779 6.65 7.54279 6.27083 7.68279C5.87417 7.82863 5.43667 7.88113 4.95833 7.88113C4.81833 7.88113 4.725 7.88113 4.66667 7.87529C4.60833 7.86946 4.52667 7.86946 4.41583 7.86946V9.74138C4.42167 9.78221 4.3925 9.81779 4.35167 9.82363H3.22C3.17333 9.82363 3.15 9.79971 3.15 9.74721V3.74529C3.15 3.70446 3.1675 3.68113 3.20833 3.68113C3.3075 3.68113 3.40083 3.68113 3.535 3.67529C3.675 3.66946 3.82083 3.66946 3.97833 3.66363C4.13583 3.65779 4.305 3.65779 4.48583 3.65196C4.66667 3.64613 4.84167 3.64613 5.01667 3.64613C5.495 3.64613 5.89167 3.70446 6.21833 3.82696C6.51 3.92613 6.77833 4.08946 7 4.30529C7.18667 4.49196 7.3325 4.71946 7.42583 4.97029C7.51275 5.21529 7.55942 5.46613 7.55942 5.72863C7.56 6.23029 7.44333 6.64446 7.20942 6.97113ZM11.3458 9.24029C11.1825 9.47363 10.9544 9.65388 10.6925 9.76004C10.4067 9.88196 10.0567 9.94554 9.63608 9.94554C9.36833 9.94554 9.10525 9.92279 8.84333 9.87029C8.63917 9.83471 8.435 9.77113 8.24833 9.68363C8.2075 9.66088 8.17775 9.62004 8.18358 9.57338V8.55838C8.18358 8.54146 8.19 8.51754 8.2075 8.50588C8.22442 8.49421 8.2425 8.50004 8.26 8.51171C8.4875 8.64588 8.72667 8.73979 8.98333 8.79754C9.20442 8.85588 9.43775 8.88504 9.67167 8.88504C9.89333 8.88504 10.0508 8.85529 10.1558 8.80279C10.2492 8.76196 10.3133 8.66279 10.3133 8.55779C10.3133 8.47554 10.2667 8.40029 10.1733 8.32446C10.08 8.24921 9.88808 8.16171 9.60225 8.04971C9.30475 7.94471 9.03117 7.80471 8.77392 7.63029C8.59138 7.49956 8.43983 7.33028 8.33 7.13446C8.23729 6.9499 8.19141 6.74536 8.19642 6.53888C8.19642 6.28804 8.26642 6.04888 8.39533 5.83304C8.54117 5.59971 8.75642 5.41304 9.00725 5.29638C9.28083 5.15696 9.625 5.09279 10.0392 5.09279C10.2783 5.09279 10.5233 5.11029 10.7625 5.14529C10.9375 5.16863 11.1067 5.21529 11.2642 5.27946C11.2869 5.28529 11.3108 5.30863 11.3225 5.33196C11.3283 5.35529 11.3342 5.37863 11.3342 5.40196V6.35279C11.3342 6.37613 11.3225 6.39946 11.305 6.41113C11.2525 6.42279 11.2233 6.42279 11.2 6.41113C11.025 6.31779 10.8383 6.25363 10.64 6.21279C10.4242 6.16613 10.2083 6.13696 9.98667 6.13696C9.87 6.13113 9.7475 6.14863 9.63608 6.17779C9.56083 6.19529 9.49608 6.23613 9.45525 6.29446C9.42608 6.34113 9.40858 6.39946 9.40858 6.45196C9.40858 6.50446 9.43192 6.55696 9.4675 6.60363C9.52 6.66779 9.58942 6.72029 9.66583 6.76113C9.79942 6.83113 9.94 6.89529 10.0794 6.95363C10.395 7.05863 10.6983 7.20446 10.9783 7.37946C11.1708 7.50138 11.3283 7.66529 11.4386 7.86363C11.5319 8.04913 11.5786 8.25446 11.5728 8.46388C11.5792 8.73863 11.4975 9.01221 11.3458 9.24029Z" fill="#C6D6E6"/>
</svg>
