<svg width="14" height="15" viewBox="0 0 14 15" fill="none" xmlns="http://www.w3.org/2000/svg">
<g clip-path="url(#clip0_127_505)">
<path d="M10.9871 0.675049H3.01292C2.21384 0.675049 1.44749 0.99248 0.882463 1.55751C0.317431 2.12254 0 2.88889 0 3.68797L0 11.3121C0 12.1112 0.317431 12.8776 0.882463 13.4426C1.44749 14.0076 2.21384 14.325 3.01292 14.325H10.9871C11.7862 14.325 12.5525 14.0076 13.1175 13.4426C13.6826 12.8776 14 12.1112 14 11.3121V3.68797C14 2.88889 13.6826 2.12254 13.1175 1.55751C12.5525 0.99248 11.7862 0.675049 10.9871 0.675049ZM7.42525 10.2948H6.09117C5.99783 10.2948 5.93133 10.2913 5.894 10.2289C5.76858 9.98447 5.64317 9.7418 5.51833 9.50088C5.38925 9.253 5.25624 9.00719 5.11933 8.76355C4.9771 8.51136 4.83767 8.25759 4.70108 8.0023H4.69175C4.56531 8.25452 4.43541 8.50499 4.30208 8.75363C4.16792 9.00388 4.03433 9.25296 3.90308 9.5003C3.77196 9.74783 3.63758 9.99363 3.5 10.2376C3.47433 10.2942 3.43058 10.3 3.36758 10.3H2.08133C2.05625 10.3 2.04225 10.31 2.03933 10.2849C2.03596 10.2619 2.04093 10.2386 2.05333 10.219L3.86575 7.24105L2.1 4.25555C2.08075 4.23047 2.07783 4.21005 2.09067 4.19313C2.09757 4.18503 2.1063 4.17869 2.11614 4.17464C2.12598 4.17058 2.13664 4.16892 2.14725 4.1698H3.47142C3.50027 4.1686 3.52907 4.17337 3.556 4.1838C3.57836 4.19664 3.5975 4.21439 3.612 4.23572C3.72458 4.48655 3.85 4.7368 3.98767 4.98705C4.12533 5.2373 4.26475 5.48463 4.40533 5.72905C4.54592 5.97346 4.676 6.2208 4.795 6.47105H4.80433C4.92858 6.21438 5.05517 5.96413 5.18467 5.71972C5.31417 5.4753 5.44542 5.22972 5.579 4.98238C5.71375 4.73447 5.84325 4.4883 5.96867 4.24505C5.97564 4.22159 5.98849 4.20031 6.006 4.18322C6.02929 4.17162 6.05535 4.16677 6.08125 4.16922H7.3115C7.32534 4.16585 7.33995 4.16806 7.35217 4.17537C7.3644 4.18268 7.37325 4.19451 7.37683 4.2083C7.37929 4.21821 7.37889 4.22862 7.37569 4.23832C7.37249 4.24802 7.36662 4.25662 7.35875 4.26313L7.35933 4.26547L5.61225 7.14888L7.48125 10.2108C7.4935 10.2324 7.49642 10.2575 7.49058 10.2814C7.48475 10.3024 7.46317 10.2884 7.42525 10.2948ZM11.9058 10.0498C11.6005 10.177 11.2826 10.2714 10.9573 10.3315C10.6597 10.3868 10.3577 10.4151 10.0549 10.4161C9.62278 10.4225 9.19462 10.3328 8.80133 10.1536C8.43492 9.98397 8.1286 9.70714 7.92283 9.35971C7.69669 8.95437 7.58612 8.49473 7.60317 8.03088C7.59969 7.59982 7.70995 7.17547 7.92283 6.80063C8.14215 6.41878 8.46461 6.10643 8.85325 5.89938C9.34438 5.64273 9.89703 5.52723 10.4498 5.56572C10.5 5.56863 10.5595 5.5733 10.6283 5.57972V3.72938C10.6283 3.68563 10.647 3.66347 10.6849 3.66347H11.8679C11.8811 3.66163 11.8944 3.66509 11.905 3.67307C11.9156 3.68105 11.9226 3.69291 11.9245 3.70605C11.9251 3.7107 11.9251 3.7154 11.9245 3.72005V9.27163C11.9245 9.37838 11.9292 9.49388 11.9385 9.6193C11.9478 9.74413 11.956 9.85672 11.9618 9.95705C11.9631 9.97637 11.9583 9.99561 11.9483 10.0122C11.9383 10.0288 11.9235 10.0419 11.9058 10.0498ZM10.4726 6.65947C10.5251 6.66472 10.577 6.67405 10.6277 6.68747V9.25121C10.5605 9.27122 10.4912 9.28374 10.4212 9.28855C10.3399 9.2951 10.2584 9.29821 10.1768 9.29788C10.0125 9.29864 9.84904 9.27324 9.69267 9.22263C9.54482 9.17609 9.40982 9.09581 9.29833 8.98813C9.18203 8.87093 9.0923 8.73008 9.03525 8.57513C8.96535 8.38252 8.93192 8.17857 8.93667 7.97372C8.92437 7.71261 8.99149 7.45391 9.12917 7.23172C9.25342 7.04738 9.42317 6.89863 9.62208 6.79947C9.82625 6.69855 10.0514 6.64663 10.2795 6.64897C10.3442 6.65013 10.4084 6.65305 10.4726 6.65947Z" fill="#C6D6E6"/>
</g>
<defs>
<clipPath id="clip0_127_505">
<rect width="14" height="14" fill="white" transform="translate(0 0.5)"/>
</clipPath>
</defs>
</svg>
