<svg width="22" height="18" viewBox="0 0 22 18" fill="none" xmlns="http://www.w3.org/2000/svg">
<path d="M19.6667 16.6667H11.75C11.1977 16.6667 10.75 16.219 10.75 15.6667V12.0834C10.75 11.5311 11.1977 11.0834 11.75 11.0834H19.6667C20.219 11.0834 20.6667 11.5311 20.6667 12.0834V15.6667C20.6667 16.219 20.219 16.6667 19.6667 16.6667ZM5.58333 16.6667H2C1.44772 16.6667 1 16.219 1 15.6667V12.0834C1 11.5311 1.44772 11.0834 2 11.0834H5.58333C6.13562 11.0834 6.58333 11.5311 6.58333 12.0834V15.6667C6.58333 16.219 6.13562 16.6667 5.58333 16.6667ZM19.6667 6.91671H2C1.44771 6.91671 1 6.46899 1 5.91671V2.33338C1 1.78109 1.44772 1.33337 2 1.33337H19.6667C20.219 1.33337 20.6667 1.78109 20.6667 2.33337V5.91671C20.6667 6.46899 20.219 6.91671 19.6667 6.91671Z" stroke="#6698CC" stroke-width="2"/>
</svg>
