<svg width="223" height="226" viewBox="0 0 223 226" fill="none" xmlns="http://www.w3.org/2000/svg">
<path d="M111.95 85.6997L111.95 180.131" stroke="#DCE3E9" stroke-width="2.6807" stroke-miterlimit="10"/>
<path d="M196.266 182.161V112.933C196.266 111.105 194.914 109.655 193.209 109.655H30.7489C29.0438 109.655 27.6914 111.105 27.6914 112.933V182.161" stroke="#DCE3E9" stroke-width="2.6807" stroke-miterlimit="10"/>
<path d="M134.879 135.838H88.1347C86.4884 135.838 85.1948 134.54 85.1948 132.888V124.157C85.1948 122.505 86.4884 121.207 88.1347 121.207H134.879C136.526 121.207 137.819 122.505 137.819 124.157V132.888C137.819 134.54 136.526 135.838 134.879 135.838Z" fill="#DCE3E9"/>
<path d="M101.011 127.402H89.9572C89.3104 127.402 88.7812 126.871 88.7812 126.222V125.514C88.7812 124.865 89.3104 124.334 89.9572 124.334H101.011C101.658 124.334 102.187 124.865 102.187 125.514V126.222C102.128 126.871 101.658 127.402 101.011 127.402Z" fill="#9DBEE1"/>
<path d="M126.589 132.535H115.535C114.889 132.535 114.359 132.004 114.359 131.355V130.647C114.359 129.998 114.889 129.467 115.535 129.467H126.589C127.236 129.467 127.765 129.998 127.765 130.647V131.355C127.707 132.004 127.236 132.535 126.589 132.535Z" fill="#9DBEE1"/>
<path d="M126.236 127.401H106.009C105.363 127.401 104.833 126.87 104.833 126.221V125.513C104.833 124.864 105.363 124.333 106.009 124.333H126.236C126.883 124.333 127.412 124.864 127.412 125.513V126.221C127.353 126.87 126.824 127.401 126.236 127.401Z" fill="#9DBEE1"/>
<path d="M111.242 132.535H89.9572C89.3104 132.535 88.7812 132.004 88.7812 131.355V130.647C88.7812 129.998 89.3104 129.467 89.9572 129.467H111.242C111.889 129.467 112.418 129.998 112.418 130.647V131.355C112.359 132.004 111.889 132.535 111.242 132.535Z" fill="#9DBEE1"/>
<path d="M132.939 127.401H130.175C129.529 127.401 129 126.87 129 126.221V125.513C129 124.864 129.529 124.333 130.175 124.333H132.939C133.586 124.333 134.115 124.864 134.115 125.513V126.221C134.115 126.87 133.586 127.401 132.939 127.401Z" fill="#9DBEE1"/>
<path d="M107.957 151.177L111.978 155.198L115.999 151.177" stroke="#DCE3E9" stroke-width="2.6807" stroke-linecap="round" stroke-linejoin="round"/>
<circle cx="27.6616" cy="198.063" r="27.268" fill="#FFF2E0"/>
<path d="M18.5965 191.237C18.9463 191.221 19.22 191.206 19.2961 191.206C20.9082 191.206 22.3074 190.373 22.9766 189.13C24.2541 190.449 26.0944 191.221 28.0563 191.221H36.7253C36.2995 197.328 33.2577 201.828 27.6457 201.828C22.0641 201.828 19.0223 197.343 18.5965 191.237ZM18.5356 189.706C18.5356 184.63 22.0641 182.13 27.6609 182.13C33.2729 182.13 36.7861 184.63 36.7861 189.706H28.0563C26.0488 189.706 24.2085 188.676 23.3264 187.07C22.9462 186.388 21.8968 186.645 21.8968 187.433C21.8968 188.661 20.7561 189.706 19.2961 189.706C19.2809 189.706 18.9463 189.706 18.5356 189.706Z" fill="#EEBF77"/>
<path fill-rule="evenodd" clip-rule="evenodd" d="M18.5344 189.691C18.5496 184.63 22.0629 182.13 27.6597 182.13C33.2717 182.13 36.7849 184.63 36.7849 189.706H28.0551C26.0475 189.706 24.2073 188.676 23.3252 187.07C22.945 186.388 21.8956 186.645 21.8956 187.433C21.8956 188.661 20.7549 189.691 19.2949 189.691H18.5344ZM34.1234 201.04C37.6214 203.01 39.8267 206.48 39.8267 210.329V213.238C39.8267 213.662 39.4921 213.996 39.0662 213.996H28.4353V205.919L30.5189 202.98C31.8877 202.586 33.0892 201.934 34.1234 201.04ZM21.196 201.025C22.1845 201.889 23.3556 202.54 24.6635 202.919L26.8992 205.935V213.981H16.2531C15.8273 213.981 15.4927 213.647 15.4927 213.223V210.314C15.4927 206.465 17.7132 202.995 21.196 201.025ZM31.4619 207.889H36.0245C36.4503 207.889 36.7849 207.556 36.7849 207.132C36.7849 206.707 36.4503 206.374 36.0245 206.374H31.4619C31.036 206.374 30.7014 206.707 30.7014 207.132C30.7014 207.556 31.036 207.889 31.4619 207.889Z" fill="#EEBF77"/>
<circle cx="111.302" cy="198.063" r="27.268" fill="#FFF2E0"/>
<path d="M102.237 191.237C102.586 191.221 102.86 191.206 102.936 191.206C104.548 191.206 105.948 190.373 106.617 189.13C107.894 190.449 109.735 191.221 111.696 191.221H120.365C119.94 197.328 116.898 201.828 111.286 201.828C105.704 201.828 102.662 197.343 102.237 191.237ZM102.176 189.706C102.176 184.63 105.704 182.13 111.301 182.13C116.913 182.13 120.426 184.63 120.426 189.706H111.696C109.689 189.706 107.849 188.676 106.967 187.07C106.586 186.388 105.537 186.645 105.537 187.433C105.537 188.661 104.396 189.706 102.936 189.706C102.921 189.706 102.586 189.706 102.176 189.706Z" fill="#EEBF77"/>
<path fill-rule="evenodd" clip-rule="evenodd" d="M102.175 189.691C102.19 184.63 105.703 182.13 111.3 182.13C116.912 182.13 120.425 184.63 120.425 189.706H111.695C109.688 189.706 107.847 188.676 106.965 187.07C106.585 186.388 105.536 186.645 105.536 187.433C105.536 188.661 104.395 189.691 102.935 189.691H102.175ZM117.764 201.04C121.262 203.01 123.467 206.48 123.467 210.329V213.238C123.467 213.662 123.132 213.996 122.706 213.996H112.075V205.919L114.159 202.98C115.528 202.586 116.729 201.934 117.764 201.04ZM104.836 201.025C105.825 201.889 106.996 202.54 108.304 202.919L110.539 205.935V213.981H99.8932C99.4674 213.981 99.1328 213.647 99.1328 213.223V210.314C99.1328 206.465 101.353 202.995 104.836 201.025ZM115.102 207.889H119.665C120.09 207.889 120.425 207.556 120.425 207.132C120.425 206.707 120.09 206.374 119.665 206.374H115.102C114.676 206.374 114.342 206.707 114.342 207.132C114.342 207.556 114.676 207.889 115.102 207.889Z" fill="#EEBF77"/>
<circle cx="194.942" cy="198.063" r="27.268" fill="#FFF2E0"/>
<path d="M185.877 191.237C186.227 191.221 186.5 191.206 186.576 191.206C188.188 191.206 189.588 190.373 190.257 189.13C191.534 190.449 193.375 191.221 195.337 191.221H204.006C203.58 197.328 200.538 201.828 194.926 201.828C189.344 201.828 186.303 197.343 185.877 191.237ZM185.816 189.706C185.816 184.63 189.344 182.13 194.941 182.13C200.553 182.13 204.066 184.63 204.066 189.706H195.337C193.329 189.706 191.489 188.676 190.607 187.07C190.226 186.388 189.177 186.645 189.177 187.433C189.177 188.661 188.036 189.706 186.576 189.706C186.561 189.706 186.227 189.706 185.816 189.706Z" fill="#EEBF77"/>
<path fill-rule="evenodd" clip-rule="evenodd" d="M185.815 189.691C185.83 184.63 189.343 182.13 194.94 182.13C200.552 182.13 204.065 184.63 204.065 189.706H195.335C193.328 189.706 191.488 188.676 190.605 187.07C190.225 186.388 189.176 186.645 189.176 187.433C189.176 188.661 188.035 189.691 186.575 189.691H185.815ZM201.404 201.04C204.902 203.01 207.107 206.48 207.107 210.329V213.238C207.107 213.662 206.772 213.996 206.347 213.996H195.716V205.919L197.799 202.98C199.168 202.586 200.369 201.934 201.404 201.04ZM188.476 201.025C189.465 201.889 190.636 202.54 191.944 202.919L194.18 205.935V213.981H183.533C183.108 213.981 182.773 213.647 182.773 213.223V210.314C182.773 206.465 184.993 202.995 188.476 201.025ZM198.742 207.889H203.305C203.731 207.889 204.065 207.556 204.065 207.132C204.065 206.707 203.731 206.374 203.305 206.374H198.742C198.316 206.374 197.982 206.707 197.982 207.132C197.982 207.556 198.316 207.889 198.742 207.889Z" fill="#EEBF77"/>
<path d="M51.0337 135.838H4.28904C2.64268 135.838 1.34912 134.54 1.34912 132.888V124.157C1.34912 122.505 2.64268 121.207 4.28904 121.207H51.0337C52.6801 121.207 53.9736 122.505 53.9736 124.157V132.888C53.9736 134.481 52.6801 135.838 51.0337 135.838Z" fill="#DCE3E9"/>
<path d="M17.1075 127.402H6.05341C5.40663 127.402 4.87744 126.871 4.87744 126.222V125.514C4.87744 124.865 5.40663 124.334 6.05341 124.334H17.1075C17.7543 124.334 18.2835 124.865 18.2835 125.514V126.222C18.2835 126.871 17.7543 127.402 17.1075 127.402Z" fill="#9DBEE1"/>
<path d="M42.6849 132.476H31.6896C31.0429 132.476 30.5137 131.945 30.5137 131.296V130.588C30.5137 129.939 31.0429 129.408 31.6896 129.408H42.7437C43.3905 129.408 43.9197 129.939 43.9197 130.588V131.296C43.8609 131.945 43.3317 132.476 42.6849 132.476Z" fill="#9DBEE1"/>
<path d="M42.3323 127.402H22.1057C21.4589 127.402 20.9297 126.871 20.9297 126.222V125.514C20.9297 124.865 21.4589 124.334 22.1057 124.334H42.3323C42.9791 124.334 43.5082 124.865 43.5082 125.514V126.222C43.5082 126.871 42.9791 127.402 42.3323 127.402Z" fill="#9DBEE1"/>
<path d="M27.3384 132.476H6.05341C5.40663 132.476 4.87744 131.945 4.87744 131.296V130.588C4.87744 129.939 5.40663 129.408 6.05341 129.408H27.3384C27.9852 129.408 28.5144 129.939 28.5144 130.588V131.296C28.5144 131.945 27.9852 132.476 27.3384 132.476Z" fill="#9DBEE1"/>
<path d="M49.0357 127.402H46.2722C45.6254 127.402 45.0962 126.871 45.0962 126.222V125.514C45.0962 124.865 45.6254 124.334 46.2722 124.334H49.0357C49.6825 124.334 50.2116 124.865 50.2116 125.514V126.222C50.2116 126.871 49.6825 127.402 49.0357 127.402Z" fill="#9DBEE1"/>
<path d="M219.667 135.838H172.922C171.275 135.838 169.982 134.54 169.982 132.888V124.157C169.982 122.505 171.275 121.207 172.922 121.207H219.667C221.313 121.207 222.606 122.505 222.606 124.157V132.888C222.606 134.54 221.254 135.838 219.667 135.838Z" fill="#DCE3E9"/>
<path d="M185.74 127.402H174.686C174.039 127.402 173.51 126.871 173.51 126.222V125.514C173.51 124.865 174.039 124.334 174.686 124.334H185.74C186.387 124.334 186.916 124.865 186.916 125.514V126.222C186.916 126.871 186.387 127.402 185.74 127.402Z" fill="#9DBEE1"/>
<path d="M211.317 132.476H200.263C199.617 132.476 199.087 131.945 199.087 131.296V130.588C199.087 129.939 199.617 129.408 200.263 129.408H211.317C211.964 129.408 212.493 129.939 212.493 130.588V131.296C212.493 132.004 211.964 132.476 211.317 132.476Z" fill="#9DBEE1"/>
<path d="M210.965 127.402H190.738C190.092 127.402 189.562 126.871 189.562 126.222V125.514C189.562 124.865 190.092 124.334 190.738 124.334H210.965C211.612 124.334 212.141 124.865 212.141 125.514V126.222C212.082 126.871 211.612 127.402 210.965 127.402Z" fill="#9DBEE1"/>
<path d="M195.971 132.476H174.686C174.039 132.476 173.51 131.945 173.51 131.296V130.588C173.51 129.939 174.039 129.408 174.686 129.408H195.971C196.618 129.408 197.147 129.939 197.147 130.588V131.296C197.147 132.004 196.618 132.476 195.971 132.476Z" fill="#9DBEE1"/>
<path d="M217.668 127.402H214.905C214.258 127.402 213.729 126.871 213.729 126.222V125.514C213.729 124.865 214.258 124.334 214.905 124.334H217.668C218.315 124.334 218.844 124.865 218.844 125.514V126.222C218.844 126.871 218.315 127.402 217.668 127.402Z" fill="#9DBEE1"/>
<path d="M23.6382 151.177L27.6594 155.198L31.6806 151.177" stroke="#DCE3E9" stroke-width="2.6807" stroke-linecap="round" stroke-linejoin="round"/>
<path d="M192.246 151.176L196.267 155.197L200.288 151.176" stroke="#DCE3E9" stroke-width="2.6807" stroke-linecap="round" stroke-linejoin="round"/>
<path d="M112.558 85.974C136.069 85.974 155.128 66.8504 155.128 43.2602C155.128 19.67 136.069 0.546387 112.558 0.546387C89.0475 0.546387 69.9883 19.67 69.9883 43.2602C69.9883 66.8504 89.0475 85.974 112.558 85.974Z" fill="#DCE3E9"/>
<path d="M123.172 50.7509L129.013 52.6146C132.555 53.738 134.934 56.9293 134.934 60.5036V63.3375C134.934 65.2522 133.454 66.8862 131.286 67.1415H93.6476H93.489C91.4802 66.8862 90 65.2778 90 63.3375V60.5036C90 56.9293 92.3788 53.738 95.9207 52.6146L101.762 50.7509C104.035 50.0105 105.647 48.0702 105.859 45.798C97.3061 38.0764 98.5826 19.9497 112.88 19.9497C127.177 19.9497 127.432 40.3741 119.101 45.7469C119.313 48.0447 120.899 50.0105 123.172 50.7509Z" fill="#487CB1"/>
</svg>
