<svg width="210" height="64" viewBox="0 0 210 64" fill="none" xmlns="http://www.w3.org/2000/svg">
<rect x="0.5" y="0.5" width="209" height="63" rx="4.5" stroke="#243B53" stroke-dasharray="10 5"/>
<g clip-path="url(#clip0_1992_1572)">
<path fill-rule="evenodd" clip-rule="evenodd" d="M33 24C34.6569 24 36 25.3431 36 27V37C36 38.6569 34.6569 40 33 40H23C21.3431 40 20 38.6569 20 37V27C20 25.3431 21.3431 24 23 24H33ZM30.707 29.293C30.3165 28.9024 29.6835 28.9024 29.293 29.293L28 30.5859L26.707 29.293C26.3165 28.9025 25.6835 28.9025 25.293 29.293C24.9025 29.6835 24.9025 30.3165 25.293 30.707L26.5859 32L25.293 33.293C24.9024 33.6835 24.9024 34.3165 25.293 34.707C25.6835 35.0976 26.3165 35.0976 26.707 34.707L28 33.4141L29.293 34.707C29.6835 35.0975 30.3165 35.0975 30.707 34.707C31.0976 34.3165 31.0976 33.6835 30.707 33.293L29.4141 32L30.707 30.707C31.0976 30.3165 31.0976 29.6835 30.707 29.293Z" fill="white"/>
</g>
<g clip-path="url(#clip1_1992_1572)">
<path d="M55.4697 29.4697C55.7626 29.1768 56.2374 29.1768 56.5303 29.4697C56.8232 29.7626 56.8232 30.2374 56.5303 30.5303L55.0605 32L56.5303 33.4697C56.8232 33.7626 56.8232 34.2374 56.5303 34.5303C56.2374 34.8231 55.7626 34.8232 55.4697 34.5303L54 33.0605L52.5303 34.5303C52.2374 34.8232 51.7626 34.8232 51.4697 34.5303C51.1768 34.2374 51.1768 33.7626 51.4697 33.4697L52.9395 32L51.4697 30.5303C51.1769 30.2374 51.1769 29.7626 51.4697 29.4697C51.7626 29.1768 52.2374 29.1769 52.5303 29.4697L54 30.9395L55.4697 29.4697Z" fill="white"/>
<path fill-rule="evenodd" clip-rule="evenodd" d="M58 24.25C60.0711 24.25 61.75 25.9289 61.75 28V36C61.75 38.0711 60.0711 39.75 58 39.75H50C47.9289 39.75 46.25 38.0711 46.25 36V28C46.25 25.9289 47.9289 24.25 50 24.25H58ZM50 25.75C48.7574 25.75 47.75 26.7574 47.75 28V36C47.75 37.2426 48.7574 38.25 50 38.25H58C59.2426 38.25 60.25 37.2426 60.25 36V28C60.25 26.7574 59.2426 25.75 58 25.75H50Z" fill="white"/>
</g>
<g clip-path="url(#clip2_1992_1572)">
<path fill-rule="evenodd" clip-rule="evenodd" d="M89 22C90.6569 22 92 23.3431 92 25V39C92 40.6569 90.6569 42 89 42H75C73.3431 42 72 40.6569 72 39V25C72 23.3431 73.3431 22 75 22H89ZM85.707 28.293C85.3165 27.9025 84.6835 27.9025 84.293 28.293L82 30.5859L79.707 28.293C79.3165 27.9025 78.6835 27.9025 78.293 28.293C77.9025 28.6835 77.9025 29.3165 78.293 29.707L80.5859 32L78.293 34.293C77.9024 34.6835 77.9024 35.3165 78.293 35.707C78.6835 36.0976 79.3165 36.0976 79.707 35.707L82 33.4141L84.293 35.707C84.6835 36.0976 85.3165 36.0976 85.707 35.707C86.0976 35.3165 86.0976 34.6835 85.707 34.293L83.4141 32L85.707 29.707C86.0975 29.3165 86.0975 28.6835 85.707 28.293Z" fill="white"/>
</g>
<g clip-path="url(#clip3_1992_1572)">
<path d="M114.293 28.293C114.683 27.9025 115.317 27.9025 115.707 28.293C116.097 28.6835 116.097 29.3165 115.707 29.707L113.414 32L115.707 34.293C116.098 34.6835 116.098 35.3165 115.707 35.707C115.317 36.0976 114.683 36.0976 114.293 35.707L112 33.4141L109.707 35.707C109.317 36.0976 108.683 36.0976 108.293 35.707C107.902 35.3165 107.902 34.6835 108.293 34.293L110.586 32L108.293 29.707C107.903 29.3165 107.903 28.6835 108.293 28.293C108.683 27.9025 109.317 27.9025 109.707 28.293L112 30.5859L114.293 28.293Z" fill="white"/>
<path fill-rule="evenodd" clip-rule="evenodd" d="M118 22C120.209 22 122 23.7909 122 26V38C122 40.2091 120.209 42 118 42H106C103.791 42 102 40.2091 102 38V26C102 23.7909 103.791 22 106 22H118ZM106 24C104.895 24 104 24.8954 104 26V38C104 39.1046 104.895 40 106 40H118C119.105 40 120 39.1046 120 38V26C120 24.8954 119.105 24 118 24H106Z" fill="white"/>
</g>
<g clip-path="url(#clip4_1992_1572)">
<path fill-rule="evenodd" clip-rule="evenodd" d="M153 20C154.657 20 156 21.3431 156 23V41C156 42.6569 154.657 44 153 44H135C133.343 44 132 42.6569 132 41V23C132 21.3431 133.343 20 135 20H153ZM148.707 27.293C148.317 26.9025 147.683 26.9025 147.293 27.293L144 30.5859L140.707 27.293C140.317 26.9025 139.683 26.9025 139.293 27.293C138.903 27.6835 138.903 28.3165 139.293 28.707L142.586 32L139.293 35.293C138.902 35.6835 138.902 36.3165 139.293 36.707C139.683 37.0976 140.317 37.0976 140.707 36.707L144 33.4141L147.293 36.707C147.683 37.0976 148.317 37.0976 148.707 36.707C149.098 36.3165 149.098 35.6835 148.707 35.293L145.414 32L148.707 28.707C149.097 28.3165 149.097 27.6835 148.707 27.293Z" fill="white"/>
</g>
<g clip-path="url(#clip5_1992_1572)">
<path d="M181.293 27.293C181.683 26.9025 182.317 26.9025 182.707 27.293C183.097 27.6835 183.097 28.3165 182.707 28.707L179.414 32L182.707 35.293C183.098 35.6835 183.098 36.3165 182.707 36.707C182.317 37.0976 181.683 37.0976 181.293 36.707L178 33.4141L174.707 36.707C174.317 37.0976 173.683 37.0976 173.293 36.707C172.902 36.3165 172.902 35.6835 173.293 35.293L176.586 32L173.293 28.707C172.903 28.3165 172.903 27.6835 173.293 27.293C173.683 26.9025 174.317 26.9025 174.707 27.293L178 30.5859L181.293 27.293Z" fill="white"/>
<path fill-rule="evenodd" clip-rule="evenodd" d="M186 20C188.209 20 190 21.7909 190 24V40C190 42.2091 188.209 44 186 44H170C167.791 44 166 42.2091 166 40V24C166 21.7909 167.791 20 170 20H186ZM170 22C168.895 22 168 22.8954 168 24V40C168 41.1046 168.895 42 170 42H186C187.105 42 188 41.1046 188 40V24C188 22.8954 187.105 22 186 22H170Z" fill="white"/>
</g>
<defs>
<clipPath id="clip0_1992_1572">
<rect width="16" height="16" fill="white" transform="translate(20 24)"/>
</clipPath>
<clipPath id="clip1_1992_1572">
<rect width="16" height="16" fill="white" transform="translate(46 24)"/>
</clipPath>
<clipPath id="clip2_1992_1572">
<rect width="20" height="20" fill="white" transform="translate(72 22)"/>
</clipPath>
<clipPath id="clip3_1992_1572">
<rect width="20" height="20" fill="white" transform="translate(102 22)"/>
</clipPath>
<clipPath id="clip4_1992_1572">
<rect width="24" height="24" fill="white" transform="translate(132 20)"/>
</clipPath>
<clipPath id="clip5_1992_1572">
<rect width="24" height="24" fill="white" transform="translate(166 20)"/>
</clipPath>
</defs>
</svg>
