<svg width="89" height="22" viewBox="0 0 89 22" fill="none" xmlns="http://www.w3.org/2000/svg">
<path d="M0.526367 15.857V0.15625H2.29271L8.22411 12.6624L14.1228 0.15625H15.911V15.8461H14.0683V4.41945L8.73657 15.857H7.70075L2.36903 4.41945V15.857H0.526367Z" fill="#6698CC"/>
<path d="M22.3156 16.1841C21.4361 16.1841 20.6983 16.0242 20.1023 15.7044C19.5135 15.3773 19.0664 14.9484 18.7611 14.4178C18.4631 13.8872 18.3141 13.3057 18.3141 12.6733C18.3141 12.0554 18.4304 11.5211 18.663 11.0705C18.9029 10.6125 19.2373 10.2346 19.6661 9.93653C20.095 9.63124 20.6074 9.39136 21.2035 9.21691C21.7632 9.06426 22.3883 8.93342 23.0789 8.82439C23.7767 8.70809 24.4818 8.60269 25.1941 8.50819C25.9065 8.4137 26.5716 8.32284 27.1894 8.23561L26.4916 8.63903C26.5134 7.59231 26.3026 6.81818 25.8592 6.31663C25.4231 5.81507 24.6671 5.5643 23.5913 5.5643C22.879 5.5643 22.2538 5.72785 21.7159 6.05495C21.1853 6.37478 20.811 6.89814 20.5929 7.62502L18.7502 7.06896C19.0337 6.03677 19.5825 5.22629 20.3966 4.63751C21.2108 4.04874 22.2829 3.75435 23.6131 3.75435C24.6817 3.75435 25.5975 3.94697 26.3608 4.33222C27.1313 4.7102 27.6837 5.28445 28.0181 6.05495C28.1853 6.41839 28.2907 6.81454 28.3343 7.24341C28.3779 7.665 28.3997 8.1084 28.3997 8.57361V15.857H26.677V13.0331L27.0804 13.2948C26.637 14.247 26.0155 14.9666 25.2159 15.4536C24.4236 15.9406 23.4568 16.1841 22.3156 16.1841ZM22.61 14.5595C23.3078 14.5595 23.9111 14.436 24.42 14.1888C24.9361 13.9344 25.3504 13.6037 25.663 13.1966C25.9755 12.7823 26.179 12.3316 26.2735 11.8446C26.3826 11.4812 26.4407 11.0777 26.448 10.6343C26.4625 10.1837 26.4698 9.8384 26.4698 9.59853L27.1458 9.89291C26.5134 9.98014 25.8919 10.0637 25.2813 10.1437C24.6707 10.2236 24.0929 10.3109 23.5477 10.4054C23.0025 10.4926 22.5119 10.598 22.0758 10.7216C21.7559 10.8233 21.4543 10.9542 21.1708 11.1141C20.8946 11.274 20.6692 11.4812 20.4948 11.7356C20.3276 11.9827 20.244 12.2916 20.244 12.6624C20.244 12.9822 20.324 13.2875 20.4839 13.5782C20.6511 13.869 20.9055 14.1052 21.2471 14.287C21.596 14.4687 22.0503 14.5595 22.61 14.5595Z" fill="#6698CC"/>
<path d="M39.6192 15.857V9.95834C39.6192 9.39863 39.5683 8.86073 39.4666 8.34464C39.3721 7.82855 39.2012 7.36698 38.9541 6.95992C38.7142 6.5456 38.3871 6.2185 37.9728 5.97862C37.5657 5.73875 37.0496 5.61881 36.4245 5.61881C35.9375 5.61881 35.4941 5.70241 35.0943 5.86959C34.7018 6.02951 34.3638 6.27665 34.0803 6.61102C33.7968 6.94538 33.5751 7.36698 33.4152 7.8758C33.2626 8.37735 33.1862 8.96977 33.1862 9.65304L31.9106 9.26052C31.9106 8.11931 32.1141 7.14164 32.5211 6.32753C32.9355 5.50615 33.5133 4.87739 34.2548 4.44126C35.0035 3.99785 35.883 3.77615 36.8934 3.77615C37.6566 3.77615 38.3072 3.89609 38.8451 4.13596C39.383 4.37584 39.83 4.69567 40.1862 5.09545C40.5423 5.48797 40.8222 5.93138 41.0257 6.42566C41.2293 6.91267 41.371 7.41059 41.451 7.91941C41.5382 8.42097 41.5818 8.89708 41.5818 9.34775V15.857H39.6192ZM31.2236 15.857V4.08145H32.9682V7.23251H33.1862V15.857H31.2236Z" fill="#6698CC"/>
<path d="M44.4165 15.857V4.08145H46.1501V6.92721L45.8666 6.5565C46.0047 6.19305 46.1828 5.85869 46.4009 5.55339C46.6262 5.2481 46.877 4.99732 47.1532 4.80106C47.4585 4.55392 47.8038 4.36493 48.189 4.23409C48.5743 4.10325 48.9668 4.02693 49.3666 4.00512C49.7664 3.97605 50.1407 4.00149 50.4896 4.08145V5.9023C50.0826 5.79327 49.6355 5.76419 49.1485 5.81507C48.6615 5.86596 48.2108 6.04404 47.7965 6.34934C47.4185 6.61828 47.1241 6.94538 46.9133 7.33064C46.7098 7.71589 46.5681 8.13385 46.4881 8.58452C46.4082 9.02792 46.3682 9.48222 46.3682 9.94743V15.857H44.4165Z" fill="#6698CC"/>
<path d="M57.354 16.1841C56.1837 16.1841 55.1733 15.9188 54.3228 15.3882C53.4796 14.8576 52.8291 14.1234 52.3711 13.1857C51.9132 12.248 51.6842 11.1722 51.6842 9.95834C51.6842 8.72263 51.9168 7.63956 52.382 6.70915C52.8473 5.77873 53.5051 5.05548 54.3555 4.53938C55.206 4.01603 56.2055 3.75435 57.354 3.75435C58.5315 3.75435 59.5455 4.01966 60.396 4.55029C61.2464 5.07365 61.897 5.80417 62.3477 6.74186C62.8056 7.67227 63.0346 8.74443 63.0346 9.95834C63.0346 11.1868 62.8056 12.2698 62.3477 13.2075C61.8897 14.1379 61.2355 14.8685 60.3851 15.3991C59.5346 15.9225 58.5242 16.1841 57.354 16.1841ZM57.354 14.3415C58.5751 14.3415 59.4837 13.9344 60.0798 13.1203C60.6758 12.3062 60.9739 11.2522 60.9739 9.95834C60.9739 8.62813 60.6722 7.57051 60.0689 6.78547C59.4656 5.99316 58.5606 5.59701 57.354 5.59701C56.5326 5.59701 55.8566 5.78236 55.3259 6.15308C54.7953 6.52379 54.3992 7.03625 54.1375 7.69044C53.8758 8.34464 53.745 9.10061 53.745 9.95834C53.745 11.2813 54.0503 12.3425 54.6608 13.1421C55.2714 13.9417 56.1691 14.3415 57.354 14.3415Z" fill="#6698CC"/>
<path d="M70.8432 16.1841C69.7384 16.1841 68.808 15.9115 68.052 15.3664C67.296 14.8139 66.7218 14.0689 66.3293 13.1312C65.944 12.1862 65.7514 11.1286 65.7514 9.95834C65.7514 8.77351 65.944 7.71225 66.3293 6.77457C66.7218 5.83688 67.296 5.09909 68.052 4.56119C68.8152 4.02329 69.7493 3.75435 70.8541 3.75435C71.9445 3.75435 72.8822 4.02693 73.6672 4.57209C74.4595 5.10999 75.0665 5.84778 75.4881 6.78547C75.9096 7.72315 76.1204 8.78078 76.1204 9.95834C76.1204 11.1359 75.9096 12.1935 75.4881 13.1312C75.0665 14.0689 74.4595 14.8139 73.6672 15.3664C72.8822 15.9115 71.9408 16.1841 70.8432 16.1841ZM65.4243 21.0906V4.08145H67.1579V12.7496H67.376V21.0906H65.4243ZM70.6034 14.4069C71.3811 14.4069 72.0244 14.2106 72.5333 13.8181C73.0421 13.4256 73.4237 12.895 73.6781 12.2262C73.9325 11.5502 74.0597 10.7943 74.0597 9.95834C74.0597 9.12968 73.9325 8.38099 73.6781 7.71225C73.431 7.04351 73.0457 6.51289 72.5224 6.12037C72.0063 5.72785 71.3484 5.53159 70.5489 5.53159C69.7856 5.53159 69.1532 5.72058 68.6517 6.09856C68.1501 6.46927 67.7758 6.989 67.5286 7.65773C67.2815 8.3192 67.1579 9.08607 67.1579 9.95834C67.1579 10.8161 67.2779 11.5829 67.5177 12.2589C67.7649 12.9277 68.1429 13.4547 68.6517 13.8399C69.1605 14.2179 69.8111 14.4069 70.6034 14.4069Z" fill="#6698CC"/>
<path d="M83.6134 16.1841C82.4577 16.1841 81.4473 15.9297 80.5823 15.4209C79.7246 14.9048 79.0558 14.1888 78.5761 13.2729C78.0963 12.3498 77.8565 11.274 77.8565 10.0456C77.8565 8.75897 78.0927 7.64683 78.5652 6.70915C79.0377 5.76419 79.6955 5.0373 80.5387 4.52848C81.3891 4.01239 82.385 3.75435 83.5262 3.75435C84.711 3.75435 85.7178 4.02693 86.5464 4.57209C87.3823 5.11726 88.0075 5.89503 88.4218 6.90541C88.8434 7.91578 89.0251 9.11878 88.9669 10.5144H87.0043V9.81659C86.9825 8.37009 86.6882 7.29066 86.1212 6.57831C85.5542 5.85869 84.711 5.49888 83.5916 5.49888C82.3922 5.49888 81.48 5.88413 80.8549 6.65463C80.2298 7.42513 79.9172 8.53 79.9172 9.96924C79.9172 11.3576 80.2298 12.4334 80.8549 13.1966C81.48 13.9599 82.3704 14.3415 83.5262 14.3415C84.304 14.3415 84.98 14.1634 85.5542 13.8072C86.1284 13.451 86.5791 12.9386 86.9062 12.2698L88.7707 12.9131C88.3128 13.9526 87.6222 14.7594 86.6991 15.3337C85.7832 15.9006 84.7546 16.1841 83.6134 16.1841ZM79.263 10.5144V8.95523H87.9638V10.5144H79.263Z" fill="#6698CC"/>
</svg>
