<svg width="61" height="22" viewBox="0 0 61 22" fill="none" xmlns="http://www.w3.org/2000/svg">
<path d="M2.97298 21.1778C2.39615 20.9731 1.92166 20.7405 1.54951 20.48C1.19597 20.2195 0.898252 19.7915 0.656356 19.1961C0.358637 18.3587 0.209778 17.3726 0.209778 16.2375C0.209778 15.1397 0.274904 14.2093 0.405156 13.4464C0.535408 12.6649 0.758697 11.8741 1.07502 11.0739L1.32622 10.4878C1.62394 9.72491 1.83793 9.22251 1.96818 8.98061C2.2845 8.25492 2.84273 7.31525 3.64284 6.16159C4.34993 5.08236 4.90815 4.30085 5.31751 3.81706C5.72687 3.31466 6.11763 2.9146 6.48978 2.61688C6.88053 2.31916 7.58762 1.81676 8.61102 1.10968C9.03899 0.793352 9.53209 0.63519 10.0903 0.63519C10.5555 0.63519 10.9835 0.756138 11.3742 0.998033C11.7836 1.22132 12.0906 1.54695 12.2953 1.97492C12.5 2.32846 12.6023 2.80295 12.6023 3.39839C12.6023 4.23572 12.4162 5.11027 12.0441 6.02203C11.6719 6.9338 11.1975 7.65018 10.6206 8.17119C10.4345 8.33866 10.2578 8.42239 10.0903 8.42239C9.88563 8.42239 9.61582 8.27353 9.28089 7.97581C9.11342 7.65949 9.02039 7.47341 9.00178 7.41759C8.98317 7.36177 9.02039 7.32455 9.11342 7.30595C9.28089 7.10126 9.52279 6.71051 9.83911 6.13368C10.174 5.53824 10.3973 5.07306 10.509 4.73812C10.5462 4.62648 10.5834 4.4404 10.6206 4.1799C10.7695 3.52864 10.8439 3.09137 10.8439 2.86808C10.8439 2.64479 10.7788 2.46802 10.6485 2.33777C10.5927 2.28194 10.5183 2.25403 10.4252 2.25403C10.2764 2.25403 10.0159 2.34707 9.64373 2.53314C9.19716 2.71922 8.62963 3.13789 7.94116 3.78914C7.25268 4.4404 6.62933 5.14749 6.07111 5.91039C5.21517 7.02683 4.55461 7.9479 4.08942 8.67359C3.64284 9.39928 3.29861 10.1343 3.05671 10.8786L2.74969 11.6043C2.7683 11.6787 2.74039 11.8648 2.66596 12.1625C2.59153 12.4602 2.50779 12.7021 2.41476 12.8882C2.15425 13.9674 2.024 15.0373 2.024 16.0979C2.024 16.8981 2.08913 17.6051 2.21938 18.2192C2.36824 18.8332 2.57292 19.2519 2.83342 19.4752C2.98228 19.6054 3.20557 19.6706 3.50329 19.6706C3.87544 19.6706 4.33132 19.5775 4.87093 19.3915C5.42916 19.2054 6.10833 18.9356 6.90845 18.582C7.33642 18.4146 7.73648 18.2192 8.10862 17.9959C8.49938 17.7726 8.78779 17.5679 8.97387 17.3819C9.45766 17.0283 9.84842 16.8515 10.1461 16.8515C10.3508 16.7771 10.4904 16.7399 10.5648 16.7399C10.602 16.7399 10.6206 16.7678 10.6206 16.8236C10.6392 16.8608 10.6485 16.9167 10.6485 16.9911C10.6485 17.2516 10.509 17.54 10.2299 17.8563C9.95076 18.1541 9.57861 18.4425 9.11342 18.7216C8.74128 19.0937 8.2947 19.3822 7.77369 19.5868C7.17825 20.0148 6.48047 20.3963 5.68036 20.7312C4.89885 21.0661 4.18246 21.2336 3.5312 21.2336C3.38234 21.2336 3.19627 21.215 2.97298 21.1778ZM12.5934 18.6099C12.5375 18.4983 12.4445 18.3867 12.3143 18.275C12.2026 18.1448 12.1468 18.061 12.1468 18.0238C12.1468 17.8191 12.1003 17.661 12.0072 17.5493C11.97 17.5121 11.9514 17.4284 11.9514 17.2981C11.9514 17.0004 12.091 16.498 12.3701 15.7909C12.6678 15.0652 13.0493 14.2837 13.5144 13.4464C13.6261 13.3347 13.7656 13.1394 13.9331 12.8603C14.1192 12.5811 14.2401 12.423 14.296 12.3858C14.296 12.3113 14.3239 12.2462 14.3797 12.1904C14.4355 12.116 14.5006 12.0787 14.5751 12.0787V11.9113C14.5751 11.7438 14.8821 11.3438 15.4961 10.7111C16.1102 10.0598 16.6126 9.61326 17.0033 9.37137C17.4685 9.05504 17.943 8.89688 18.4268 8.89688C18.7617 8.89688 19.0501 8.98992 19.292 9.17599C19.3851 9.28763 19.813 9.68769 20.576 10.3762L21.6087 11.2972L21.1063 12.6928C20.9388 13.1952 20.8551 13.6511 20.8551 14.0604C20.8551 14.7675 21.0597 15.4467 21.4691 16.0979C21.5621 16.3026 21.7482 16.498 22.0273 16.6841C22.3064 16.8702 22.5856 16.9818 22.8647 17.019C23.274 17.0934 23.4787 17.2981 23.4787 17.6331C23.4787 18.0052 23.3112 18.2285 22.9763 18.3029C22.9019 18.3215 22.7902 18.3308 22.6414 18.3308C21.5435 18.3308 20.5946 17.5586 19.7944 16.0142C19.72 15.9026 19.6177 15.6979 19.4874 15.4002C19.3758 15.1024 19.3106 14.8978 19.292 14.7861C19.1804 14.935 19.0408 15.1118 18.8734 15.3164C18.7059 15.5211 18.5477 15.6979 18.3989 15.8467C16.3707 17.875 14.7704 18.8891 13.5982 18.8891C13.226 18.8891 12.8911 18.796 12.5934 18.6099ZM13.5982 17.0469C13.5982 17.14 13.6912 17.1679 13.8773 17.1307C14.082 17.0934 14.3239 17.0004 14.603 16.8515C14.9007 16.7027 15.1984 16.5073 15.4961 16.2654C17.0964 14.8885 18.25 13.6883 18.9571 12.6649L19.5712 11.6601C19.3851 11.2693 19.1897 10.9902 18.985 10.8227C18.7803 10.6367 18.5943 10.5436 18.4268 10.5436C18.036 10.5436 17.422 11.0367 16.5847 12.0229C15.7473 12.9905 14.9844 14.1349 14.296 15.456C14.1285 15.7723 13.9796 16.0979 13.8494 16.4329C13.7191 16.7492 13.6354 16.9539 13.5982 17.0469ZM25.7951 17.9122C25.5904 17.7633 25.3299 17.14 25.0136 16.0421C24.7159 14.9443 24.4833 13.8837 24.3158 12.8603C24.2414 12.4695 24.0925 11.9392 23.8692 11.2693C23.7948 10.9716 23.7576 10.7669 23.7576 10.6553C23.7576 10.3203 23.8972 10.0691 24.1763 9.90168C24.2507 9.84586 24.353 9.80864 24.4833 9.79003C24.6321 9.75282 24.7531 9.74352 24.8461 9.76212C25.2555 9.91098 25.6276 11.046 25.9626 13.1673C26.0184 13.7069 26.1021 14.1907 26.2138 14.6187C26.3254 15.0466 26.3905 15.2978 26.4092 15.3723C26.465 15.4839 26.5301 15.6048 26.6045 15.7351C26.679 15.8467 26.7627 15.9026 26.8557 15.9026C26.9116 15.9026 26.9767 15.8654 27.0511 15.7909C27.4047 15.4374 27.7861 14.9908 28.1955 14.4512C28.642 13.8371 28.9491 13.4278 29.1165 13.2231C29.3212 12.9068 29.591 12.5346 29.926 12.1067C29.9818 12.0322 30.112 11.8555 30.3167 11.5763C30.5214 11.2972 30.7168 11.0646 30.9028 10.8786C31.0889 10.6739 31.2471 10.5529 31.3773 10.5157C31.4332 10.4971 31.5169 10.4878 31.6285 10.4878C31.9449 10.4878 32.103 10.6181 32.103 10.8786C32.103 11.1205 31.9356 11.4833 31.6006 11.9671C31.489 12.116 31.368 12.3206 31.2378 12.5811C31.1261 12.823 31.0517 12.9626 31.0145 12.9998C30.8098 13.4092 30.4284 13.986 29.8701 14.7303C29.3305 15.4746 28.9677 15.9398 28.7816 16.1259C28.7444 16.1631 28.5862 16.2933 28.3071 16.5166C28.0466 16.7399 27.8047 17.0097 27.5814 17.326C26.986 17.8843 26.558 18.1634 26.2975 18.1634C26.13 18.1634 25.9626 18.0796 25.7951 17.9122ZM34.8398 19.6985C34.0397 19.6985 33.3792 19.4008 32.8581 18.8053C32.3371 18.2099 32.0766 17.4656 32.0766 16.5724C32.0766 15.6793 32.272 14.7024 32.6628 13.6418C33.0721 12.5625 33.5931 11.595 34.2258 10.739C34.8584 9.88307 35.5004 9.30624 36.1517 9.00852C36.5238 8.80384 36.9425 8.7015 37.4077 8.7015C37.7612 8.7015 38.1613 8.80384 38.6078 9.00852C38.9242 9.13877 39.1661 9.29694 39.3335 9.48301C39.501 9.66909 39.6499 9.9575 39.7801 10.3483C39.8359 10.6832 39.8638 10.9158 39.8638 11.046C39.8638 11.1577 39.8173 11.3996 39.7243 11.7717C39.501 12.4602 39.2033 13.0463 38.8311 13.5301C38.4776 13.9953 38.0124 14.3954 37.4356 14.7303C37.1379 14.9164 36.7657 15.0094 36.3191 15.0094C35.9284 15.0094 35.5562 14.9443 35.2027 14.814C34.8677 14.6652 34.6072 14.4512 34.4212 14.1721L34.2258 13.9488L34.1421 14.1721C33.7513 15.1769 33.5559 16.0328 33.5559 16.7399C33.5559 17.2237 33.649 17.6144 33.835 17.9122C33.9653 18.1168 34.2816 18.2192 34.784 18.2192C35.1562 18.2192 35.426 18.182 35.5934 18.1075C35.8725 18.0145 36.1144 17.9029 36.3191 17.7726C36.5424 17.6238 36.7564 17.4749 36.9611 17.326L37.0727 17.2702H37.0448C37.2681 17.1586 37.4542 17.0562 37.603 16.9632C37.7519 16.8702 37.8542 16.805 37.9101 16.7678C37.9473 16.7678 37.9845 16.7585 38.0217 16.7399C38.0589 16.7213 38.0961 16.6841 38.1333 16.6283C38.3008 16.5538 38.4962 16.5817 38.7195 16.712C38.9428 16.8422 39.0544 17.0097 39.0544 17.2144C39.0172 17.3632 38.8497 17.6051 38.552 17.9401C38.2543 18.275 38.031 18.4518 37.8821 18.4704C37.8635 18.4704 37.7984 18.4983 37.6868 18.5541C37.5751 18.6099 37.5007 18.6565 37.4635 18.6937H37.4914C37.3239 18.917 37.1565 19.0286 36.989 19.0286H36.7657C36.6913 19.1775 36.4401 19.3263 36.0121 19.4752C35.6027 19.624 35.212 19.6985 34.8398 19.6985ZM36.0958 13.558C36.6541 13.558 37.1658 13.2417 37.6309 12.6091C38.0775 12.0136 38.3008 11.4182 38.3008 10.8227C38.3008 10.5064 38.2357 10.2831 38.1054 10.1529C37.9938 10.0971 37.8915 10.0691 37.7984 10.0691C37.7054 10.0691 37.5472 10.0971 37.3239 10.1529C37.082 10.2087 36.7099 10.4692 36.2075 10.9344C35.7051 11.381 35.3329 11.781 35.091 12.1346L34.7282 12.7207C34.8771 12.6649 35.0166 12.637 35.1469 12.637C35.2957 12.6184 35.3795 12.6277 35.3981 12.6649C35.3981 12.9254 35.4632 13.1394 35.5934 13.3068C35.7237 13.4743 35.8912 13.558 36.0958 13.558ZM42.4092 18.6937C42.0743 18.7681 41.7114 18.6658 41.3207 18.3867C40.9299 18.1075 40.6973 17.8005 40.6229 17.4656C40.6043 17.3912 40.595 17.2702 40.595 17.1027C40.595 16.4143 40.8555 15.5304 41.3765 14.4512C41.9161 13.3534 42.5674 12.3486 43.3303 11.4368C44.0932 10.5064 44.7909 9.92029 45.4236 9.67839C45.8144 9.47371 46.0656 9.37137 46.1772 9.37137C46.2888 9.37137 46.54 9.47371 46.9308 9.67839C47.1913 9.75282 47.3867 9.83655 47.5169 9.92959C47.6472 10.0226 47.8147 10.2087 48.0193 10.4878C48.2612 10.9716 48.438 11.567 48.5496 12.2741C48.6613 12.6649 48.7171 12.944 48.7171 13.1115C48.7171 13.2603 48.6613 13.3906 48.5496 13.5022C48.531 13.5208 48.4938 13.558 48.438 13.6139C48.4008 13.6697 48.3822 13.7162 48.3822 13.7534C48.3822 13.772 48.4008 13.7813 48.438 13.7813C48.438 13.7999 48.4287 13.8464 48.4101 13.9209C48.3915 13.9767 48.3543 14.0604 48.2984 14.1721C48.0752 14.8792 47.9635 15.4839 47.9635 15.9863C47.9635 16.1538 47.9821 16.3305 48.0193 16.5166C48.2054 17.0004 48.5217 17.2423 48.9683 17.2423C49.3405 17.2423 49.694 17.0748 50.0289 16.7399C50.3267 16.5352 50.5406 16.3957 50.6709 16.3212C50.8197 16.2282 50.8942 16.2468 50.8942 16.3771C50.9128 16.3957 50.95 16.4236 51.0058 16.4608C51.0616 16.498 51.1175 16.5166 51.1733 16.5166C51.3035 16.5166 51.3687 16.6003 51.3687 16.7678C51.3687 16.9353 51.3035 17.1214 51.1733 17.326C51.043 17.4563 50.9407 17.5679 50.8663 17.661C50.7918 17.754 50.7546 17.8284 50.7546 17.8843L50.336 18.275C49.9824 18.4797 49.5637 18.582 49.08 18.582C48.5776 18.582 48.1775 18.4797 47.8798 18.275C47.6193 18.0889 47.3681 17.8191 47.1262 17.4656C46.8843 17.112 46.7261 16.7957 46.6517 16.5166L46.5121 16.2375L45.7027 16.7678C45.5166 16.9539 45.3027 17.1493 45.0608 17.3539C44.8189 17.54 44.6607 17.6703 44.5863 17.7447C44.4374 17.9308 44.3072 18.0238 44.1955 18.0238H43.9164C43.9164 18.1541 43.7303 18.3029 43.3582 18.4704C43.0046 18.6192 42.6883 18.6937 42.4092 18.6937ZM42.1301 17.1865C42.3348 17.1865 42.8558 16.8981 43.6931 16.3212C44.5304 15.7258 45.0608 15.2885 45.284 15.0094L46.0935 14.1721C46.3912 13.8371 46.6238 13.4557 46.7912 13.0277C46.9773 12.5998 47.0704 12.209 47.0704 11.8555C47.0704 11.5391 47.0238 11.3158 46.9308 11.1856C46.8564 10.9623 46.7447 10.8507 46.5959 10.8507C46.5214 10.8507 46.3075 10.9158 45.9539 11.046C45.6004 11.2693 45.098 11.781 44.4467 12.5811C43.8141 13.3813 43.2465 14.2093 42.7441 15.0652C42.2417 15.9026 41.9905 16.5166 41.9905 16.9074C41.9905 16.9632 42.0091 17.019 42.0464 17.0748C42.0836 17.1307 42.1115 17.1679 42.1301 17.1865ZM55.0573 19.5589C54.7968 19.4845 54.5828 19.4008 54.4153 19.3077C54.2479 19.2147 54.0246 19.0379 53.7455 18.7774C53.4105 18.3308 53.1873 17.9215 53.0756 17.5493C52.9826 17.1586 52.936 16.5445 52.936 15.7072C52.936 15.2606 53.1873 14.0325 53.6897 12.0229C53.6524 12.1532 53.7176 11.8834 53.885 11.2135C53.9409 11.0088 53.8664 10.8786 53.6617 10.8227C53.4571 10.7669 53.1686 10.739 52.7965 10.739C52.4802 10.739 52.2941 10.7204 52.2383 10.6832C52.1824 10.6646 52.1452 10.6367 52.1266 10.5995C52.1266 10.5622 52.1266 10.5343 52.1266 10.5157C52.1266 10.4227 52.0894 10.311 52.015 10.1808C51.9964 10.1622 51.9871 10.1343 51.9871 10.0971C51.9871 10.004 52.0336 9.90168 52.1266 9.79003C52.2383 9.67839 52.3685 9.61326 52.5174 9.59466C52.6104 9.57605 52.8244 9.54814 53.1593 9.51092C53.4943 9.47371 53.8106 9.39928 54.1083 9.28763C54.406 9.17599 54.6386 9.01783 54.8061 8.81315C55.048 8.1991 55.355 7.51063 55.7272 6.74772C56.0993 5.96621 56.3505 5.50103 56.4808 5.35217C56.7785 5.20331 56.9832 5.12888 57.0948 5.12888C57.2065 5.12888 57.2995 5.16609 57.3739 5.24052C57.4483 5.31495 57.5507 5.4452 57.6809 5.63128C57.6995 5.66849 57.7461 5.73362 57.8205 5.82666C57.8949 5.91969 57.9321 6.01273 57.9321 6.10577C57.9321 6.25463 57.8577 6.47792 57.7089 6.77563C57.5786 7.07335 57.3088 7.59436 56.8994 8.33866L56.5366 9.03643C56.5924 9.05504 56.7227 9.06435 56.9273 9.06435C57.132 9.06435 57.2995 9.05504 57.4297 9.03643C57.8391 8.962 58.2206 8.92479 58.5741 8.92479C58.7602 8.92479 58.8904 8.93409 58.9649 8.9527C59.3928 8.9527 59.6998 9.03643 59.8859 9.2039C60.0906 9.35276 60.2115 9.61326 60.2488 9.98541C60.286 10.1901 60.2488 10.311 60.1371 10.3483C60.0255 10.3855 59.7091 10.4041 59.1881 10.4041C57.0297 10.4971 55.9411 10.5808 55.9225 10.6553C55.8481 10.7111 55.7086 11.0367 55.5039 11.6322C55.2992 12.2276 55.1224 12.7951 54.9736 13.3347C54.7317 14.4512 54.6107 15.4374 54.6107 16.2933C54.6107 17.0748 54.7224 17.5958 54.9457 17.8563C55.0387 17.9494 55.2155 17.9959 55.476 17.9959C55.7365 17.9959 56.0156 17.9494 56.3133 17.8563C56.6296 17.7447 56.8901 17.6051 57.0948 17.4377C57.4297 17.1586 57.7089 17.019 57.9321 17.019C58.0438 17.019 58.1275 17.0562 58.1833 17.1307C58.2578 17.1865 58.295 17.2609 58.295 17.3539C58.295 17.5586 58.1833 17.8191 57.9601 18.1355C57.6809 18.5634 57.3088 18.917 56.8436 19.1961C56.3784 19.4752 55.9318 19.6147 55.5039 19.6147C55.2992 19.6147 55.1503 19.5961 55.0573 19.5589Z" fill="#6698CC"/>
</svg>
