<svg width="211" height="22" viewBox="0 0 211 22" fill="none" xmlns="http://www.w3.org/2000/svg">
<path d="M0.411615 16.7119H1.98604L3.22089 13.1206H9.80673L11.0519 16.7119H12.6263L7.52227 1.89377H5.51564L0.411615 16.7119ZM3.71483 11.7005L6.50352 3.60197L9.31279 11.7005H3.71483ZM17.6642 17.0206C19.6057 17.0206 21.0155 16.3037 21.8936 14.8699V16.7119H23.2416V9.80707C23.2416 9.39546 23.221 8.9907 23.1799 8.59281C23.1387 8.19491 23.0495 7.83475 22.9123 7.51232C22.6173 6.79199 22.1131 6.24317 21.3996 5.86586C20.693 5.48168 19.8321 5.28959 18.8168 5.28959C17.5956 5.28959 16.6009 5.564 15.8326 6.11282C15.0642 6.66164 14.5497 7.43342 14.289 8.42816L15.7605 8.86036C15.9732 8.11945 16.3402 7.57749 16.8616 7.23448C17.3898 6.89146 18.0347 6.71996 18.7962 6.71996C19.8527 6.71996 20.6073 6.96693 21.0601 7.46086C21.5128 7.94794 21.7461 8.69228 21.7598 9.69388C21.2659 9.76248 20.7205 9.83451 20.1236 9.90997C19.5337 9.98544 18.9402 10.0712 18.3434 10.1672C17.7466 10.2633 17.1977 10.373 16.6969 10.4965C15.8669 10.7161 15.1877 11.0831 14.6594 11.5976C14.1312 12.1053 13.8671 12.8153 13.8671 13.7277C13.8671 14.3177 14.0077 14.8631 14.289 15.3639C14.5703 15.8647 14.9922 16.266 15.5547 16.5678C16.1241 16.8697 16.8273 17.0206 17.6642 17.0206ZM17.8392 15.7137C17.2423 15.7137 16.7621 15.6177 16.3985 15.4256C16.0418 15.2267 15.7811 14.9763 15.6165 14.6744C15.4587 14.3657 15.3798 14.0501 15.3798 13.7277C15.3798 13.124 15.5822 12.6712 15.9869 12.3694C16.3917 12.0675 16.8307 11.848 17.3041 11.7108C17.9146 11.5461 18.6247 11.4124 19.4342 11.3095C20.2437 11.2066 21.012 11.1105 21.7392 11.0213C21.7392 11.2752 21.7289 11.5667 21.7084 11.896C21.6946 12.2184 21.6569 12.5169 21.5952 12.7913C21.4511 13.6282 21.0532 14.3245 20.4015 14.8802C19.7566 15.4359 18.9025 15.7137 17.8392 15.7137ZM30.0407 16.7119H36.2355C37.5458 16.7119 38.6023 16.3415 39.4049 15.6006C40.2076 14.8528 40.6089 13.8375 40.6089 12.5546C40.6089 11.6971 40.3894 10.9493 39.9503 10.3113C39.5181 9.6733 38.9178 9.18622 38.1495 8.85006C38.6846 8.54135 39.1065 8.11259 39.4152 7.56377C39.7308 7.00809 39.8886 6.39067 39.8886 5.7115C39.8886 5.01175 39.7171 4.37375 39.374 3.79749C39.031 3.21437 38.5508 2.7513 37.9334 2.40829C37.316 2.06528 36.5922 1.89377 35.7621 1.89377H30.0407V16.7119ZM31.5636 8.21206V3.32413H35.7518C36.4996 3.32413 37.1136 3.54366 37.5938 3.98272C38.0809 4.42177 38.3244 4.99117 38.3244 5.69092C38.3244 6.43183 38.074 7.03896 37.5732 7.51232C37.0724 7.97881 36.4653 8.21206 35.7518 8.21206H31.5636ZM31.5636 15.261V9.64242H36.1429C36.6985 9.64242 37.1959 9.77277 37.635 10.0335C38.074 10.2941 38.417 10.6475 38.664 11.0934C38.9178 11.5324 39.0447 12.0264 39.0447 12.5752C39.0447 13.419 38.7395 14.0776 38.1289 14.5509C37.5183 15.0243 36.7637 15.261 35.865 15.261H31.5636ZM42.6522 16.7119H44.0105V15.1581C44.4084 15.7343 44.9126 16.1905 45.5232 16.5267C46.1337 16.856 46.8438 17.0206 47.6533 17.0206C48.696 17.0206 49.5845 16.7634 50.3185 16.2488C51.0525 15.7275 51.6117 15.0243 51.9958 14.1393C52.3869 13.2543 52.5824 12.2562 52.5824 11.1448C52.5824 10.0403 52.3869 9.04558 51.9958 8.16061C51.6117 7.27564 51.056 6.57589 50.3288 6.06137C49.6016 5.54685 48.7304 5.28959 47.715 5.28959C46.9467 5.28959 46.2641 5.43366 45.6672 5.72179C45.0773 6.00306 44.5799 6.39752 44.1751 6.90518V1.89377H42.6522V16.7119ZM47.4989 15.6108C46.71 15.6108 46.0583 15.4188 45.5438 15.0346C45.0292 14.6435 44.6451 14.1119 44.3912 13.4396C44.1374 12.7673 44.0105 12.0024 44.0105 11.1448C44.0105 9.83451 44.2952 8.76774 44.8646 7.94451C45.4409 7.11442 46.3087 6.69938 47.4681 6.69938C48.2639 6.69938 48.919 6.89489 49.4335 7.28593C49.9549 7.67696 50.3425 8.20863 50.5963 8.88094C50.8502 9.55324 50.9771 10.3079 50.9771 11.1448C50.9771 11.9886 50.8467 12.7467 50.586 13.419C50.3322 14.0913 49.948 14.6264 49.4335 15.0243C48.919 15.4153 48.2741 15.6108 47.4989 15.6108ZM64.9615 17.0206C66.6835 17.0206 68.0898 16.5816 69.1806 15.7035C70.2714 14.8185 71.0191 13.6351 71.4239 12.1533L69.8803 11.752C69.5648 12.9182 68.9988 13.8478 68.1824 14.5406C67.3661 15.2267 66.2924 15.5697 64.9615 15.5697C63.8022 15.5697 62.8314 15.3056 62.0494 14.7773C61.2742 14.2422 60.691 13.5047 60.3 12.5649C59.9158 11.625 59.7272 10.5377 59.734 9.30284C59.7478 8.068 59.9467 6.98065 60.3309 6.04079C60.7151 5.09408 61.2913 4.3566 62.0597 3.82836C62.8349 3.30012 63.8022 3.036 64.9615 3.036C66.2924 3.036 67.3661 3.38244 68.1824 4.07533C68.9988 4.76136 69.5648 5.68749 69.8803 6.85373L71.4239 6.45241C71.0191 4.97059 70.2714 3.79063 69.1806 2.91252C68.0898 2.02754 66.6835 1.58506 64.9615 1.58506C63.4866 1.58506 62.2415 1.91092 61.2261 2.56264C60.2108 3.21437 59.4425 4.11992 58.9211 5.2793C58.3997 6.43869 58.139 7.77987 58.139 9.30284C58.139 10.819 58.3997 12.1601 58.9211 13.3264C59.4425 14.4858 60.2108 15.3913 61.2261 16.043C62.2415 16.6948 63.4866 17.0206 64.9615 17.0206ZM78.3045 17.0206C79.409 17.0206 80.3557 16.7634 81.1446 16.2488C81.9404 15.7275 82.5475 14.9728 82.966 13.985L81.443 13.5322C80.8805 14.8905 79.8343 15.5697 78.3045 15.5697C77.1108 15.5697 76.2121 15.1684 75.6084 14.3657C75.0047 13.5562 74.696 12.486 74.6823 11.1551C74.696 9.85852 74.9944 8.79861 75.5775 7.97538C76.1675 7.15215 77.0765 6.74054 78.3045 6.74054C79.0317 6.74054 79.6765 6.92576 80.2391 7.29622C80.8085 7.65981 81.2235 8.17433 81.4842 8.83977L82.966 8.36642C82.6573 7.41284 82.0845 6.66164 81.2475 6.11282C80.4174 5.564 79.4398 5.28959 78.3148 5.28959C77.2103 5.28959 76.2704 5.53656 75.4952 6.0305C74.72 6.51758 74.1266 7.2036 73.715 8.08858C73.3033 8.96669 73.0907 9.98887 73.077 11.1551C73.0907 12.2939 73.2965 13.3058 73.6944 14.1908C74.0991 15.0757 74.6891 15.7686 75.4643 16.2694C76.2395 16.7702 77.1862 17.0206 78.3045 17.0206Z" fill="#6698CC"/>
<line x1="107.983" y1="3.71349" x2="107.983" y2="14.8614" stroke="#9DBEE1" stroke-width="1.71506" stroke-linecap="round"/>
<line x1="113.194" y1="9.15538" x2="102.046" y2="9.15538" stroke="#9DBEE1" stroke-width="1.71506" stroke-linecap="round"/>
<path d="M131.614 16.7119H133.188L134.423 13.1206H141.009L142.254 16.7119H143.828L138.724 1.89377H136.718L131.614 16.7119ZM134.917 11.7005L137.706 3.60197L140.515 11.7005H134.917ZM150.019 17.0206C150.938 17.0206 151.741 16.8045 152.427 16.3723C153.12 15.9333 153.638 15.3261 153.981 14.5509V16.7119H155.339V5.59831H153.981V7.72841C153.638 6.96007 153.13 6.36322 152.458 5.93789C151.785 5.50569 150.986 5.28959 150.06 5.28959C148.997 5.28959 148.091 5.54685 147.343 6.06137C146.603 6.57589 146.037 7.27564 145.645 8.16061C145.261 9.04558 145.069 10.0437 145.069 11.1551C145.069 12.2596 145.261 13.2578 145.645 14.1496C146.037 15.0346 146.599 15.7343 147.333 16.2488C148.074 16.7634 148.969 17.0206 150.019 17.0206ZM150.173 15.6108C149.391 15.6108 148.739 15.4153 148.218 15.0243C147.704 14.6264 147.316 14.0913 147.055 13.419C146.801 12.7398 146.675 11.9818 146.675 11.1448C146.675 10.2804 146.805 9.51551 147.066 8.85006C147.326 8.17776 147.717 7.65295 148.239 7.27564C148.76 6.89146 149.408 6.69938 150.184 6.69938C151.343 6.69938 152.207 7.11442 152.777 7.94451C153.353 8.76774 153.641 9.83451 153.641 11.1448C153.641 12.0024 153.514 12.7673 153.26 13.4396C153.007 14.1119 152.622 14.6435 152.108 15.0346C151.6 15.4188 150.955 15.6108 150.173 15.6108ZM162.348 16.7119H168.543C169.853 16.7119 170.91 16.3415 171.712 15.6006C172.515 14.8528 172.916 13.8375 172.916 12.5546C172.916 11.6971 172.697 10.9493 172.258 10.3113C171.826 9.6733 171.225 9.18622 170.457 8.85006C170.992 8.54135 171.414 8.11259 171.723 7.56377C172.038 7.00809 172.196 6.39067 172.196 5.7115C172.196 5.01175 172.025 4.37375 171.682 3.79749C171.339 3.21437 170.858 2.7513 170.241 2.40829C169.624 2.06528 168.9 1.89377 168.07 1.89377H162.348V16.7119ZM163.871 8.21206V3.32413H168.059C168.807 3.32413 169.421 3.54366 169.901 3.98272C170.388 4.42177 170.632 4.99117 170.632 5.69092C170.632 6.43183 170.382 7.03896 169.881 7.51232C169.38 7.97881 168.773 8.21206 168.059 8.21206H163.871ZM163.871 15.261V9.64242H168.45C169.006 9.64242 169.503 9.77277 169.943 10.0335C170.382 10.2941 170.725 10.6475 170.972 11.0934C171.225 11.5324 171.352 12.0264 171.352 12.5752C171.352 13.419 171.047 14.0776 170.436 14.5509C169.826 15.0243 169.071 15.261 168.173 15.261H163.871ZM174.96 21.6513H176.462V15.8887C176.833 16.2386 177.289 16.513 177.831 16.7119C178.38 16.9177 179.007 17.0206 179.714 17.0206C180.743 17.0206 181.621 16.8354 182.348 16.4649C183.075 16.0876 183.631 15.5663 184.015 14.9008C184.406 14.2354 184.602 13.4704 184.602 12.6061C184.602 11.7965 184.444 11.1105 184.128 10.548C183.813 9.98544 183.418 9.54295 182.945 9.22052C182.472 8.89809 181.998 8.68885 181.525 8.59281C182.122 8.35956 182.568 7.96852 182.863 7.4197C183.158 6.87088 183.305 6.23974 183.305 5.52627C183.305 4.30515 182.914 3.34471 182.132 2.64497C181.357 1.93836 180.345 1.58506 179.096 1.58506C178.143 1.58506 177.323 1.79773 176.637 2.22306C175.951 2.6484 175.474 3.24867 175.207 4.02388C175.042 4.48352 174.96 5.00832 174.96 5.59831V21.6513ZM179.776 15.5697C179.069 15.5697 178.421 15.4085 177.831 15.086C177.241 14.7636 176.857 14.3211 176.678 13.7586C176.623 13.5665 176.582 13.347 176.555 13.1C176.534 12.8462 176.524 12.6026 176.524 12.3694V6.18486C176.524 5.93789 176.534 5.66691 176.555 5.37192C176.582 5.07007 176.647 4.78537 176.75 4.51782C176.935 3.98958 177.248 3.61226 177.687 3.38587C178.133 3.15263 178.616 3.036 179.138 3.036C179.913 3.036 180.541 3.25896 181.021 3.70488C181.508 4.14393 181.751 4.75449 181.751 5.53656C181.751 6.35293 181.498 6.96693 180.99 7.37854C180.489 7.79016 179.872 8.03713 179.138 8.11945V9.50865C180.331 9.53609 181.281 9.80707 181.988 10.3216C182.695 10.8361 183.048 11.577 183.048 12.5443C183.048 13.4499 182.743 14.1805 182.132 14.7362C181.522 15.2918 180.736 15.5697 179.776 15.5697ZM190.767 16.7119H192.28V3.34471H200.029V1.89377H190.767V16.7119ZM203.46 20.4165H205.024V16.7119L209.058 5.59831H207.524L204.242 14.7362L200.98 5.59831H199.426L203.46 16.7119V20.4165Z" fill="#6698CC"/>
</svg>
