<svg width="90" height="24" viewBox="0 0 90 24" fill="none" xmlns="http://www.w3.org/2000/svg">
<path d="M1.52646 17.8569H3.06383V5.73244L8.64633 17.8569H9.68215L15.2756 5.73244V17.846H16.802V2.15615H15.3083L9.16969 15.3601L2.99841 2.15615H1.52646V17.8569ZM23.2311 18.184C25.2882 18.184 26.7819 17.4244 27.7123 15.9052V17.8569H29.1407V10.5408C29.1407 10.1047 29.1189 9.67581 29.0752 9.25421C29.0316 8.83262 28.9371 8.451 28.7918 8.10936C28.4792 7.34613 27.9449 6.76462 27.189 6.36483C26.4403 5.95778 25.528 5.75425 24.4522 5.75425C23.1584 5.75425 22.1044 6.045 21.2903 6.62651C20.4762 7.20802 19.931 8.02577 19.6548 9.07976L21.2139 9.5377C21.4393 8.75266 21.8282 8.17842 22.3806 7.81497C22.9403 7.45153 23.6236 7.26981 24.4304 7.26981C25.5498 7.26981 26.3494 7.53149 26.8292 8.05485C27.3089 8.57094 27.556 9.35961 27.5706 10.4209C27.0472 10.4936 26.4693 10.5699 25.837 10.6498C25.2118 10.7298 24.5831 10.8207 23.9507 10.9224C23.3183 11.0242 22.7368 11.1405 22.2061 11.2713C21.3266 11.5039 20.607 11.8928 20.0473 12.438C19.4876 12.9759 19.2077 13.7282 19.2077 14.695C19.2077 15.3201 19.3567 15.898 19.6548 16.4286C19.9528 16.9592 20.3998 17.3845 20.9959 17.7043C21.5992 18.0241 22.3443 18.184 23.2311 18.184ZM23.4164 16.7993C22.784 16.7993 22.2752 16.6975 21.8899 16.494C21.512 16.2832 21.2357 16.0179 21.0613 15.6981C20.8941 15.371 20.8105 15.0366 20.8105 14.695C20.8105 14.0553 21.025 13.5756 21.4538 13.2557C21.8827 12.9359 22.3479 12.7033 22.8494 12.5579C23.4964 12.3835 24.2487 12.2417 25.1064 12.1327C25.9642 12.0237 26.7783 11.9219 27.5488 11.8274C27.5488 12.0963 27.5379 12.4053 27.5161 12.7542C27.5015 13.0958 27.4615 13.412 27.3961 13.7028C27.2435 14.5896 26.8219 15.3274 26.1313 15.9161C25.4481 16.5049 24.5431 16.7993 23.4164 16.7993ZM31.9682 17.8569H33.5819V11.5766C33.5819 10.2464 33.8799 9.20333 34.476 8.44737C35.072 7.6914 35.937 7.31342 37.0709 7.31342C37.8923 7.31342 38.5538 7.51332 39.0554 7.9131C39.5569 8.30562 39.9203 8.84352 40.1457 9.5268C40.371 10.2101 40.4837 10.9842 40.4837 11.8492V17.8569H42.0974V11.3804C42.0974 10.7189 42.0138 10.0574 41.8466 9.39596C41.6867 8.73449 41.425 8.13117 41.0616 7.58601C40.6981 7.04084 40.2147 6.60471 39.6114 6.27761C39.0081 5.95051 38.263 5.78696 37.3762 5.78696C36.5331 5.78696 35.7698 5.95051 35.0865 6.27761C34.4105 6.59744 33.8545 7.07718 33.4183 7.71684V6.08135H31.9682V17.8569ZM44.9268 17.8569H46.5296V11.98C46.5296 11.275 46.6095 10.5735 46.7695 9.8757C46.9366 9.17062 47.3146 8.58548 47.9034 8.12027C48.3323 7.77136 48.7975 7.57147 49.299 7.52059C49.8078 7.46243 50.2803 7.48424 50.7165 7.58601V6.08135C50.2004 5.95051 49.6152 5.94687 48.961 6.07044C48.3068 6.18675 47.7471 6.44843 47.2819 6.85548C46.933 7.11716 46.6277 7.48061 46.366 7.94582V6.08135H44.9268V17.8569ZM57.4893 18.184C58.6523 18.184 59.6481 17.9224 60.4768 17.399C61.3127 16.8756 61.9524 16.1487 62.3958 15.2183C62.8465 14.2806 63.0718 13.1939 63.0718 11.9582C63.0718 10.7443 62.8501 9.67217 62.4067 8.74176C61.9706 7.80407 61.3345 7.07355 60.4986 6.55019C59.67 6.01956 58.6668 5.75425 57.4893 5.75425C56.3408 5.75425 55.3486 6.01593 54.5127 6.53929C53.684 7.05538 53.0444 7.77863 52.5937 8.70905C52.143 9.63946 51.9177 10.7225 51.9177 11.9582C51.9177 13.1721 52.1358 14.2479 52.5719 15.1856C53.0153 16.1233 53.6513 16.8575 54.48 17.3881C55.3159 17.9187 56.319 18.184 57.4893 18.184ZM57.4893 16.6467C56.2172 16.6467 55.2541 16.2214 54.5999 15.371C53.9457 14.5132 53.6186 13.3757 53.6186 11.9582C53.6186 10.5844 53.9348 9.46501 54.5672 8.60001C55.1996 7.72775 56.1736 7.29162 57.4893 7.29162C58.7904 7.29162 59.7608 7.71685 60.4005 8.5673C61.0474 9.41049 61.3709 10.5408 61.3709 11.9582C61.3709 13.3466 61.051 14.4769 60.4114 15.3492C59.7717 16.2142 58.7977 16.6467 57.4893 16.6467ZM65.4661 23.0905H67.0798V16.4504C67.5014 16.9883 68.0211 17.4135 68.639 17.7261C69.2568 18.0314 69.9655 18.184 70.7651 18.184C71.87 18.184 72.8113 17.9115 73.5891 17.3663C74.3668 16.8138 74.9593 16.0688 75.3663 15.1311C75.7806 14.1934 75.9878 13.1358 75.9878 11.9582C75.9878 10.7879 75.7806 9.73396 75.3663 8.79627C74.9593 7.85859 74.3705 7.11716 73.6 6.572C72.8295 6.02683 71.9063 5.75425 70.8305 5.75425C69.9583 5.75425 69.1914 5.9287 68.5299 6.27761C67.8757 6.61924 67.3342 7.09536 66.9053 7.70594V6.08135H65.4661V23.0905ZM70.6016 16.6903C69.7656 16.6903 69.0751 16.4867 68.5299 16.0797C67.9848 15.6654 67.5777 15.102 67.3088 14.3897C67.0398 13.6773 66.9053 12.8668 66.9053 11.9582C66.9053 10.5699 67.207 9.43957 67.8103 8.5673C68.4209 7.68777 69.3404 7.248 70.5688 7.248C71.412 7.248 72.1062 7.45517 72.6514 7.86949C73.2038 8.28382 73.6145 8.84716 73.8835 9.55951C74.1524 10.2719 74.2869 11.0714 74.2869 11.9582C74.2869 12.8523 74.1488 13.6555 73.8726 14.3679C73.6036 15.0802 73.1965 15.6472 72.6514 16.0688C72.1062 16.4831 71.4229 16.6903 70.6016 16.6903ZM83.3649 18.184C84.5061 18.184 85.5274 17.9042 86.4287 17.3445C87.3374 16.7848 88.0243 15.9888 88.4895 14.9567L86.9957 14.3788C86.247 15.8907 85.0149 16.6467 83.2995 16.6467C82.1219 16.6467 81.1988 16.2796 80.53 15.5454C79.8686 14.8113 79.5051 13.7682 79.4397 12.4162H88.7184C88.7766 10.3373 88.3223 8.70905 87.3555 7.53149C86.396 6.34666 85.044 5.75425 83.2995 5.75425C82.1655 5.75425 81.1806 6.00866 80.3447 6.51748C79.516 7.0263 78.8727 7.74956 78.4148 8.68724C77.9569 9.62493 77.7279 10.7371 77.7279 12.0237C77.7279 13.2666 77.9569 14.3497 78.4148 15.2728C78.88 16.196 79.5342 16.912 80.3774 17.4208C81.2279 17.9296 82.2237 18.184 83.3649 18.184ZM83.3431 7.2262C85.5601 7.2262 86.7922 8.50915 87.0393 11.0751H79.4724C79.596 9.83209 79.9885 8.87987 80.65 8.2184C81.3115 7.55693 82.2092 7.2262 83.3431 7.2262Z" fill="#6698CC"/>
</svg>
