<svg width="61" height="21" viewBox="0 0 61 21" fill="none" xmlns="http://www.w3.org/2000/svg">
<path d="M2.97282 20.7892C2.6937 20.6776 2.40529 20.5566 2.10757 20.4264C1.82846 20.2961 1.55865 20.1007 1.29815 19.8402C1.05625 19.5983 0.842267 19.2541 0.656193 18.8075C0.470119 18.2679 0.339866 17.7376 0.265437 17.2166C0.209615 16.6956 0.191007 16.0908 0.209614 15.4024C0.209614 14.4348 0.274741 13.5974 0.404992 12.8904C0.553852 12.1647 0.777141 11.4297 1.07486 10.6854C1.11207 10.6296 1.1772 10.4714 1.27024 10.2109C1.38188 9.93178 1.50283 9.63406 1.63308 9.31773C1.78194 9.00141 1.89358 8.75951 1.96801 8.59204C2.11687 8.27572 2.34016 7.85705 2.63788 7.33604C2.95421 6.79643 3.28914 6.27542 3.64268 5.77302C4.1823 4.9729 4.62887 4.34025 4.98241 3.87507C5.33596 3.40988 5.67089 3.01913 5.98722 2.7028C6.30354 2.38647 6.65708 2.08876 7.04784 1.80964C7.4572 1.51193 7.97821 1.14908 8.61086 0.721111C9.02022 0.423393 9.4668 0.26523 9.95059 0.246623C10.453 0.228014 10.9182 0.339659 11.3461 0.581555C11.7741 0.804844 12.0904 1.13978 12.2951 1.58636C12.4998 1.97711 12.6021 2.4516 12.6021 3.00982C12.6021 3.54944 12.5184 4.12627 12.3509 4.74031C12.1835 5.33575 11.9509 5.90327 11.6532 6.44289C11.3555 6.9825 11.0112 7.42908 10.6205 7.78262C10.3786 8.00591 10.1553 8.08964 9.95059 8.03382C9.76452 7.978 9.54123 7.82914 9.28073 7.58724C9.11326 7.27092 9.02022 7.08485 9.00162 7.02902C9.00162 6.9732 9.03883 6.93599 9.11326 6.91738C9.2249 6.78713 9.37376 6.56384 9.55984 6.24751C9.74591 5.93119 9.93199 5.59625 10.1181 5.24271C10.3041 4.87056 10.4344 4.57284 10.5088 4.34956C10.6577 3.56804 10.76 3.01913 10.8158 2.7028C10.8717 2.36787 10.8158 2.11667 10.6484 1.9492C10.5739 1.87477 10.4623 1.84686 10.3134 1.86547C10.1832 1.88407 9.9599 1.97711 9.64357 2.14458C9.2156 2.33065 8.65738 2.74932 7.9689 3.40058C7.28043 4.03323 6.64778 4.74031 6.07095 5.52182C5.32665 6.50802 4.7033 7.38256 4.2009 8.14547C3.6985 8.90837 3.31705 9.68988 3.05655 10.49C3.01933 10.5644 2.95421 10.704 2.86117 10.9087C2.78674 11.1133 2.74953 11.2157 2.74953 11.2157C2.76813 11.2901 2.74022 11.4762 2.66579 11.7739C2.59136 12.053 2.50763 12.2949 2.41459 12.4996C2.20991 13.3555 2.08896 14.2487 2.05175 15.1791C2.01453 16.0908 2.06105 16.9003 2.1913 17.6073C2.34016 18.3144 2.55415 18.8075 2.83326 19.0866C3.07516 19.2541 3.40079 19.3099 3.81015 19.2541C4.23812 19.1983 4.72191 19.068 5.26153 18.8633C5.80114 18.6587 6.35006 18.4354 6.90828 18.1935C7.35486 18.0074 7.76422 17.8027 8.13637 17.5794C8.50852 17.3561 8.78763 17.1608 8.9737 16.9933C9.12256 16.8816 9.30864 16.77 9.53193 16.6584C9.77382 16.5281 9.9785 16.463 10.146 16.463C10.4065 16.3699 10.5553 16.3327 10.5925 16.3513C10.6298 16.3699 10.6484 16.4537 10.6484 16.6025C10.6484 16.863 10.4995 17.1515 10.2018 17.4678C9.92268 17.7841 9.55984 18.0725 9.11326 18.333C8.9644 18.4819 8.76902 18.64 8.52713 18.8075C8.28523 18.975 8.03403 19.1052 7.77353 19.1983C7.38277 19.496 6.89898 19.7844 6.32215 20.0635C5.74532 20.3426 5.15918 20.5566 4.56375 20.7055C3.98692 20.8543 3.45661 20.8822 2.97282 20.7892Z" fill="#6698CC"/>
<path d="M12.5932 18.2214C12.5188 18.0725 12.4257 17.9609 12.3141 17.8864C12.2025 17.7934 12.1466 17.7097 12.1466 17.6352C12.1466 17.5608 12.1373 17.4864 12.1187 17.412C12.1187 17.3189 12.0815 17.2352 12.0071 17.1608C11.914 17.0491 11.9233 16.7979 12.035 16.4072C12.1466 15.9978 12.3327 15.5047 12.5932 14.9279C12.8537 14.3324 13.1607 13.7091 13.5143 13.0578C13.6631 12.909 13.812 12.7136 13.9609 12.4717C14.1097 12.2298 14.2214 12.0716 14.2958 11.9972C14.2958 11.9228 14.3237 11.8576 14.3795 11.8018C14.4353 11.7274 14.5005 11.6902 14.5749 11.6902V11.5227C14.5749 11.4297 14.6586 11.2715 14.8261 11.0482C15.0122 10.8249 15.2355 10.583 15.496 10.3225C15.7565 10.0434 16.0263 9.78292 16.3054 9.54102C16.5845 9.28052 16.8171 9.09444 17.0032 8.9828C17.3939 8.7223 17.794 8.56413 18.2033 8.50831C18.6313 8.45249 18.9942 8.54553 19.2919 8.78742C19.3477 8.84325 19.4407 8.93628 19.571 9.06653C19.7012 9.19679 19.8501 9.34565 20.0176 9.51311C20.2036 9.66197 20.3897 9.82013 20.5758 9.9876L21.6085 10.9087L21.1061 12.3042C20.8642 13.0485 20.7991 13.6998 20.9107 14.258C21.041 14.8162 21.227 15.3 21.4689 15.7094C21.562 15.9141 21.7481 16.1094 22.0272 16.2955C22.3249 16.4816 22.604 16.5932 22.8645 16.6304C23.0134 16.6491 23.1529 16.7049 23.2832 16.7979C23.4134 16.8909 23.4785 17.0398 23.4785 17.2445C23.4785 17.4306 23.4413 17.5794 23.3669 17.6911C23.2925 17.8027 23.1622 17.8771 22.9761 17.9144C22.3621 17.9888 21.7853 17.8399 21.2457 17.4678C20.7246 17.0956 20.2409 16.4816 19.7943 15.6256C19.7198 15.514 19.6175 15.3093 19.4873 15.0116C19.3756 14.6953 19.3105 14.4906 19.2919 14.3976C19.2174 14.4906 19.0779 14.6674 18.8732 14.9279C18.6685 15.1698 18.5104 15.3465 18.3987 15.4582C17.0776 16.7979 15.9332 17.7004 14.9657 18.1656C14.0167 18.6121 13.2259 18.6307 12.5932 18.2214ZM13.598 16.6584C13.598 16.7886 13.7934 16.7886 14.1841 16.6584C14.5935 16.5095 15.0308 16.249 15.496 15.8768C16.1286 15.3372 16.7613 14.7418 17.3939 14.0905C18.0452 13.4393 18.5662 12.8345 18.9569 12.2763L19.571 11.2715C19.3849 10.8435 19.1802 10.5551 18.9569 10.4063C18.7523 10.2388 18.5755 10.1551 18.4266 10.1551C18.1847 10.1551 17.8219 10.3784 17.3381 10.8249C16.8729 11.2715 16.3705 11.8669 15.8309 12.6112C15.2913 13.3555 14.7796 14.1743 14.2958 15.0674C14.1097 15.4396 13.9422 15.8024 13.7934 16.156C13.6631 16.4909 13.598 16.6584 13.598 16.6584Z" fill="#6698CC"/>
<path d="M25.7949 17.5236C25.6647 17.412 25.4972 17.077 25.2925 16.5188C25.1065 15.9606 24.9204 15.3093 24.7343 14.565C24.5669 13.8021 24.4273 13.1043 24.3157 12.4717C24.2412 12.0995 24.1575 11.7832 24.0645 11.5227C23.99 11.2622 23.9249 11.0482 23.8691 10.8808C23.776 10.5458 23.7481 10.2667 23.7853 10.0434C23.8226 9.82013 23.9528 9.64336 24.1761 9.51311C24.2691 9.45729 24.3808 9.42008 24.511 9.40147C24.6599 9.36425 24.7715 9.35495 24.846 9.37356C25.0693 9.44799 25.2739 9.79222 25.46 10.4063C25.6461 11.0017 25.8136 11.7925 25.9624 12.7787C26.0368 13.3555 26.1299 13.8486 26.2415 14.258C26.3532 14.6674 26.409 14.9093 26.409 14.9837C26.4834 15.1325 26.5672 15.2814 26.6602 15.4303C26.7718 15.5605 26.9021 15.5512 27.0509 15.4024C27.1254 15.3279 27.2742 15.1605 27.4975 14.9C27.7394 14.6395 27.972 14.3603 28.1953 14.0626C28.5861 13.5416 28.8931 13.1136 29.1164 12.7787C29.3583 12.4438 29.6281 12.0902 29.9258 11.7181C30.056 11.532 30.2049 11.3273 30.3724 11.104C30.5398 10.8808 30.7073 10.6761 30.8748 10.49C31.0608 10.2853 31.2283 10.1644 31.3772 10.1272C31.8237 10.0527 32.0656 10.1458 32.1029 10.4063C32.1401 10.6668 31.9726 11.0575 31.6005 11.5785C31.4516 11.8018 31.3307 12.0158 31.2376 12.2205C31.1632 12.4066 31.0888 12.5368 31.0143 12.6112C30.8655 12.909 30.6329 13.2904 30.3165 13.7556C30.0002 14.2022 29.6932 14.6208 29.3955 15.0116C29.0978 15.3837 28.8931 15.6256 28.7814 15.7373C28.707 15.8117 28.5395 15.9513 28.279 16.156C28.0371 16.3606 27.8045 16.6211 27.5813 16.9375C27.1347 17.3654 26.7811 17.6259 26.5206 17.719C26.2601 17.812 26.0182 17.7469 25.7949 17.5236Z" fill="#6698CC"/>
<path d="M34.8397 19.3099C34.0209 19.3099 33.3511 19.0029 32.8301 18.3888C32.3091 17.7562 32.0579 16.9747 32.0765 16.0443C32.1137 15.3744 32.2439 14.6581 32.4672 13.8952C32.7091 13.1136 33.0255 12.3693 33.4162 11.6623C33.807 10.9366 34.2349 10.3039 34.7001 9.76431C35.1653 9.2247 35.6491 8.84324 36.1515 8.61996C36.3376 8.52692 36.5329 8.45249 36.7376 8.39667C36.9609 8.34084 37.1842 8.31293 37.4075 8.31293C37.6122 8.31293 37.8262 8.35015 38.0494 8.42458C38.2727 8.4804 38.4588 8.54553 38.6077 8.61996C38.924 8.75021 39.1659 8.90837 39.3334 9.09445C39.5008 9.28052 39.6497 9.56893 39.7799 9.95969C39.8358 10.3132 39.8637 10.5644 39.8637 10.7133C39.8637 10.8621 39.8172 11.0854 39.7241 11.3832C39.5008 12.053 39.2124 12.6299 38.8589 13.1136C38.5053 13.5974 38.0308 14.0068 37.4354 14.3417C37.2865 14.4348 37.1098 14.5092 36.9051 14.565C36.719 14.6022 36.5236 14.6208 36.319 14.6208C35.9468 14.6208 35.584 14.5557 35.2304 14.4255C34.8955 14.2766 34.6257 14.0626 34.421 13.7835L34.2256 13.5602L34.1419 13.7835C33.9558 14.2859 33.807 14.7511 33.6953 15.1791C33.6023 15.607 33.5558 15.9978 33.5558 16.3513C33.5558 16.5746 33.5744 16.7886 33.6116 16.9933C33.6674 17.198 33.7418 17.3747 33.8349 17.5236C33.9093 17.6352 34.0302 17.719 34.1977 17.7748C34.3838 17.812 34.5792 17.8306 34.7839 17.8306C34.9141 17.8306 35.0444 17.8306 35.1746 17.8306C35.3235 17.812 35.463 17.7748 35.5933 17.719C35.9096 17.6073 36.1608 17.4864 36.3469 17.3561C36.5516 17.2259 36.7562 17.0863 36.9609 16.9375L37.0726 16.8816H37.0447C37.2679 16.77 37.4633 16.6584 37.6308 16.5467C37.8169 16.4351 37.9099 16.3792 37.9099 16.3792C37.9843 16.3792 38.0588 16.3327 38.1332 16.2397C38.282 16.1653 38.4681 16.1932 38.6914 16.3234C38.9333 16.4537 39.0543 16.6211 39.0543 16.8258C39.0356 16.9189 38.9519 17.0677 38.8031 17.2724C38.6542 17.4585 38.4867 17.6352 38.3007 17.8027C38.1332 17.9702 37.9936 18.0632 37.882 18.0818C37.8634 18.1004 37.7983 18.1376 37.6866 18.1935C37.575 18.2307 37.5005 18.2679 37.4633 18.3051H37.4912C37.3238 18.5284 37.1563 18.64 36.9888 18.64H36.7655C36.6911 18.7703 36.4492 18.9192 36.0399 19.0866C35.6305 19.2355 35.2304 19.3099 34.8397 19.3099ZM36.0957 13.1695C36.4306 13.1695 36.719 13.0764 36.9609 12.8904C37.2214 12.6857 37.4447 12.4624 37.6308 12.2205C38.0029 11.7181 38.2169 11.2343 38.2727 10.7691C38.3472 10.2853 38.2913 9.95039 38.1053 9.76431C37.9936 9.70849 37.8913 9.68058 37.7983 9.68058C37.7238 9.66197 37.5657 9.68988 37.3238 9.76431C37.1563 9.80153 36.9237 9.94108 36.626 10.183C36.3283 10.4249 36.0305 10.6947 35.7328 10.9924C35.4537 11.2901 35.2397 11.5413 35.0909 11.746L34.728 12.3321C34.8769 12.2763 35.0164 12.2484 35.1467 12.2484C35.2956 12.2298 35.3793 12.2391 35.3979 12.2763C35.3979 12.4438 35.4258 12.6019 35.4816 12.7508C35.5561 12.8811 35.6398 12.9834 35.7328 13.0578C35.8445 13.1323 35.9654 13.1695 36.0957 13.1695Z" fill="#6698CC"/>
<path d="M42.409 18.3051C42.1857 18.3423 41.9438 18.3051 41.6833 18.1935C41.4228 18.0818 41.1903 17.9237 40.9856 17.719C40.7995 17.5143 40.6785 17.3003 40.6227 17.077C40.5483 16.6863 40.5948 16.2025 40.7623 15.6256C40.9484 15.0302 41.2089 14.4069 41.5438 13.7556C41.8973 13.0857 42.2881 12.4438 42.7161 11.8297C43.1626 11.2157 43.6185 10.6854 44.0837 10.2388C44.5675 9.77362 45.0141 9.45729 45.4234 9.28982C45.6281 9.15957 45.7863 9.07584 45.8979 9.03862C46.0282 8.9828 46.1584 8.9735 46.2887 9.01071C46.4375 9.04793 46.6515 9.14096 46.9306 9.28982C47.1911 9.36425 47.3865 9.44799 47.5168 9.54102C47.647 9.63406 47.8145 9.82013 48.0192 10.0992C48.168 10.3784 48.2797 10.6575 48.3541 10.9366C48.4285 11.2157 48.4937 11.532 48.5495 11.8856C48.6983 12.3507 48.7542 12.6578 48.7169 12.8066C48.6797 12.9369 48.6239 13.0392 48.5495 13.1136C48.4006 13.2997 48.3634 13.3928 48.4378 13.3928C48.4378 13.3928 48.4285 13.43 48.4099 13.5044C48.4099 13.5602 48.3727 13.6533 48.2983 13.7835C48.168 14.1929 48.0657 14.6208 47.9913 15.0674C47.9354 15.4954 47.9447 15.8489 48.0192 16.128C48.168 16.5374 48.4378 16.7793 48.8286 16.8537C49.2193 16.9282 49.6194 16.7607 50.0288 16.3513C50.2335 16.2025 50.4288 16.0722 50.6149 15.9606C50.801 15.8303 50.894 15.8396 50.894 15.9885C50.894 15.9885 50.9219 16.0164 50.9777 16.0722C51.0336 16.1094 51.0987 16.128 51.1731 16.128C51.2662 16.128 51.322 16.1653 51.3406 16.2397C51.3778 16.3141 51.3778 16.4165 51.3406 16.5467C51.322 16.6584 51.2662 16.7886 51.1731 16.9375C50.894 17.2166 50.7545 17.4027 50.7545 17.4957C50.7545 17.4957 50.7172 17.5329 50.6428 17.6073C50.587 17.6632 50.4847 17.7562 50.3358 17.8864C50.0009 18.0911 49.5729 18.1935 49.0519 18.1935C48.5495 18.1935 48.1587 18.0911 47.8796 17.8864C47.6005 17.6818 47.34 17.4027 47.0981 17.0491C46.8748 16.6956 46.726 16.3885 46.6515 16.128L46.512 15.8489L45.7025 16.3792C45.4979 16.5839 45.2746 16.7793 45.0327 16.9654C44.8094 17.1515 44.6605 17.2817 44.5861 17.3561C44.5303 17.4306 44.4652 17.4957 44.3907 17.5515C44.3349 17.6073 44.2698 17.6352 44.1953 17.6352C44.1209 17.6352 44.0558 17.6352 44 17.6352C43.9441 17.6352 43.9162 17.6352 43.9162 17.6352C43.9162 17.7097 43.8232 17.8027 43.6371 17.9144C43.4697 18.026 43.265 18.119 43.0231 18.1935C42.7998 18.2679 42.5951 18.3051 42.409 18.3051ZM42.1299 16.7979C42.2416 16.7979 42.4369 16.7142 42.7161 16.5467C43.0138 16.3606 43.3394 16.1467 43.6929 15.9048C44.0651 15.6629 44.3907 15.421 44.6698 15.1791C44.9676 14.9372 45.1722 14.7511 45.2839 14.6208C45.3583 14.5464 45.4793 14.4255 45.6467 14.258C45.8142 14.0719 45.9631 13.9138 46.0933 13.7835C46.5213 13.2997 46.819 12.7694 46.9865 12.1926C47.1539 11.5971 47.1353 11.132 46.9306 10.797C46.8562 10.5923 46.7632 10.4807 46.6515 10.4621C46.5399 10.4435 46.3073 10.5086 45.9537 10.6575C45.7305 10.7877 45.4513 11.0389 45.1164 11.4111C44.8001 11.7646 44.4559 12.1833 44.0837 12.6671C43.7302 13.1323 43.3952 13.616 43.0789 14.1184C42.7626 14.6208 42.5021 15.086 42.2974 15.514C42.0927 15.942 41.9904 16.2769 41.9904 16.5188C41.9904 16.5932 42.009 16.6584 42.0462 16.7142C42.102 16.77 42.1299 16.7979 42.1299 16.7979Z" fill="#6698CC"/>
<path d="M55.0571 19.1704C54.7966 19.0959 54.5826 19.0122 54.4152 18.9192C54.2477 18.8075 54.0244 18.6307 53.7453 18.3888C53.522 18.0911 53.3452 17.812 53.215 17.5515C53.1034 17.291 53.0289 16.9933 52.9917 16.6584C52.9545 16.3048 52.9359 15.8582 52.9359 15.3186C52.9359 15.0953 52.9731 14.7604 53.0475 14.3138C53.1406 13.8672 53.2429 13.4021 53.3546 12.9183C53.4848 12.4159 53.5965 11.9693 53.6895 11.5785C53.8011 11.1878 53.8663 10.9366 53.8849 10.8249C53.9407 10.583 53.8476 10.4435 53.6058 10.4063C53.3639 10.3691 53.094 10.3597 52.7963 10.3784C52.5172 10.3784 52.3311 10.3504 52.2381 10.2946C52.1637 10.276 52.1265 10.2481 52.1265 10.2109C52.1265 10.1551 52.1265 10.1272 52.1265 10.1272C52.1265 10.0527 52.1172 10.0062 52.0986 9.9876C52.0986 9.95039 52.0706 9.88526 52.0148 9.79222C51.9776 9.71779 51.9962 9.61545 52.0706 9.4852C52.1637 9.33634 52.3125 9.2433 52.5172 9.20609C52.6847 9.16887 52.908 9.14096 53.1871 9.12236C53.4848 9.08514 53.7825 9.02002 54.0802 8.92698C54.378 8.81533 54.6199 8.64787 54.8059 8.42458C54.9734 8.01522 55.1688 7.55933 55.3921 7.05693C55.6154 6.55453 55.8293 6.10796 56.034 5.7172C56.2573 5.30784 56.4062 5.05664 56.4806 4.9636C56.7969 4.79613 57.0295 4.73101 57.1784 4.76822C57.3272 4.78683 57.4947 4.94499 57.6808 5.24271C57.7738 5.37296 57.8389 5.4753 57.8762 5.54973C57.932 5.62416 57.9413 5.73581 57.9041 5.88467C57.8668 6.03353 57.7645 6.26612 57.597 6.58245C57.4482 6.89877 57.2156 7.35465 56.8993 7.95009C56.8062 8.13616 56.7225 8.30363 56.6481 8.45249C56.5736 8.58274 56.5364 8.64787 56.5364 8.64787C56.6108 8.66647 56.7225 8.67578 56.8714 8.67578C57.0202 8.67578 57.2063 8.66647 57.4296 8.64787C57.6343 8.61065 57.8948 8.58274 58.2111 8.56413C58.5274 8.52692 58.7786 8.52692 58.9647 8.56413C59.3927 8.56413 59.709 8.64787 59.9137 8.81533C60.1183 8.96419 60.23 9.2247 60.2486 9.59684C60.2858 9.80153 60.2393 9.92247 60.109 9.95969C59.9974 9.9969 59.6904 10.0155 59.188 10.0155C59.0205 10.0155 58.76 10.0248 58.4065 10.0434C58.0529 10.062 57.6808 10.0806 57.29 10.0992C56.9179 10.1179 56.5922 10.1458 56.3131 10.183C56.0526 10.2016 55.9224 10.2295 55.9224 10.2667C55.8666 10.3039 55.7735 10.4807 55.6433 10.797C55.5316 11.1133 55.4107 11.4762 55.2804 11.8856C55.1688 12.2763 55.0664 12.6299 54.9734 12.9462C54.8431 13.5788 54.7408 14.2115 54.6664 14.8441C54.6106 15.4768 54.6012 16.0257 54.6385 16.4909C54.6757 16.9561 54.778 17.2817 54.9455 17.4678C55.113 17.6352 55.4386 17.6725 55.9224 17.5794C56.4062 17.4678 56.7969 17.291 57.0946 17.0491C57.4296 16.77 57.6994 16.6304 57.9041 16.6304C58.1274 16.6304 58.2483 16.7328 58.2669 16.9375C58.3041 17.1235 58.2018 17.3934 57.9599 17.7469C57.7366 18.0818 57.4575 18.3795 57.1226 18.64C56.7876 18.8819 56.4341 19.0587 56.0619 19.1704C55.7084 19.2634 55.3735 19.2634 55.0571 19.1704Z" fill="#6698CC"/>
</svg>
