<svg width="90" height="21" viewBox="0 0 90 21" fill="none" xmlns="http://www.w3.org/2000/svg">
<path d="M4.214 15.168C6.02 15.168 7.238 13.768 7.238 11.612C7.238 9.442 6.02 8.07 4.214 8.07C3.206 8.07 2.338 8.616 1.862 9.302V8.238H1.134V17.576H1.862V13.908C2.408 14.678 3.262 15.168 4.214 15.168ZM4.088 14.51C3.15 14.51 2.254 13.922 1.862 13.278V9.932C2.254 9.288 3.15 8.728 4.088 8.728C5.6 8.728 6.454 9.974 6.454 11.612C6.454 13.25 5.6 14.51 4.088 14.51ZM9.80536 15V5.662H9.07736V15H9.80536ZM15.0675 15.168C16.1875 15.168 17.0415 14.776 17.7135 14.076L17.3355 13.6C16.7615 14.216 15.9775 14.538 15.1235 14.538C13.5275 14.538 12.5475 13.32 12.4775 11.85H18.1335V11.654C18.1335 9.708 16.9995 8.07 14.9415 8.07C13.0655 8.07 11.6795 9.652 11.6795 11.612C11.6795 13.698 13.0935 15.168 15.0675 15.168ZM17.3915 11.276H12.4775C12.5335 10.1 13.3315 8.7 14.9275 8.7C16.6215 8.7 17.3775 10.128 17.3915 11.276ZM25.0409 15V10.24C25.0409 8.728 23.9489 8.07 22.5769 8.07C21.4569 8.07 20.6729 8.448 19.9729 9.204L20.3789 9.708C20.9949 9.008 21.6529 8.714 22.4929 8.714C23.5009 8.714 24.3129 9.26 24.3129 10.268V11.64C23.7249 10.982 22.9549 10.674 22.0169 10.674C20.8409 10.674 19.6509 11.444 19.6509 12.914C19.6509 14.37 20.8549 15.168 22.0169 15.168C22.9549 15.168 23.7109 14.86 24.3129 14.202V15H25.0409ZM22.2689 14.594C21.1489 14.594 20.4209 13.88 20.4209 12.928C20.4209 11.962 21.1489 11.248 22.2689 11.248C23.0809 11.248 23.8369 11.57 24.3129 12.186V13.67C23.8369 14.286 23.0809 14.594 22.2689 14.594ZM29.3316 15.168C31.0256 15.168 31.8656 14.272 31.8656 13.18C31.8656 10.576 27.5956 11.612 27.5956 9.918C27.5956 9.218 28.2396 8.686 29.2896 8.686C30.1856 8.686 30.9136 9.05 31.3056 9.582L31.7116 9.064C31.2216 8.518 30.4516 8.07 29.2896 8.07C27.7636 8.07 26.8816 8.91 26.8816 9.946C26.8816 12.368 31.1516 11.332 31.1516 13.18C31.1516 13.964 30.4796 14.552 29.3456 14.552C28.3936 14.552 27.5956 14.104 27.1616 13.558L26.7276 14.104C27.3996 14.846 28.2396 15.168 29.3316 15.168ZM36.7374 15.168C37.8574 15.168 38.7114 14.776 39.3834 14.076L39.0054 13.6C38.4314 14.216 37.6474 14.538 36.7934 14.538C35.1974 14.538 34.2174 13.32 34.1474 11.85H39.8034V11.654C39.8034 9.708 38.6694 8.07 36.6114 8.07C34.7354 8.07 33.3494 9.652 33.3494 11.612C33.3494 13.698 34.7634 15.168 36.7374 15.168ZM39.0614 11.276H34.1474C34.2034 10.1 35.0014 8.7 36.5974 8.7C38.2914 8.7 39.0474 10.128 39.0614 11.276ZM50.5998 15V10.24C50.5998 8.714 49.8438 8.07 48.4718 8.07C47.4918 8.07 46.5258 8.672 46.0358 9.26V5.662H45.3078V15H46.0358V9.89C46.4698 9.274 47.3658 8.728 48.2338 8.728C49.2138 8.728 49.8718 9.092 49.8718 10.394V15H50.5998ZM53.2324 7.174C53.5404 7.174 53.7924 6.922 53.7924 6.614C53.7924 6.306 53.5404 6.068 53.2324 6.068C52.9384 6.068 52.6724 6.306 52.6724 6.614C52.6724 6.922 52.9384 7.174 53.2324 7.174ZM53.5964 15V8.238H52.8684V15H53.5964ZM56.5905 15V10.072C56.8985 9.484 57.8225 8.868 58.5085 8.868C58.6485 8.868 58.7465 8.868 58.8725 8.896V8.098C57.9345 8.098 57.1645 8.644 56.5905 9.4V8.238H55.8625V15H56.5905ZM63.3019 15.168C64.4219 15.168 65.2759 14.776 65.9479 14.076L65.5699 13.6C64.9959 14.216 64.2119 14.538 63.3579 14.538C61.7619 14.538 60.7819 13.32 60.7119 11.85H66.3679V11.654C66.3679 9.708 65.2339 8.07 63.1759 8.07C61.2999 8.07 59.9139 9.652 59.9139 11.612C59.9139 13.698 61.3279 15.168 63.3019 15.168ZM65.6259 11.276H60.7119C60.7679 10.1 61.5659 8.7 63.1619 8.7C64.8559 8.7 65.6119 10.128 65.6259 11.276ZM80.6503 15V10.128C80.6503 8.77 80.0483 8.07 78.8023 8.07C77.8503 8.07 76.9403 8.714 76.5623 9.344C76.3943 8.686 75.8343 8.07 74.7843 8.07C73.8043 8.07 72.8803 8.826 72.6003 9.26V8.238H71.8723V15H72.6003V9.89C73.0063 9.274 73.8183 8.728 74.5323 8.728C75.4983 8.728 75.8903 9.316 75.8903 10.268V15H76.6323V9.876C77.0103 9.26 77.8363 8.728 78.5643 8.728C79.5163 8.728 79.9223 9.316 79.9223 10.268V15H80.6503ZM85.9152 15.168C87.0352 15.168 87.8892 14.776 88.5612 14.076L88.1832 13.6C87.6092 14.216 86.8252 14.538 85.9712 14.538C84.3752 14.538 83.3952 13.32 83.3252 11.85H88.9812V11.654C88.9812 9.708 87.8472 8.07 85.7892 8.07C83.9132 8.07 82.5272 9.652 82.5272 11.612C82.5272 13.698 83.9412 15.168 85.9152 15.168ZM88.2392 11.276H83.3252C83.3812 10.1 84.1792 8.7 85.7752 8.7C87.4692 8.7 88.2252 10.128 88.2392 11.276Z" fill="black"/>
</svg>
