<svg width="172" height="25" viewBox="0 0 172 25" fill="none" xmlns="http://www.w3.org/2000/svg">
<path d="M24.1667 18.5002L23.9444 18.9057L23.8279 19.1136C23.7856 19.1864 23.7432 19.2487 23.7009 19.3111L23.4468 19.7061C23.3622 19.8413 23.2669 19.966 23.1716 20.0908C22.9917 20.3507 22.78 20.5898 22.5788 20.8393C22.473 20.964 22.3671 21.0784 22.2507 21.1927L22.0813 21.3695L21.9966 21.4526L21.912 21.5358C21.6791 21.7541 21.4462 21.9828 21.1921 22.1803C21.0651 22.2843 20.9487 22.3882 20.8111 22.4818L20.4088 22.7729C20.2818 22.8768 20.1336 22.96 19.996 23.0432C19.8584 23.1263 19.7208 23.2199 19.5726 23.3031L19.1386 23.5422L18.9163 23.6565L18.694 23.7605C17.4978 24.3322 16.1852 24.7273 14.8303 24.8936C14.1528 24.9872 13.4647 25.008 12.7661 24.9976C12.0675 24.9872 11.3794 24.904 10.6808 24.7897C9.29406 24.5506 7.91794 24.0827 6.6371 23.3966C5.35626 22.7105 4.17068 21.8165 3.16506 20.7145C2.17002 19.6126 1.35494 18.3235 0.815082 16.9201C0.264637 15.5167 0 14.0093 0 12.5123C0.0105855 11.7638 0.0740984 11.0153 0.21171 10.2668L0.338736 9.71585C0.381077 9.52872 0.434005 9.352 0.486932 9.17527C0.529274 8.98815 0.592787 8.81142 0.6563 8.63469L0.740984 8.3644C0.77274 8.28124 0.804497 8.18768 0.846839 8.10451C1.37611 6.70109 2.20178 5.41202 3.18623 4.31007C4.18127 3.20812 5.36684 2.31409 6.64768 1.62797C7.92853 0.941853 9.29406 0.474045 10.6808 0.224548C11.3688 0.099799 12.0675 0.0166332 12.7661 0.00623744C13.4542 -0.014554 14.1422 0.0166332 14.8197 0.099799C16.1746 0.255735 17.4872 0.650773 18.6834 1.22254L18.9057 1.32649L19.128 1.44085L19.562 1.67995C19.6996 1.76312 19.8372 1.85668 19.9854 1.93984C20.123 2.02301 20.2606 2.11657 20.3982 2.21013L20.8005 2.49082C20.9381 2.58438 21.0545 2.69873 21.1816 2.79229C21.4356 2.98981 21.6685 3.21852 21.912 3.43683C22.0284 3.54079 22.1342 3.66553 22.2507 3.77989C22.3565 3.89424 22.473 4.00859 22.5788 4.13334C22.78 4.38284 22.9917 4.61155 23.1716 4.88183C23.2669 5.00658 23.3622 5.13133 23.4468 5.26648L23.7009 5.66151C23.7432 5.72389 23.7856 5.79666 23.8279 5.85903L23.9444 6.06695L24.1667 6.47238C23.4045 5.48479 22.5047 4.62194 21.4885 3.93582C21.2345 3.76949 20.9804 3.59276 20.7158 3.45762C20.5782 3.38485 20.4512 3.30168 20.3135 3.23931L19.9007 3.04179C19.7631 2.96902 19.6255 2.91704 19.4879 2.85467C19.3503 2.80269 19.2127 2.74031 19.075 2.68834L18.6516 2.54279L18.4399 2.47003L18.2282 2.40765C17.085 2.08538 15.8994 1.93984 14.7456 2.00222C13.5812 2.0542 12.4485 2.2933 11.4217 2.71952C10.903 2.92744 10.4055 3.18733 9.95036 3.47841C9.4846 3.76949 9.05059 4.10215 8.65893 4.45561C8.25668 4.80906 7.89677 5.19371 7.56862 5.59914C7.24047 6.00457 6.94408 6.4308 6.67944 6.86742C6.16075 7.75105 5.76909 8.66588 5.51504 9.61189C5.38801 10.0797 5.29274 10.5579 5.22923 11.0361C5.1763 11.5143 5.13396 12.0029 5.13396 12.4915C5.13396 12.9801 5.1763 13.4583 5.23982 13.9365L5.29274 14.3004C5.31391 14.4147 5.34567 14.5395 5.36684 14.6538C5.38801 14.7786 5.41977 14.8929 5.44094 15.0073C5.45153 15.0696 5.46211 15.1216 5.48328 15.184L5.53621 15.3607C5.79026 16.3067 6.18192 17.2216 6.70061 18.0948C6.95466 18.5314 7.26164 18.9473 7.58979 19.3527C7.91794 19.7581 8.27785 20.1428 8.6801 20.4962C9.47401 21.2031 10.4055 21.8165 11.4429 22.2323C11.9616 22.4402 12.5015 22.6169 13.0625 22.7313C13.6235 22.8457 14.1951 22.9288 14.7773 22.9496C15.9417 23.012 17.1167 22.8664 18.26 22.5442L18.4717 22.4818L18.6834 22.409L19.1068 22.2635L19.5196 22.0972C19.6572 22.0452 19.7949 21.9828 19.9325 21.91L20.3453 21.7125C20.4829 21.6501 20.6099 21.567 20.7476 21.4942C21.0122 21.3487 21.2662 21.1823 21.5203 21.016L21.6156 20.9536L21.7108 20.8809L21.8908 20.7457C22.0072 20.6522 22.1448 20.569 22.2613 20.465C22.4942 20.2675 22.7376 20.07 22.9493 19.8517C23.0552 19.7477 23.1716 19.6438 23.2775 19.5294L23.595 19.1864C23.648 19.124 23.7009 19.072 23.7538 19.0096L23.902 18.8329L24.1667 18.5002Z" fill="#E8A94A"/>
<path d="M14.1006 19.6856C15.085 19.5608 16.0271 19.2802 16.8634 18.8435C17.6997 18.4069 18.4618 17.8559 19.044 17.1802C19.6368 16.5045 20.039 15.7248 20.2825 14.9347C20.4095 14.5397 20.4942 14.1343 20.5577 13.7288C20.6212 13.3234 20.653 12.918 20.653 12.5021C20.653 11.6705 20.5471 10.8596 20.3143 10.0591C20.0814 9.25867 19.6791 8.4582 19.0864 7.78248C18.4936 7.10676 17.7208 6.55578 16.874 6.13995C16.0166 5.72413 15.085 5.46423 14.1006 5.31869C15.085 5.18355 16.1118 5.27711 17.0963 5.5474C18.0807 5.81769 19.0334 6.29589 19.8803 6.91963C20.7377 7.54338 21.5104 8.34385 22.0609 9.31065C22.3361 9.79925 22.5478 10.319 22.6854 10.8596C22.823 11.4002 22.8865 11.9512 22.8971 12.5021C22.8971 13.0531 22.8336 13.6145 22.696 14.1551C22.5584 14.6956 22.3573 15.2258 22.0926 15.7144C21.5634 16.6916 20.78 17.5129 19.9226 18.1366C19.0652 18.7708 18.1019 19.2386 17.1069 19.4881C16.1118 19.7376 15.085 19.8103 14.1006 19.6856Z" fill="#FFE8C7"/>
<path d="M38.6128 16.6572C38.1909 16.8271 37.7544 16.9531 37.3032 17.0352C36.8521 17.1172 36.3804 17.1582 35.8882 17.1582C35.1792 17.1582 34.5435 17.0615 33.981 16.8682C33.4185 16.6748 32.9409 16.3877 32.5483 16.0068C32.1558 15.626 31.854 15.1543 31.6431 14.5918C31.438 14.0293 31.3354 13.3789 31.3354 12.6406C31.3354 11.9258 31.4468 11.2783 31.6694 10.6982C31.8979 10.1182 32.2173 9.62305 32.6274 9.21289C33.0376 8.80273 33.5298 8.48633 34.104 8.26367C34.6841 8.04102 35.3286 7.92969 36.0376 7.92969C36.6177 7.92969 37.104 7.96191 37.4966 8.02637C37.895 8.08496 38.2524 8.16113 38.5688 8.25488V10.3379C38.2056 10.1562 37.8101 10.0156 37.3823 9.91602C36.9604 9.81641 36.5591 9.7666 36.1782 9.7666C35.7798 9.7666 35.4224 9.83398 35.106 9.96875C34.7896 10.1035 34.5229 10.291 34.3062 10.5312C34.0894 10.7715 33.9224 11.0645 33.8052 11.4102C33.6938 11.75 33.6382 12.125 33.6382 12.5352C33.6382 12.9629 33.6997 13.3467 33.8228 13.6865C33.9458 14.0264 34.1187 14.3164 34.3413 14.5566C34.5698 14.791 34.8423 14.9727 35.1587 15.1016C35.4751 15.2246 35.8267 15.2861 36.2134 15.2861C36.4009 15.2861 36.5972 15.2744 36.8022 15.251C37.0132 15.2217 37.2212 15.1836 37.4263 15.1367C37.6372 15.084 37.8423 15.0254 38.0415 14.9609C38.2466 14.8965 38.437 14.8262 38.6128 14.75V16.6572ZM46.3433 17L46.2906 15.8311C46.1031 16.0303 45.9068 16.2148 45.7017 16.3848C45.4966 16.5488 45.271 16.6924 45.0249 16.8154C44.7788 16.9385 44.5093 17.0322 44.2163 17.0967C43.9292 17.167 43.6128 17.2021 43.2671 17.2021C42.8101 17.2021 42.4087 17.1348 42.063 17C41.7173 16.8652 41.4273 16.6777 41.1929 16.4375C40.9585 16.1973 40.7798 15.9072 40.6568 15.5674C40.5396 15.2275 40.481 14.8525 40.481 14.4424C40.481 14.0205 40.5689 13.6309 40.7447 13.2734C40.9263 12.916 41.1988 12.6084 41.5621 12.3506C41.9312 12.0928 42.3882 11.8906 42.9331 11.7441C43.4839 11.5977 44.1285 11.5244 44.8667 11.5244H46.0357V10.9883C46.0357 10.7598 46.0035 10.5547 45.939 10.373C45.8746 10.1855 45.7691 10.0273 45.6226 9.89844C45.482 9.76953 45.2974 9.66992 45.0689 9.59961C44.8404 9.5293 44.5591 9.49414 44.2251 9.49414C43.6978 9.49414 43.1763 9.55566 42.6607 9.67871C42.1509 9.7959 41.6558 9.96289 41.1753 10.1797V8.46582C41.6031 8.2959 42.0953 8.15527 42.6519 8.04395C43.2144 7.93262 43.7974 7.87695 44.4009 7.87695C45.063 7.87695 45.6314 7.94141 46.106 8.07031C46.5806 8.19336 46.9703 8.38086 47.2749 8.63281C47.5855 8.88477 47.814 9.20117 47.9605 9.58203C48.107 9.95703 48.1802 10.3965 48.1802 10.9004V17H46.3433ZM46.0357 13.0537H44.7261C44.3628 13.0537 44.0552 13.0889 43.8033 13.1592C43.5513 13.2295 43.3462 13.3262 43.188 13.4492C43.0298 13.5723 42.9126 13.7158 42.8365 13.8799C42.7662 14.0381 42.731 14.208 42.731 14.3896C42.731 14.7529 42.8482 15.0312 43.0826 15.2246C43.3169 15.4121 43.6363 15.5059 44.0406 15.5059C44.3394 15.5059 44.6499 15.3975 44.9722 15.1807C45.2945 14.9639 45.649 14.6533 46.0357 14.249V13.0537ZM58.1344 12.377C58.1344 13.1973 58.0172 13.9062 57.7828 14.5039C57.5543 15.1016 57.232 15.5996 56.816 15.998C56.4058 16.3906 55.9195 16.6836 55.357 16.877C54.7945 17.0645 54.1822 17.1582 53.5201 17.1582C53.2974 17.1582 53.0748 17.1436 52.8521 17.1143C52.6295 17.085 52.4273 17.0469 52.2457 17V20.4893H50.1012V8.07031H51.9556L52.0084 9.38867C52.19 9.16016 52.3775 8.95215 52.5709 8.76465C52.7701 8.57715 52.984 8.41895 53.2125 8.29004C53.441 8.15527 53.6871 8.05273 53.9508 7.98242C54.2144 7.91211 54.5103 7.87695 54.8385 7.87695C55.3658 7.87695 55.8346 7.98242 56.2447 8.19336C56.6549 8.4043 56.9976 8.70605 57.273 9.09863C57.5543 9.48535 57.7681 9.95703 57.9146 10.5137C58.0611 11.0645 58.1344 11.6855 58.1344 12.377ZM55.8844 12.4648C55.8844 11.9727 55.8492 11.5537 55.7789 11.208C55.7086 10.8623 55.606 10.5781 55.4713 10.3555C55.3424 10.1328 55.1812 9.97168 54.9879 9.87207C54.8004 9.7666 54.5836 9.71387 54.3375 9.71387C53.9742 9.71387 53.6256 9.86035 53.2916 10.1533C52.9635 10.4463 52.6148 10.8447 52.2457 11.3486V15.251C52.4156 15.3154 52.6236 15.3682 52.8697 15.4092C53.1217 15.4502 53.3765 15.4707 53.6344 15.4707C53.9742 15.4707 54.2818 15.4004 54.5572 15.2598C54.8385 15.1191 55.0758 14.9199 55.2691 14.6621C55.4683 14.4043 55.6207 14.0908 55.7262 13.7217C55.8316 13.3467 55.8844 12.9277 55.8844 12.4648ZM66.8229 16.9121C66.4362 17 66.0465 17.0703 65.6539 17.123C65.2613 17.1758 64.8893 17.2021 64.5377 17.2021C63.9518 17.2021 63.4449 17.1406 63.0172 17.0176C62.5953 16.8945 62.2438 16.707 61.9625 16.4551C61.6871 16.2031 61.482 15.8838 61.3473 15.4971C61.2184 15.1045 61.1539 14.6387 61.1539 14.0996V9.74023H58.7545V8.07031H61.1539V5.78516L63.3512 5.21387V8.07031H66.8229V9.74023H63.3512V13.9414C63.3512 14.4512 63.4684 14.8379 63.7028 15.1016C63.9371 15.3594 64.3297 15.4883 64.8805 15.4883C65.232 15.4883 65.5748 15.459 65.9088 15.4004C66.2428 15.3418 66.5475 15.2744 66.8229 15.1982V16.9121ZM74.4128 17L74.36 15.8311C74.1725 16.0303 73.9762 16.2148 73.7712 16.3848C73.5661 16.5488 73.3405 16.6924 73.0944 16.8154C72.8483 16.9385 72.5788 17.0322 72.2858 17.0967C71.9987 17.167 71.6823 17.2021 71.3366 17.2021C70.8796 17.2021 70.4782 17.1348 70.1325 17C69.7868 16.8652 69.4967 16.6777 69.2624 16.4375C69.028 16.1973 68.8493 15.9072 68.7262 15.5674C68.609 15.2275 68.5504 14.8525 68.5504 14.4424C68.5504 14.0205 68.6383 13.6309 68.8141 13.2734C68.9958 12.916 69.2682 12.6084 69.6315 12.3506C70.0006 12.0928 70.4577 11.8906 71.0026 11.7441C71.5534 11.5977 72.1979 11.5244 72.9362 11.5244H74.1051V10.9883C74.1051 10.7598 74.0729 10.5547 74.0085 10.373C73.944 10.1855 73.8385 10.0273 73.6921 9.89844C73.5514 9.76953 73.3669 9.66992 73.1383 9.59961C72.9098 9.5293 72.6286 9.49414 72.2946 9.49414C71.7672 9.49414 71.2458 9.55566 70.7301 9.67871C70.2204 9.7959 69.7253 9.96289 69.2448 10.1797V8.46582C69.6725 8.2959 70.1647 8.15527 70.7213 8.04395C71.2838 7.93262 71.8669 7.87695 72.4704 7.87695C73.1325 7.87695 73.7008 7.94141 74.1754 8.07031C74.6501 8.19336 75.0397 8.38086 75.3444 8.63281C75.6549 8.88477 75.8835 9.20117 76.0299 9.58203C76.1764 9.95703 76.2497 10.3965 76.2497 10.9004V17H74.4128ZM74.1051 13.0537H72.7956C72.4323 13.0537 72.1247 13.0889 71.8727 13.1592C71.6208 13.2295 71.4157 13.3262 71.2575 13.4492C71.0993 13.5723 70.9821 13.7158 70.9059 13.8799C70.8356 14.0381 70.8004 14.208 70.8004 14.3896C70.8004 14.7529 70.9176 15.0312 71.152 15.2246C71.3864 15.4121 71.7057 15.5059 72.11 15.5059C72.4088 15.5059 72.7194 15.3975 73.0417 15.1807C73.3639 14.9639 73.7184 14.6533 74.1051 14.249V13.0537ZM83.4265 5.62695C83.4265 5.82031 83.3913 6.00195 83.321 6.17188C83.2507 6.3418 83.1511 6.49121 83.0222 6.62012C82.8991 6.74316 82.7526 6.84277 82.5827 6.91895C82.4128 6.98926 82.2282 7.02441 82.029 7.02441C81.8298 7.02441 81.6423 6.98926 81.4665 6.91895C81.2966 6.84277 81.1472 6.74316 81.0183 6.62012C80.8952 6.49121 80.7985 6.3418 80.7282 6.17188C80.6579 6.00195 80.6228 5.82031 80.6228 5.62695C80.6228 5.43359 80.6579 5.25195 80.7282 5.08203C80.7985 4.91211 80.8952 4.7627 81.0183 4.63379C81.1472 4.50488 81.2966 4.40527 81.4665 4.33496C81.6423 4.25879 81.8298 4.2207 82.029 4.2207C82.2282 4.2207 82.4128 4.25879 82.5827 4.33496C82.7526 4.40527 82.8991 4.50488 83.0222 4.63379C83.1511 4.7627 83.2507 4.91211 83.321 5.08203C83.3913 5.25195 83.4265 5.43359 83.4265 5.62695ZM81.0534 9.74023H78.531V8.07031H83.2507V15.3301H85.8259V17H78.2233V15.3301H81.0534V9.74023ZM92.8533 17V11.1816C92.8533 10.2031 92.49 9.71387 91.7634 9.71387C91.4001 9.71387 91.0515 9.86035 90.7175 10.1533C90.3894 10.4463 90.0408 10.8447 89.6716 11.3486V17H87.5271V8.07031H89.3816L89.4343 9.38867C89.616 9.16016 89.8035 8.95215 89.9968 8.76465C90.196 8.57715 90.4099 8.41895 90.6384 8.29004C90.8669 8.15527 91.113 8.05273 91.3767 7.98242C91.6404 7.91211 91.9363 7.87695 92.2644 7.87695C92.7214 7.87695 93.1199 7.95313 93.4597 8.10547C93.7995 8.25195 94.0837 8.46289 94.3122 8.73828C94.5408 9.00781 94.7107 9.33594 94.822 9.72266C94.9392 10.1035 94.9978 10.5312 94.9978 11.0059V17H92.8533Z" fill="#E8A94A"/>
<path d="M100.61 8.01758C100.792 8.01758 100.965 8.05566 101.129 8.13184C101.293 8.20215 101.436 8.29883 101.559 8.42188C101.682 8.54492 101.779 8.68848 101.849 8.85254C101.926 9.0166 101.964 9.18945 101.964 9.37109C101.964 9.55859 101.926 9.73438 101.849 9.89844C101.779 10.0566 101.682 10.1973 101.559 10.3203C101.436 10.4434 101.293 10.54 101.129 10.6104C100.965 10.6807 100.792 10.7158 100.61 10.7158C100.423 10.7158 100.247 10.6807 100.083 10.6104C99.9246 10.54 99.784 10.4434 99.6609 10.3203C99.5379 10.1973 99.4412 10.0566 99.3709 9.89844C99.3006 9.73438 99.2654 9.55859 99.2654 9.37109C99.2654 9.18945 99.3006 9.0166 99.3709 8.85254C99.4412 8.68848 99.5379 8.54492 99.6609 8.42188C99.784 8.29883 99.9246 8.20215 100.083 8.13184C100.247 8.05566 100.423 8.01758 100.61 8.01758ZM100.61 14.46C100.792 14.46 100.965 14.498 101.129 14.5742C101.293 14.6445 101.436 14.7412 101.559 14.8643C101.682 14.9873 101.779 15.1309 101.849 15.2949C101.926 15.459 101.964 15.6318 101.964 15.8135C101.964 16.001 101.926 16.1768 101.849 16.3408C101.779 16.499 101.682 16.6396 101.559 16.7627C101.436 16.8857 101.293 16.9824 101.129 17.0527C100.965 17.123 100.792 17.1582 100.61 17.1582C100.423 17.1582 100.247 17.123 100.083 17.0527C99.9246 16.9824 99.784 16.8857 99.6609 16.7627C99.5379 16.6396 99.4412 16.499 99.3709 16.3408C99.3006 16.1768 99.2654 16.001 99.2654 15.8135C99.2654 15.6318 99.3006 15.459 99.3709 15.2949C99.4412 15.1309 99.5379 14.9873 99.6609 14.8643C99.784 14.7412 99.9246 14.6445 100.083 14.5742C100.247 14.498 100.423 14.46 100.61 14.46ZM105.976 12.7725C105.976 12.0225 106.079 11.3574 106.284 10.7773C106.489 10.1914 106.779 9.69922 107.154 9.30078C107.535 8.89648 107.989 8.5918 108.516 8.38672C109.05 8.17578 109.641 8.07031 110.292 8.07031C110.573 8.07031 110.848 8.08789 111.118 8.12305C111.393 8.1582 111.663 8.21387 111.927 8.29004V4.58105H113.465V17H112.094L112.041 15.3301C111.613 15.9512 111.15 16.4111 110.652 16.71C110.154 17.0088 109.615 17.1582 109.035 17.1582C108.531 17.1582 108.086 17.0527 107.699 16.8418C107.318 16.6309 106.999 16.335 106.741 15.9541C106.489 15.5674 106.299 15.1045 106.17 14.5654C106.041 14.0264 105.976 13.4287 105.976 12.7725ZM107.541 12.6758C107.541 13.7422 107.696 14.5391 108.007 15.0664C108.323 15.5879 108.768 15.8486 109.343 15.8486C109.729 15.8486 110.137 15.6758 110.564 15.3301C110.998 14.9844 111.452 14.4717 111.927 13.792V9.69629C111.675 9.5791 111.396 9.49121 111.092 9.43262C110.787 9.36816 110.485 9.33594 110.186 9.33594C109.354 9.33594 108.704 9.60547 108.235 10.1445C107.772 10.6836 107.541 11.5273 107.541 12.6758ZM123.234 12.1221C123.234 12.3389 123.231 12.5205 123.225 12.667C123.22 12.8135 123.211 12.9512 123.199 13.0801H117.003C117.003 13.9824 117.255 14.6768 117.759 15.1631C118.263 15.6436 118.989 15.8838 119.938 15.8838C120.196 15.8838 120.454 15.875 120.712 15.8574C120.97 15.834 121.219 15.8047 121.459 15.7695C121.699 15.7344 121.928 15.6963 122.144 15.6553C122.367 15.6084 122.572 15.5586 122.76 15.5059V16.7627C122.344 16.8799 121.872 16.9736 121.345 17.0439C120.823 17.1201 120.281 17.1582 119.719 17.1582C118.963 17.1582 118.312 17.0557 117.767 16.8506C117.223 16.6455 116.774 16.3496 116.423 15.9629C116.077 15.5703 115.819 15.0928 115.649 14.5303C115.485 13.9619 115.403 13.3203 115.403 12.6055C115.403 11.9844 115.491 11.3984 115.667 10.8477C115.848 10.291 116.109 9.80469 116.449 9.38867C116.795 8.9668 117.217 8.63281 117.715 8.38672C118.213 8.14062 118.778 8.01758 119.411 8.01758C120.026 8.01758 120.571 8.11426 121.046 8.30762C121.52 8.50098 121.919 8.77637 122.241 9.13379C122.569 9.48535 122.815 9.91602 122.979 10.4258C123.149 10.9297 123.234 11.4951 123.234 12.1221ZM121.643 11.9023C121.661 11.5098 121.623 11.1523 121.529 10.8301C121.435 10.502 121.289 10.2207 121.09 9.98633C120.896 9.75195 120.653 9.57031 120.36 9.44141C120.067 9.30664 119.727 9.23926 119.341 9.23926C119.007 9.23926 118.702 9.30371 118.427 9.43262C118.151 9.56152 117.914 9.74316 117.715 9.97754C117.515 10.2119 117.354 10.4932 117.231 10.8213C117.108 11.1494 117.032 11.5098 117.003 11.9023H121.643ZM132.125 14.5918C132.125 14.9023 132.072 15.1807 131.967 15.4268C131.861 15.6729 131.718 15.8926 131.536 16.0859C131.354 16.2734 131.143 16.4346 130.903 16.5693C130.663 16.7041 130.405 16.8154 130.13 16.9033C129.86 16.9912 129.582 17.0557 129.295 17.0967C129.008 17.1377 128.726 17.1582 128.451 17.1582C127.853 17.1582 127.303 17.1318 126.799 17.0791C126.301 17.0264 125.811 16.9414 125.331 16.8242V15.418C125.847 15.5645 126.359 15.6758 126.869 15.752C127.379 15.8281 127.886 15.8662 128.39 15.8662C129.122 15.8662 129.664 15.7666 130.016 15.5674C130.367 15.3682 130.543 15.084 130.543 14.7148C130.543 14.5566 130.514 14.416 130.455 14.293C130.402 14.1641 130.303 14.0439 130.156 13.9326C130.01 13.8154 129.781 13.6953 129.471 13.5723C129.166 13.4492 128.747 13.3086 128.214 13.1504C127.815 13.0332 127.446 12.9014 127.106 12.7549C126.772 12.6025 126.482 12.4238 126.236 12.2188C125.99 12.0137 125.797 11.7734 125.656 11.498C125.516 11.2227 125.445 10.8975 125.445 10.5225C125.445 10.2764 125.501 10.0068 125.612 9.71387C125.729 9.4209 125.926 9.14844 126.201 8.89648C126.476 8.64453 126.849 8.43652 127.317 8.27246C127.786 8.10254 128.372 8.01758 129.075 8.01758C129.421 8.01758 129.805 8.03809 130.226 8.0791C130.648 8.11426 131.088 8.17871 131.545 8.27246V9.63477C131.064 9.51758 130.607 9.43262 130.174 9.37988C129.746 9.32129 129.374 9.29199 129.058 9.29199C128.677 9.29199 128.354 9.32129 128.091 9.37988C127.833 9.43848 127.622 9.52051 127.458 9.62598C127.3 9.72559 127.185 9.8457 127.115 9.98633C127.045 10.1211 127.01 10.2676 127.01 10.4258C127.01 10.584 127.039 10.7275 127.098 10.8564C127.162 10.9854 127.276 11.1113 127.44 11.2344C127.61 11.3516 127.845 11.4717 128.143 11.5947C128.442 11.7119 128.832 11.8408 129.312 11.9814C129.834 12.1338 130.273 12.2949 130.631 12.4648C130.988 12.6289 131.278 12.8135 131.501 13.0186C131.724 13.2236 131.882 13.4551 131.975 13.7129C132.075 13.9707 132.125 14.2637 132.125 14.5918ZM137.5 9.44141H134.89V8.17578H139.047V15.7256H141.675V17H134.6V15.7256H137.5V9.44141ZM138.036 4.47559C138.206 4.47559 138.364 4.50781 138.511 4.57227C138.657 4.63086 138.783 4.71582 138.889 4.82715C139 4.93848 139.085 5.06738 139.143 5.21387C139.208 5.35449 139.24 5.50977 139.24 5.67969C139.24 5.84375 139.208 5.99902 139.143 6.14551C139.085 6.29199 139 6.4209 138.889 6.53223C138.783 6.64355 138.657 6.73145 138.511 6.7959C138.364 6.85449 138.206 6.88379 138.036 6.88379C137.866 6.88379 137.708 6.85449 137.561 6.7959C137.415 6.73145 137.286 6.64355 137.175 6.53223C137.069 6.4209 136.984 6.29199 136.92 6.14551C136.861 5.99902 136.832 5.84375 136.832 5.67969C136.832 5.50977 136.861 5.35449 136.92 5.21387C136.984 5.06738 137.069 4.93848 137.175 4.82715C137.286 4.71582 137.415 4.63086 137.561 4.57227C137.708 4.50781 137.866 4.47559 138.036 4.47559ZM150.205 9.42383C150.369 9.62891 150.495 9.86914 150.583 10.1445C150.677 10.4141 150.724 10.707 150.724 11.0234C150.724 11.4805 150.639 11.8994 150.469 12.2803C150.305 12.6553 150.07 12.9775 149.766 13.2471C149.461 13.5166 149.095 13.7275 148.667 13.8799C148.245 14.0264 147.779 14.0996 147.27 14.0996C146.9 14.0996 146.555 14.0615 146.232 13.9854C145.91 13.9033 145.655 13.8037 145.468 13.6865C145.356 13.8506 145.263 14.0059 145.187 14.1523C145.11 14.2988 145.072 14.4629 145.072 14.6445C145.072 14.8672 145.178 15.0518 145.389 15.1982C145.605 15.3447 145.89 15.4238 146.241 15.4355L148.562 15.5234C149.001 15.5352 149.405 15.5908 149.774 15.6904C150.149 15.79 150.469 15.9336 150.732 16.1211C151.002 16.3086 151.21 16.54 151.356 16.8154C151.509 17.0908 151.585 17.4102 151.585 17.7734C151.585 18.166 151.5 18.5381 151.33 18.8896C151.16 19.2412 150.896 19.5488 150.539 19.8125C150.187 20.082 149.739 20.2959 149.194 20.4541C148.649 20.6123 148.002 20.6914 147.252 20.6914C146.537 20.6914 145.928 20.6328 145.424 20.5156C144.926 20.4043 144.516 20.2461 144.193 20.041C143.871 19.8418 143.637 19.6016 143.49 19.3203C143.344 19.0449 143.27 18.7402 143.27 18.4062C143.27 17.9785 143.37 17.6035 143.569 17.2812C143.769 16.959 144.076 16.6484 144.492 16.3496C144.34 16.2793 144.208 16.1914 144.097 16.0859C143.985 15.9805 143.895 15.8662 143.824 15.7432C143.754 15.6143 143.701 15.4795 143.666 15.3389C143.631 15.1982 143.613 15.0605 143.613 14.9258C143.613 14.5449 143.701 14.1963 143.877 13.8799C144.059 13.5635 144.272 13.2646 144.519 12.9834C144.407 12.8486 144.308 12.7168 144.22 12.5879C144.138 12.459 144.064 12.3213 144 12.1748C143.941 12.0225 143.895 11.8613 143.859 11.6914C143.83 11.5156 143.815 11.3164 143.815 11.0938C143.815 10.6367 143.897 10.2207 144.062 9.8457C144.231 9.46484 144.466 9.13965 144.765 8.87012C145.069 8.60059 145.433 8.39258 145.854 8.24609C146.282 8.09375 146.754 8.01758 147.27 8.01758C147.486 8.01758 147.694 8.03223 147.894 8.06152C148.093 8.09082 148.269 8.12891 148.421 8.17578H151.62V9.42383H150.205ZM144.896 18.2744C144.896 18.6904 145.113 18.9922 145.547 19.1797C145.98 19.373 146.584 19.4697 147.357 19.4697C147.844 19.4697 148.251 19.4258 148.579 19.3379C148.913 19.25 149.18 19.1328 149.379 18.9863C149.584 18.8457 149.73 18.6816 149.818 18.4941C149.906 18.3125 149.95 18.125 149.95 17.9316C149.95 17.5742 149.804 17.3105 149.511 17.1406C149.218 16.9707 148.77 16.8711 148.166 16.8418L145.863 16.7627C145.67 16.8916 145.509 17.0176 145.38 17.1406C145.257 17.2637 145.16 17.3867 145.09 17.5098C145.02 17.6387 144.97 17.7646 144.94 17.8877C144.911 18.0166 144.896 18.1455 144.896 18.2744ZM145.362 11.0586C145.362 11.3398 145.409 11.5977 145.503 11.832C145.597 12.0664 145.728 12.2656 145.898 12.4297C146.068 12.5938 146.268 12.7227 146.496 12.8164C146.73 12.9043 146.988 12.9482 147.27 12.9482C147.574 12.9482 147.844 12.8984 148.078 12.7988C148.318 12.6934 148.518 12.5527 148.676 12.377C148.84 12.2012 148.963 11.999 149.045 11.7705C149.133 11.542 149.177 11.3047 149.177 11.0586C149.177 10.7773 149.13 10.5195 149.036 10.2852C148.942 10.0508 148.811 9.85156 148.641 9.6875C148.471 9.52344 148.269 9.39746 148.034 9.30957C147.806 9.21582 147.551 9.16895 147.27 9.16895C146.965 9.16895 146.692 9.22168 146.452 9.32715C146.218 9.43262 146.019 9.57324 145.854 9.74902C145.696 9.91895 145.573 10.1182 145.485 10.3467C145.403 10.5752 145.362 10.8125 145.362 11.0586ZM153.207 8.17578H154.569L154.631 9.59961C154.889 9.29492 155.138 9.04297 155.378 8.84375C155.618 8.63867 155.853 8.47461 156.081 8.35156C156.315 8.22852 156.553 8.14355 156.793 8.09668C157.033 8.04395 157.282 8.01758 157.54 8.01758C158.448 8.01758 159.134 8.28711 159.597 8.82617C160.065 9.35938 160.3 10.165 160.3 11.2432V17H158.771V11.3662C158.771 10.6748 158.642 10.165 158.384 9.83691C158.126 9.50293 157.742 9.33594 157.232 9.33594C157.045 9.33594 156.86 9.36523 156.679 9.42383C156.503 9.47656 156.318 9.57324 156.125 9.71387C155.932 9.84863 155.721 10.0332 155.492 10.2676C155.27 10.502 155.018 10.7949 154.736 11.1465V17H153.207V8.17578ZM163.355 18.8018C163.653 18.8135 163.943 18.7871 164.225 18.7227C164.506 18.6582 164.752 18.5615 164.963 18.4326C165.18 18.3096 165.353 18.1543 165.482 17.9668C165.61 17.7793 165.675 17.5654 165.675 17.3252C165.675 17.0791 165.631 16.8799 165.543 16.7275C165.461 16.5752 165.367 16.4346 165.262 16.3057C165.156 16.1768 165.06 16.0391 164.972 15.8926C164.89 15.7461 164.849 15.5498 164.849 15.3037C164.849 15.1807 164.872 15.0518 164.919 14.917C164.966 14.7822 165.036 14.6592 165.13 14.5479C165.23 14.4365 165.353 14.3457 165.499 14.2754C165.651 14.2051 165.83 14.1699 166.035 14.1699C166.24 14.1699 166.437 14.2139 166.624 14.3018C166.817 14.3838 166.984 14.5127 167.125 14.6885C167.272 14.8643 167.386 15.084 167.468 15.3477C167.556 15.6113 167.6 15.9219 167.6 16.2793C167.6 16.7656 167.509 17.2314 167.327 17.6768C167.151 18.1279 166.885 18.5264 166.527 18.8721C166.176 19.2178 165.733 19.4932 165.2 19.6982C164.673 19.9033 164.058 20.0059 163.355 20.0059V18.8018ZM166.106 8.01758C166.287 8.01758 166.46 8.05566 166.624 8.13184C166.788 8.20215 166.932 8.29883 167.055 8.42188C167.178 8.54492 167.274 8.68848 167.345 8.85254C167.421 9.0166 167.459 9.18945 167.459 9.37109C167.459 9.55859 167.421 9.73438 167.345 9.89844C167.274 10.0566 167.178 10.1973 167.055 10.3203C166.932 10.4434 166.788 10.54 166.624 10.6104C166.46 10.6807 166.287 10.7158 166.106 10.7158C165.918 10.7158 165.742 10.6807 165.578 10.6104C165.42 10.54 165.279 10.4434 165.156 10.3203C165.033 10.1973 164.937 10.0566 164.866 9.89844C164.796 9.73438 164.761 9.55859 164.761 9.37109C164.761 9.18945 164.796 9.0166 164.866 8.85254C164.937 8.68848 165.033 8.54492 165.156 8.42188C165.279 8.29883 165.42 8.20215 165.578 8.13184C165.742 8.05566 165.918 8.01758 166.106 8.01758Z" fill="#FFE8C7"/>
</svg>
