<svg width="173" height="215" viewBox="0 0 173 215" fill="none" xmlns="http://www.w3.org/2000/svg">
<g clip-path="url(#clip0_127_1231)">
<path d="M32.87 153.27C31.21 156.13 26.46 168.27 18.63 189.69H14.18C13.71 188.23 11.69 182.96 8.18 173.85C4 162.8 1.25 156 0 153.27H4.63C4.98 154.73 6.7 159.52 9.73 167.59C13.35 177.06 15.6 183.14 16.49 185.89C16.85 184.89 18.98 178.76 22.96 167.65C25.8067 159.65 27.4067 154.857 27.76 153.27H32.87Z" fill="#2C6DA9"/>
<path d="M45.5799 169.81C47.3487 172.178 48.2076 175.102 47.9999 178.05H29.9999V178.29C29.9474 179.465 30.1602 180.637 30.6224 181.719C31.0846 182.801 31.7844 183.765 32.6699 184.54C33.4128 185.291 34.3022 185.88 35.2828 186.273C36.2634 186.665 37.3142 186.851 38.3699 186.82C40.8442 186.822 43.2314 185.906 45.0699 184.25L46.7899 187.35C44.0764 189.138 40.8994 190.094 37.6499 190.1C36.1253 190.137 34.6097 189.855 33.2008 189.271C31.792 188.687 30.521 187.815 29.4699 186.71C28.399 185.57 27.5682 184.227 27.0271 182.76C26.4859 181.293 26.2454 179.732 26.3199 178.17C26.29 175.115 27.4357 172.164 29.5199 169.93C30.5411 168.784 31.8083 167.884 33.2265 167.297C34.6448 166.71 36.1775 166.451 37.7099 166.54C41.2499 166.54 43.8099 167.65 45.5799 169.81ZM43.6799 175C43.2699 171.49 41.1299 169.73 37.3999 169.73C34.4899 169.73 31.8199 171.78 30.6299 175H43.6799Z" fill="#2C6DA9"/>
<path d="M61.1401 170.4C60.6405 169.967 60.0181 169.702 59.3601 169.64C58.2929 169.606 57.2385 169.88 56.3233 170.43C55.4081 170.98 54.6709 171.782 54.2001 172.74C53.4437 174.202 53.0752 175.834 53.1301 177.48C53.1301 179.41 53.1301 181.92 53.1901 185.08C53.2501 188.24 53.3101 189.75 53.3101 189.58L49.5101 189.64C49.6301 185.84 49.6301 179.23 49.5101 169.76C49.4501 169.23 49.3901 168.3 49.3301 166.89H53.0701L53.0101 170.89C53.3099 169.548 54.0792 168.357 55.1792 167.532C56.2793 166.707 57.6378 166.302 59.0101 166.39C59.7449 166.368 60.4756 166.508 61.1501 166.8L61.1401 170.4Z" fill="#2C6DA9"/>
<path d="M80.5998 167C79.4731 169.46 76.3298 176.983 71.1698 189.57H68.6798C65.9998 182.73 62.7998 175.19 59.2998 167H63.8698C65.4698 172.2 67.5498 178.16 70.0398 184.83C71.1698 182.08 72.4698 178.75 73.8398 174.83C75.2098 170.91 76.0898 168.28 76.3898 167.05L80.5998 167Z" fill="#2C6DA9"/>
<path d="M97.9999 169.81C99.7732 172.176 100.636 175.101 100.43 178.05H82.4299V178.29C82.3753 179.466 82.5871 180.638 83.0494 181.721C83.5118 182.803 84.2128 183.767 85.0999 184.54C85.8425 185.291 86.7319 185.881 87.7126 186.273C88.6932 186.666 89.7442 186.852 90.7999 186.82C93.2743 186.822 95.6615 185.906 97.4999 184.25L99.2199 187.35C96.5064 189.138 93.3295 190.094 90.0799 190.1C88.5543 190.134 87.0383 189.85 85.6284 189.266C84.2184 188.683 82.9453 187.812 81.8899 186.71C80.8223 185.569 79.9943 184.225 79.455 182.758C78.9156 181.291 78.6759 179.731 78.7499 178.17C78.7201 175.115 79.8657 172.164 81.9499 169.93C82.9712 168.784 84.2383 167.884 85.6566 167.297C87.0749 166.71 88.6076 166.451 90.1399 166.54C93.6699 166.54 96.2199 167.65 97.9999 169.81ZM96.0999 175C95.6799 171.49 93.5499 169.73 89.8099 169.73C86.8999 169.73 84.2299 171.78 83.0499 175H96.0999Z" fill="#2C6DA9"/>
<path d="M118 189.57C118 187.35 118 185.13 118.06 182.96C118.12 181.387 118.12 179.927 118.06 178.58C118.113 176.56 117.894 174.542 117.41 172.58C117.194 171.681 116.683 170.88 115.957 170.307C115.232 169.734 114.334 169.421 113.41 169.42C111.53 169.329 109.673 169.863 108.13 170.94L106.13 172.69V189.53H102.26C102.38 185.53 102.44 178.83 102.44 169.6C102.44 169.13 102.44 168.2 102.38 166.85L106 166.79L105.94 169.54C108.13 167.551 110.981 166.446 113.94 166.44C116.67 166.44 118.63 167.26 119.88 168.95C121.24 170.82 121.88 174.04 121.88 178.6C121.88 180.94 121.88 183.45 121.94 186.14C122 188.83 122 189.94 122 189.53L118 189.57Z" fill="#2C6DA9"/>
<path d="M146.82 154.49C146.65 157.13 146.52 161.22 146.52 166.89V169.17C146.52 170.87 146.52 173.17 146.58 176.3C146.64 179.93 146.7 182.73 146.7 184.66V188.05C146.76 189.16 146.76 189.69 146.76 189.57H142.9L143.02 187.12C142.225 188.066 141.225 188.818 140.094 189.317C138.964 189.816 137.735 190.05 136.5 190C134.855 190.057 133.216 189.774 131.685 189.17C130.154 188.566 128.764 187.654 127.6 186.49C126.512 185.385 125.665 184.066 125.115 182.617C124.564 181.167 124.32 179.619 124.4 178.07C124.38 176.54 124.669 175.021 125.25 173.605C125.83 172.189 126.691 170.905 127.78 169.83C128.935 168.717 130.302 167.848 131.801 167.276C133.299 166.704 134.897 166.44 136.5 166.5C139.76 166.5 141.96 167.43 143.09 169.25L143.15 166.91C143.355 162.757 143.235 158.594 142.79 154.46H146.79L146.82 154.49ZM130.39 172.09C129.187 173.31 128.373 174.859 128.051 176.541C127.729 178.224 127.913 179.964 128.58 181.542C129.247 183.12 130.367 184.464 131.798 185.406C133.229 186.347 134.907 186.843 136.62 186.83C137.852 186.889 139.08 186.647 140.197 186.124C141.314 185.601 142.286 184.814 143.03 183.83C143.08 180.2 143.14 176.52 143.14 172.83C142.397 171.808 141.413 170.985 140.276 170.434C139.138 169.883 137.883 169.62 136.62 169.67C135.47 169.635 134.325 169.835 133.254 170.256C132.183 170.677 131.209 171.311 130.39 172.12V172.09Z" fill="#2C6DA9"/>
<path d="M169.49 186.77C167.089 188.917 163.969 190.083 160.748 190.039C157.528 189.995 154.441 188.742 152.1 186.53C151.012 185.425 150.165 184.106 149.615 182.657C149.064 181.207 148.82 179.659 148.9 178.11C148.88 176.58 149.169 175.061 149.75 173.645C150.33 172.229 151.191 170.945 152.28 169.87C153.436 168.755 154.805 167.885 156.305 167.313C157.805 166.741 159.406 166.478 161.01 166.54C162.596 166.462 164.18 166.706 165.669 167.258C167.157 167.809 168.519 168.657 169.67 169.75C170.768 170.863 171.625 172.19 172.186 173.65C172.746 175.109 173 176.668 172.93 178.23C172.998 179.816 172.726 181.399 172.133 182.872C171.539 184.344 170.638 185.674 169.49 186.77ZM161.12 169.64C158.912 169.559 156.762 170.355 155.14 171.854C153.517 173.353 152.554 175.433 152.46 177.64V178.19C152.449 180.457 153.338 182.635 154.932 184.248C156.525 185.86 158.693 186.774 160.96 186.79H161.12C165.81 186.79 169.25 183.39 169.31 178.19C169.37 173.32 166 169.64 161.12 169.64Z" fill="#2C6DA9"/>
<path d="M148.64 62.16C148.637 45.6732 142.086 29.8626 130.427 18.2056C118.769 6.54866 102.957 -2.13277e-07 86.4701 0C52.1301 0 24.3101 28.21 24.3101 62.55C24.3101 80.82 30.6701 95.09 44.7801 108.8C58.8901 122.51 86.4701 147.41 86.4701 147.41C86.4701 147.41 126.94 110.78 133.74 97C136.824 90.7743 137.466 83.6202 135.541 76.9447C133.616 70.2692 129.263 64.5555 123.339 60.9274C117.414 57.2993 110.346 56.0193 103.525 57.3393C96.7039 58.6592 90.6237 62.4835 86.4801 68.06C82.0882 62.1616 75.5375 58.2444 68.263 57.1666C60.9886 56.0889 53.5835 57.9384 47.6701 62.31C47.8845 52.1588 52.0676 42.4957 59.3225 35.3922C66.5774 28.2887 76.3266 24.3104 86.4801 24.31C105.48 24.31 120.62 35.05 123.99 53.08C135.56 56.46 144.71 70.08 144.71 82.69V84.17C147.328 77.128 148.659 69.6729 148.64 62.16Z" fill="#2C6DA9"/>
</g>
<path d="M12.84 211H13.53V207.634H16.53L18.162 211H18.972L17.232 207.43C17.716 207.242 18.09 206.93 18.354 206.494C18.618 206.054 18.75 205.554 18.75 204.994C18.75 204.554 18.666 204.152 18.498 203.788C18.334 203.42 18.098 203.114 17.79 202.87C17.482 202.626 17.112 202.472 16.68 202.408C16.568 202.388 16.464 202.376 16.368 202.372C16.272 202.364 16.182 202.36 16.098 202.36H12.84V211ZM13.53 206.956V203.032H16.086C16.154 203.032 16.236 203.036 16.332 203.044C16.428 203.052 16.524 203.066 16.62 203.086C17.088 203.178 17.438 203.408 17.67 203.776C17.906 204.144 18.024 204.55 18.024 204.994C18.024 205.438 17.906 205.844 17.67 206.212C17.438 206.58 17.088 206.812 16.62 206.908C16.524 206.924 16.428 206.936 16.332 206.944C16.236 206.952 16.154 206.956 16.086 206.956H13.53ZM23.2031 211.18C23.8351 211.18 24.3971 211.028 24.8891 210.724C25.3811 210.416 25.7571 209.984 26.0171 209.428L25.3931 209.152C25.1731 209.588 24.8751 209.924 24.4991 210.16C24.1271 210.392 23.6911 210.508 23.1911 210.508C22.4951 210.508 21.9491 210.286 21.5531 209.842C21.1571 209.394 20.9451 208.766 20.9171 207.958H26.1551C26.1711 206.822 25.9171 205.936 25.3931 205.3C24.8691 204.66 24.1351 204.34 23.1911 204.34C22.5711 204.34 22.0351 204.48 21.5831 204.76C21.1311 205.036 20.7831 205.43 20.5391 205.942C20.2951 206.454 20.1731 207.064 20.1731 207.772C20.1731 208.468 20.2951 209.072 20.5391 209.584C20.7871 210.092 21.1371 210.486 21.5891 210.766C22.0451 211.042 22.5831 211.18 23.2031 211.18ZM23.2031 204.994C23.8591 204.994 24.3731 205.194 24.7451 205.594C25.1211 205.994 25.3431 206.574 25.4111 207.334H20.9291C20.9931 206.586 21.2191 206.01 21.6071 205.606C21.9991 205.198 22.5311 204.994 23.2031 204.994ZM30.2123 211.18C30.7163 211.18 31.1523 211.066 31.5203 210.838C31.8923 210.606 32.1923 210.294 32.4203 209.902V211H33.0503V202.36H32.3603V205.504C32.1283 205.14 31.8263 204.856 31.4543 204.652C31.0823 204.444 30.6463 204.34 30.1463 204.34C29.5583 204.34 29.0563 204.492 28.6403 204.796C28.2283 205.096 27.9123 205.504 27.6923 206.02C27.4723 206.532 27.3623 207.108 27.3623 207.748C27.3623 208.396 27.4723 208.98 27.6923 209.5C27.9123 210.016 28.2343 210.426 28.6583 210.73C29.0863 211.03 29.6043 211.18 30.2123 211.18ZM30.2543 210.52C29.7783 210.52 29.3803 210.398 29.0603 210.154C28.7403 209.91 28.5003 209.58 28.3403 209.164C28.1803 208.744 28.1003 208.272 28.1003 207.748C28.1003 207.228 28.1783 206.762 28.3343 206.35C28.4903 205.934 28.7283 205.606 29.0483 205.366C29.3683 205.122 29.7743 205 30.2663 205C30.7423 205 31.1403 205.118 31.4603 205.354C31.7803 205.59 32.0203 205.914 32.1803 206.326C32.3403 206.738 32.4203 207.212 32.4203 207.748C32.4203 208.276 32.3403 208.75 32.1803 209.17C32.0203 209.586 31.7803 209.916 31.4603 210.16C31.1403 210.4 30.7383 210.52 30.2543 210.52ZM37.6402 211.18C38.2722 211.18 38.8342 211.028 39.3262 210.724C39.8182 210.416 40.1942 209.984 40.4542 209.428L39.8302 209.152C39.6102 209.588 39.3122 209.924 38.9362 210.16C38.5642 210.392 38.1282 210.508 37.6282 210.508C36.9322 210.508 36.3862 210.286 35.9902 209.842C35.5942 209.394 35.3822 208.766 35.3542 207.958H40.5922C40.6082 206.822 40.3542 205.936 39.8302 205.3C39.3062 204.66 38.5722 204.34 37.6282 204.34C37.0082 204.34 36.4722 204.48 36.0202 204.76C35.5682 205.036 35.2202 205.43 34.9762 205.942C34.7322 206.454 34.6102 207.064 34.6102 207.772C34.6102 208.468 34.7322 209.072 34.9762 209.584C35.2242 210.092 35.5742 210.486 36.0262 210.766C36.4822 211.042 37.0202 211.18 37.6402 211.18ZM37.6402 204.994C38.2962 204.994 38.8102 205.194 39.1822 205.594C39.5582 205.994 39.7802 206.574 39.8482 207.334H35.3662C35.4302 206.586 35.6562 206.01 36.0442 205.606C36.4362 205.198 36.9682 204.994 37.6402 204.994ZM42.8314 211H43.5214V205.15H45.3634V204.52H43.5214V203.89C43.5214 203.494 43.6094 203.21 43.7854 203.038C43.9614 202.866 44.2294 202.78 44.5894 202.78H45.3634V202.18H44.5294C44.2734 202.18 44.0334 202.208 43.8094 202.264C43.5894 202.32 43.3934 202.438 43.2214 202.618C43.0574 202.798 42.9514 202.996 42.9034 203.212C42.8554 203.428 42.8314 203.662 42.8314 203.914V204.52H41.6794V205.15H42.8314V211ZM46.6234 203.212H47.3134V202.33H46.6234V203.212ZM46.6234 211H47.3134V204.52H46.6234V211ZM49.3486 211H50.0446V207.502C50.0446 207.026 50.1166 206.602 50.2606 206.23C50.4086 205.858 50.6326 205.566 50.9326 205.354C51.2326 205.142 51.6186 205.036 52.0906 205.036C52.7706 205.036 53.2746 205.264 53.6026 205.72C53.9306 206.172 54.0946 206.808 54.0946 207.628V211H54.7906V207.454C54.7906 206.89 54.6966 206.374 54.5086 205.906C54.3246 205.438 54.0386 205.066 53.6506 204.79C53.2666 204.51 52.7766 204.37 52.1806 204.37C51.7166 204.37 51.2926 204.462 50.9086 204.646C50.5286 204.83 50.2186 205.112 49.9786 205.492V204.52H49.3486V211ZM56.7047 203.212H57.3947V202.33H56.7047V203.212ZM56.7047 211H57.3947V204.52H56.7047V211ZM59.438 211H60.134V207.502C60.134 207.026 60.206 206.602 60.35 206.23C60.498 205.858 60.722 205.566 61.022 205.354C61.322 205.142 61.708 205.036 62.18 205.036C62.86 205.036 63.364 205.264 63.692 205.72C64.02 206.172 64.184 206.808 64.184 207.628V211H64.88V207.454C64.88 206.89 64.786 206.374 64.598 205.906C64.414 205.438 64.128 205.066 63.74 204.79C63.356 204.51 62.866 204.37 62.27 204.37C61.806 204.37 61.382 204.462 60.998 204.646C60.618 204.83 60.308 205.112 60.068 205.492V204.52H59.438V211ZM69.1641 211.18C69.6401 211.18 70.0561 211.076 70.4121 210.868C70.7721 210.66 71.0681 210.378 71.3001 210.022V210.772C71.3041 211.628 71.1521 212.274 70.8441 212.71C70.5361 213.15 69.9881 213.37 69.2001 213.37C68.8241 213.37 68.4581 213.284 68.1021 213.112C67.7461 212.94 67.4681 212.654 67.2681 212.254L66.6441 212.626C66.9321 213.15 67.3081 213.52 67.7721 213.736C68.2401 213.952 68.7141 214.06 69.1941 214.06C70.0101 214.06 70.6441 213.88 71.0961 213.52C71.5521 213.16 71.8321 212.604 71.9361 211.852C71.9641 211.676 71.9821 211.5 71.9901 211.324C71.9981 211.148 72.0021 210.964 72.0021 210.772V204.52H71.3721V205.6C71.1401 205.208 70.8341 204.9 70.4541 204.676C70.0741 204.452 69.6221 204.34 69.0981 204.34C68.5101 204.34 68.0081 204.492 67.5921 204.796C67.1801 205.096 66.8641 205.504 66.6441 206.02C66.4241 206.532 66.3141 207.108 66.3141 207.748C66.3141 208.396 66.4241 208.98 66.6441 209.5C66.8641 210.016 67.1861 210.426 67.6101 210.73C68.0381 211.03 68.5561 211.18 69.1641 211.18ZM69.2061 210.52C68.7301 210.52 68.3321 210.398 68.0121 210.154C67.6921 209.91 67.4521 209.58 67.2921 209.164C67.1321 208.744 67.0521 208.272 67.0521 207.748C67.0521 207.228 67.1301 206.762 67.2861 206.35C67.4421 205.934 67.6801 205.606 68.0001 205.366C68.3201 205.122 68.7261 205 69.2181 205C69.6941 205 70.0921 205.118 70.4121 205.354C70.7321 205.59 70.9721 205.914 71.1321 206.326C71.2921 206.738 71.3721 207.212 71.3721 207.748C71.3721 208.276 71.2921 208.75 71.1321 209.17C70.9721 209.586 70.7321 209.916 70.4121 210.16C70.0921 210.4 69.6901 210.52 69.2061 210.52ZM80.0142 211.18C80.8742 211.18 81.5942 210.99 82.1742 210.61C82.7582 210.226 83.1982 209.696 83.4942 209.02C83.7902 208.34 83.9382 207.56 83.9382 206.68C83.9382 205.796 83.7902 205.016 83.4942 204.34C83.1982 203.664 82.7582 203.136 82.1742 202.756C81.5942 202.372 80.8742 202.18 80.0142 202.18C79.1542 202.18 78.4322 202.372 77.8482 202.756C77.2642 203.136 76.8242 203.664 76.5282 204.34C76.2322 205.016 76.0842 205.796 76.0842 206.68C76.0842 207.56 76.2322 208.34 76.5282 209.02C76.8242 209.696 77.2642 210.226 77.8482 210.61C78.4322 210.99 79.1542 211.18 80.0142 211.18ZM80.0142 210.502C79.3062 210.502 78.7142 210.34 78.2382 210.016C77.7622 209.692 77.4062 209.242 77.1702 208.666C76.9342 208.09 76.8182 207.428 76.8222 206.68C76.8302 205.928 76.9522 205.266 77.1882 204.694C77.4242 204.118 77.7762 203.668 78.2442 203.344C78.7162 203.016 79.3062 202.854 80.0142 202.858C80.7222 202.858 81.3122 203.02 81.7842 203.344C82.2562 203.668 82.6102 204.118 82.8462 204.694C83.0822 205.266 83.2002 205.928 83.2002 206.68C83.2002 207.428 83.0822 208.09 82.8462 208.666C82.6102 209.242 82.2562 209.692 81.7842 210.016C81.3122 210.34 80.7222 210.502 80.0142 210.502ZM85.3823 211H86.0783V207.502C86.0783 207.026 86.1503 206.602 86.2943 206.23C86.4423 205.858 86.6663 205.566 86.9663 205.354C87.2663 205.142 87.6523 205.036 88.1243 205.036C88.8043 205.036 89.3083 205.264 89.6363 205.72C89.9643 206.172 90.1283 206.808 90.1283 207.628V211H90.8243V207.454C90.8243 206.89 90.7303 206.374 90.5423 205.906C90.3583 205.438 90.0723 205.066 89.6843 204.79C89.3003 204.51 88.8103 204.37 88.2143 204.37C87.7503 204.37 87.3263 204.462 86.9423 204.646C86.5623 204.83 86.2523 205.112 86.0123 205.492V204.52H85.3823V211ZM92.7384 211H93.4284V202.18H92.7384V211ZM95.5917 203.212H96.2817V202.33H95.5917V203.212ZM95.5917 211H96.2817V204.52H95.5917V211ZM98.325 211H99.021V207.502C99.021 207.026 99.093 206.602 99.237 206.23C99.385 205.858 99.609 205.566 99.909 205.354C100.209 205.142 100.595 205.036 101.067 205.036C101.747 205.036 102.251 205.264 102.579 205.72C102.907 206.172 103.071 206.808 103.071 207.628V211H103.767V207.454C103.767 206.89 103.673 206.374 103.485 205.906C103.301 205.438 103.015 205.066 102.627 204.79C102.243 204.51 101.753 204.37 101.157 204.37C100.693 204.37 100.269 204.462 99.885 204.646C99.505 204.83 99.195 205.112 98.955 205.492V204.52H98.325V211ZM108.208 211.18C108.84 211.18 109.402 211.028 109.894 210.724C110.386 210.416 110.762 209.984 111.022 209.428L110.398 209.152C110.178 209.588 109.88 209.924 109.504 210.16C109.132 210.392 108.696 210.508 108.196 210.508C107.5 210.508 106.954 210.286 106.558 209.842C106.162 209.394 105.95 208.766 105.922 207.958H111.16C111.176 206.822 110.922 205.936 110.398 205.3C109.874 204.66 109.14 204.34 108.196 204.34C107.576 204.34 107.04 204.48 106.588 204.76C106.136 205.036 105.788 205.43 105.544 205.942C105.3 206.454 105.178 207.064 105.178 207.772C105.178 208.468 105.3 209.072 105.544 209.584C105.792 210.092 106.142 210.486 106.594 210.766C107.05 211.042 107.588 211.18 108.208 211.18ZM108.208 204.994C108.864 204.994 109.378 205.194 109.75 205.594C110.126 205.994 110.348 206.574 110.416 207.334H105.934C105.998 206.586 106.224 206.01 106.612 205.606C107.004 205.198 107.536 204.994 108.208 204.994ZM115.369 211H118.927C119.415 211 119.849 210.906 120.229 210.718C120.613 210.526 120.915 210.254 121.135 209.902C121.355 209.546 121.465 209.12 121.465 208.624C121.465 208.1 121.331 207.65 121.063 207.274C120.799 206.898 120.437 206.608 119.977 206.404C120.301 206.22 120.559 205.962 120.751 205.63C120.943 205.294 121.039 204.928 121.039 204.532C121.039 204.12 120.935 203.75 120.727 203.422C120.523 203.094 120.243 202.836 119.887 202.648C119.531 202.456 119.127 202.36 118.675 202.36H115.369V211ZM116.065 206.122V203.026H118.669C119.137 203.026 119.527 203.162 119.839 203.434C120.155 203.706 120.313 204.064 120.313 204.508C120.313 204.82 120.239 205.098 120.091 205.342C119.943 205.582 119.745 205.772 119.497 205.912C119.249 206.052 118.973 206.122 118.669 206.122H116.065ZM116.065 210.322V206.788H118.897C119.241 206.788 119.551 206.872 119.827 207.04C120.103 207.204 120.321 207.428 120.481 207.712C120.645 207.992 120.727 208.306 120.727 208.654C120.727 209.182 120.533 209.592 120.145 209.884C119.757 210.176 119.275 210.322 118.699 210.322H116.065ZM125.556 211.18C126.196 211.18 126.74 211.036 127.188 210.748C127.636 210.46 127.978 210.058 128.214 209.542C128.454 209.026 128.574 208.428 128.574 207.748C128.574 207.08 128.456 206.49 128.22 205.978C127.988 205.466 127.646 205.066 127.194 204.778C126.746 204.486 126.2 204.34 125.556 204.34C124.928 204.34 124.388 204.484 123.936 204.772C123.484 205.056 123.138 205.454 122.898 205.966C122.658 206.474 122.538 207.068 122.538 207.748C122.538 208.42 122.656 209.014 122.892 209.53C123.128 210.046 123.47 210.45 123.918 210.742C124.37 211.034 124.916 211.18 125.556 211.18ZM125.556 210.508C124.808 210.508 124.24 210.256 123.852 209.752C123.468 209.248 123.276 208.58 123.276 207.748C123.276 207.212 123.358 206.738 123.522 206.326C123.686 205.914 123.936 205.592 124.272 205.36C124.612 205.128 125.04 205.012 125.556 205.012C126.316 205.012 126.886 205.26 127.266 205.756C127.646 206.252 127.836 206.916 127.836 207.748C127.836 208.568 127.646 209.234 127.266 209.746C126.89 210.254 126.32 210.508 125.556 210.508ZM132.792 211.18C133.432 211.18 133.976 211.036 134.424 210.748C134.872 210.46 135.214 210.058 135.45 209.542C135.69 209.026 135.81 208.428 135.81 207.748C135.81 207.08 135.692 206.49 135.456 205.978C135.224 205.466 134.882 205.066 134.43 204.778C133.982 204.486 133.436 204.34 132.792 204.34C132.164 204.34 131.624 204.484 131.172 204.772C130.72 205.056 130.374 205.454 130.134 205.966C129.894 206.474 129.774 207.068 129.774 207.748C129.774 208.42 129.892 209.014 130.128 209.53C130.364 210.046 130.706 210.45 131.154 210.742C131.606 211.034 132.152 211.18 132.792 211.18ZM132.792 210.508C132.044 210.508 131.476 210.256 131.088 209.752C130.704 209.248 130.512 208.58 130.512 207.748C130.512 207.212 130.594 206.738 130.758 206.326C130.922 205.914 131.172 205.592 131.508 205.36C131.848 205.128 132.276 205.012 132.792 205.012C133.552 205.012 134.122 205.26 134.502 205.756C134.882 206.252 135.072 206.916 135.072 207.748C135.072 208.568 134.882 209.234 134.502 209.746C134.126 210.254 133.556 210.508 132.792 210.508ZM137.37 211H138.066V207.88L141.48 211H142.554L138.888 207.76L142.098 204.52H141.132L138.066 207.64V202.36H137.37V211ZM143.52 203.212H144.21V202.33H143.52V203.212ZM143.52 211H144.21V204.52H143.52V211ZM146.253 211H146.949V207.502C146.949 207.026 147.021 206.602 147.165 206.23C147.313 205.858 147.537 205.566 147.837 205.354C148.137 205.142 148.523 205.036 148.995 205.036C149.675 205.036 150.179 205.264 150.507 205.72C150.835 206.172 150.999 206.808 150.999 207.628V211H151.695V207.454C151.695 206.89 151.601 206.374 151.413 205.906C151.229 205.438 150.943 205.066 150.555 204.79C150.171 204.51 149.681 204.37 149.085 204.37C148.621 204.37 148.197 204.462 147.813 204.646C147.433 204.83 147.123 205.112 146.883 205.492V204.52H146.253V211ZM155.979 211.18C156.455 211.18 156.871 211.076 157.227 210.868C157.587 210.66 157.883 210.378 158.115 210.022V210.772C158.119 211.628 157.967 212.274 157.659 212.71C157.351 213.15 156.803 213.37 156.015 213.37C155.639 213.37 155.273 213.284 154.917 213.112C154.561 212.94 154.283 212.654 154.083 212.254L153.459 212.626C153.747 213.15 154.123 213.52 154.587 213.736C155.055 213.952 155.529 214.06 156.009 214.06C156.825 214.06 157.459 213.88 157.911 213.52C158.367 213.16 158.647 212.604 158.751 211.852C158.779 211.676 158.797 211.5 158.805 211.324C158.813 211.148 158.817 210.964 158.817 210.772V204.52H158.187V205.6C157.955 205.208 157.649 204.9 157.269 204.676C156.889 204.452 156.437 204.34 155.913 204.34C155.325 204.34 154.823 204.492 154.407 204.796C153.995 205.096 153.679 205.504 153.459 206.02C153.239 206.532 153.129 207.108 153.129 207.748C153.129 208.396 153.239 208.98 153.459 209.5C153.679 210.016 154.001 210.426 154.425 210.73C154.853 211.03 155.371 211.18 155.979 211.18ZM156.021 210.52C155.545 210.52 155.147 210.398 154.827 210.154C154.507 209.91 154.267 209.58 154.107 209.164C153.947 208.744 153.867 208.272 153.867 207.748C153.867 207.228 153.945 206.762 154.101 206.35C154.257 205.934 154.495 205.606 154.815 205.366C155.135 205.122 155.541 205 156.033 205C156.509 205 156.907 205.118 157.227 205.354C157.547 205.59 157.787 205.914 157.947 206.326C158.107 206.738 158.187 207.212 158.187 207.748C158.187 208.276 158.107 208.75 157.947 209.17C157.787 209.586 157.547 209.916 157.227 210.16C156.907 210.4 156.505 210.52 156.021 210.52Z" fill="#2C6DA9"/>
<defs>
<clipPath id="clip0_127_1231">
<rect width="172.94" height="190.1" fill="white"/>
</clipPath>
</defs>
</svg>
