<svg width="225" height="256" viewBox="0 0 225 256" fill="none" xmlns="http://www.w3.org/2000/svg">
<path d="M111.818 185.728L111.818 22.4624" stroke="#FFF2E0" stroke-width="2.08779" stroke-miterlimit="10"/>
<path d="M26.0999 21.2095L26.0999 135.07C26.0999 136.565 27.4746 137.751 29.208 137.751L194.353 137.751C196.087 137.751 197.461 136.565 197.461 135.07L197.461 21.2095" stroke="#FFF2E0" stroke-width="2.08779" stroke-miterlimit="10"/>
<path d="M111.712 253.759C135.223 253.759 154.282 234.635 154.282 211.045C154.282 187.455 135.223 168.331 111.712 168.331C88.2013 168.331 69.1421 187.455 69.1421 211.045C69.1421 234.635 88.2013 253.759 111.712 253.759Z" fill="#DCE3E9"/>
<path d="M122.325 218.536L128.166 220.399C131.708 221.523 134.087 224.714 134.087 228.288V231.122C134.087 233.037 132.607 234.671 130.439 234.926H92.8009H92.6423C90.6335 234.671 89.1533 233.062 89.1533 231.122V228.288C89.1533 224.714 91.5322 221.523 95.074 220.399L100.915 218.536C103.189 217.795 104.801 215.855 105.012 213.583C96.4594 205.861 97.736 187.734 112.033 187.734C126.33 187.734 126.585 208.159 118.255 213.532C118.466 215.829 120.052 217.795 122.325 218.536Z" fill="#487CB1"/>
<circle cx="144" cy="238.331" r="17" fill="#002547"/>
<path d="M143.833 227.331C137.86 227.331 133 232.191 133 238.164C133 244.138 137.86 248.998 143.833 248.998C149.807 248.998 154.667 244.138 154.667 238.164C154.667 232.191 149.807 227.331 143.833 227.331ZM147.617 234.914C147.833 234.909 148.048 234.947 148.249 235.026C148.451 235.104 148.634 235.223 148.789 235.374C148.943 235.524 149.066 235.705 149.15 235.904C149.234 236.103 149.277 236.317 149.277 236.533C149.277 236.749 149.234 236.963 149.15 237.162C149.066 237.361 148.943 237.541 148.788 237.692C148.633 237.843 148.45 237.961 148.248 238.04C148.047 238.118 147.832 238.156 147.616 238.15C147.194 238.139 146.794 237.964 146.499 237.662C146.205 237.359 146.04 236.954 146.04 236.532C146.04 236.11 146.205 235.705 146.5 235.402C146.795 235.1 147.196 234.925 147.617 234.914ZM140.042 234.914C140.255 234.914 140.467 234.957 140.664 235.038C140.861 235.12 141.04 235.24 141.191 235.391C141.342 235.542 141.462 235.721 141.543 235.918C141.625 236.116 141.667 236.327 141.667 236.54C141.667 236.754 141.624 236.965 141.543 237.162C141.461 237.36 141.341 237.539 141.19 237.69C141.039 237.841 140.86 237.96 140.663 238.042C140.465 238.124 140.254 238.166 140.041 238.165C139.609 238.165 139.196 237.994 138.891 237.689C138.587 237.384 138.415 236.971 138.416 236.539C138.416 236.108 138.587 235.695 138.892 235.39C139.197 235.085 139.611 234.914 140.042 234.914ZM143.833 244.664C139.5 244.664 138.417 240.331 138.417 240.331H149.25C149.25 240.331 148.167 244.664 143.833 244.664Z" fill="#FFD494"/>
<circle cx="27.7314" cy="27.6011" r="27.27" fill="#FFF2E0"/>
<path d="M18.6653 20.7744C19.0152 20.7592 19.2889 20.7441 19.365 20.7441C20.9772 20.7441 22.3765 19.9106 23.0458 18.668C24.3234 19.9864 26.1638 20.7592 28.1259 20.7592L36.7955 20.7592C36.3696 26.8662 33.3276 31.3668 27.7152 31.3668C22.1332 31.3668 19.0912 26.8813 18.6653 20.7744ZM18.6045 19.2438C18.6045 14.1674 22.1332 11.667 27.7304 11.667C33.3428 11.667 36.8563 14.1674 36.8563 19.2439L28.1259 19.2438C26.1182 19.2438 24.2778 18.2134 23.3956 16.6071C23.0153 15.9252 21.9659 16.1828 21.9659 16.9708C21.9659 18.1982 20.8251 19.2438 19.365 19.2438C19.3498 19.2438 19.0152 19.2438 18.6045 19.2438Z" fill="#EEBF77"/>
<path fill-rule="evenodd" clip-rule="evenodd" d="M18.603 19.2287C18.6182 14.1674 22.1317 11.667 27.7289 11.667C33.3414 11.667 36.8548 14.1674 36.8548 19.2439L28.1244 19.2439C26.1167 19.2439 24.2763 18.2134 23.3941 16.6071C23.0139 15.9252 21.9644 16.1828 21.9644 16.9708C21.9644 18.1982 20.8236 19.2287 19.3635 19.2287L18.603 19.2287ZM34.1931 30.5788C37.6914 32.5488 39.8968 36.019 39.8968 39.8681L39.8968 42.7776C39.8968 43.2019 39.5622 43.5353 39.1363 43.5353L28.5046 43.5353L28.5046 35.4583L30.5884 32.5185C31.9573 32.1245 33.1588 31.4729 34.1931 30.5788ZM21.2647 30.5637C22.2534 31.4274 23.4245 32.079 24.7326 32.4579L26.9684 35.4735L26.9684 43.5201L16.3215 43.5201C15.8956 43.5201 15.561 43.1867 15.561 42.7624L15.561 39.8529C15.561 36.0039 17.7817 32.5337 21.2647 30.5637ZM31.5314 37.4283L36.0943 37.4283C36.5202 37.4283 36.8548 37.0949 36.8548 36.6706C36.8548 36.2463 36.5202 35.9129 36.0943 35.9129L31.5314 35.9129C31.1055 35.9129 30.7709 36.2463 30.7709 36.6706C30.7709 37.0949 31.1055 37.4283 31.5314 37.4283Z" fill="#EEBF77"/>
<circle cx="111.614" cy="27.6011" r="27.27" fill="#FFF2E0"/>
<path d="M102.548 20.7744C102.897 20.7592 103.171 20.7441 103.247 20.7441C104.86 20.7441 106.259 19.9106 106.928 18.668C108.206 19.9864 110.046 20.7592 112.008 20.7592L120.678 20.7592C120.252 26.8662 117.21 31.3668 111.598 31.3668C106.015 31.3668 102.974 26.8813 102.548 20.7744ZM102.487 19.2438C102.487 14.1674 106.016 11.667 111.613 11.667C117.225 11.667 120.739 14.1674 120.739 19.2439L112.008 19.2438C110 19.2438 108.16 18.2134 107.278 16.6071C106.898 15.9252 105.848 16.1828 105.848 16.9708C105.848 18.1982 104.707 19.2438 103.247 19.2438C103.232 19.2438 102.897 19.2438 102.487 19.2438Z" fill="#EEBF77"/>
<path fill-rule="evenodd" clip-rule="evenodd" d="M102.485 19.2287C102.501 14.1674 106.014 11.667 111.611 11.667C117.224 11.667 120.737 14.1674 120.737 19.2439L112.007 19.2439C109.999 19.2438 108.159 18.2134 107.276 16.6071C106.896 15.9252 105.847 16.1828 105.847 16.9708C105.847 18.1982 104.706 19.2287 103.246 19.2287L102.485 19.2287ZM118.075 30.5788C121.574 32.5488 123.779 36.019 123.779 39.8681L123.779 42.7776C123.779 43.2019 123.445 43.5353 123.019 43.5353L112.387 43.5353L112.387 35.4583L114.471 32.5185C115.84 32.1245 117.041 31.4729 118.075 30.5788ZM105.147 30.5637C106.136 31.4274 107.307 32.079 108.615 32.4579L110.851 35.4735L110.851 43.5201L100.204 43.5201C99.778 43.5201 99.4434 43.1867 99.4434 42.7624L99.4434 39.8529C99.4434 36.0039 101.664 32.5337 105.147 30.5637ZM115.414 37.4283L119.977 37.4283C120.403 37.4283 120.737 37.0949 120.737 36.6706C120.737 36.2463 120.403 35.9129 119.977 35.9129L115.414 35.9129C114.988 35.9129 114.653 36.2463 114.653 36.6706C114.653 37.0949 114.988 37.4283 115.414 37.4283Z" fill="#EEBF77"/>
<circle cx="197.269" cy="27.6011" r="27.27" fill="#FFF2E0"/>
<path d="M188.202 20.7744C188.552 20.7592 188.826 20.7441 188.902 20.7441C190.514 20.7441 191.914 19.9106 192.583 18.668C193.861 19.9864 195.701 20.7592 197.663 20.7592L206.333 20.7592C205.907 26.8662 202.865 31.3668 197.252 31.3668C191.67 31.3668 188.628 26.8813 188.202 20.7744ZM188.142 19.2438C188.142 14.1674 191.67 11.667 197.268 11.667C202.88 11.667 206.393 14.1674 206.393 19.2439L197.663 19.2438C195.655 19.2438 193.815 18.2134 192.933 16.6071C192.552 15.9252 191.503 16.1828 191.503 16.9708C191.503 18.1982 190.362 19.2438 188.902 19.2438C188.887 19.2438 188.552 19.2438 188.142 19.2438Z" fill="#EEBF77"/>
<path fill-rule="evenodd" clip-rule="evenodd" d="M188.14 19.2287C188.155 14.1674 191.669 11.667 197.266 11.667C202.878 11.667 206.392 14.1674 206.392 19.2439L197.661 19.2439C195.654 19.2438 193.813 18.2134 192.931 16.6071C192.551 15.9252 191.501 16.1828 191.501 16.9708C191.501 18.1982 190.361 19.2287 188.901 19.2287L188.14 19.2287ZM203.73 30.5788C207.228 32.5488 209.434 36.019 209.434 39.8681L209.434 42.7776C209.434 43.2019 209.099 43.5353 208.673 43.5353L198.042 43.5353L198.042 35.4583L200.125 32.5185C201.494 32.1245 202.696 31.4729 203.73 30.5788ZM190.802 30.5637C191.79 31.4274 192.962 32.079 194.27 32.4579L196.506 35.4735L196.506 43.5201L185.859 43.5201C185.433 43.5201 185.098 43.1867 185.098 42.7624L185.098 39.8529C185.098 36.0039 187.319 32.5337 190.802 30.5637ZM201.068 37.4283L205.631 37.4283C206.057 37.4283 206.392 37.0949 206.392 36.6706C206.392 36.2463 206.057 35.9129 205.631 35.9129L201.068 35.9129C200.643 35.9129 200.308 36.2463 200.308 36.6706C200.308 37.0949 200.643 37.4283 201.068 37.4283Z" fill="#EEBF77"/>
<rect width="40.5031" height="20.0428" rx="10.0214" transform="matrix(-1 -8.74228e-08 -8.74228e-08 1 218 76.3306)" fill="#FFF2E0"/>
<path d="M205.309 92.198L207.03 92.198L207.03 91.0466C207.822 90.9067 208.457 90.5844 208.934 90.0797C209.41 89.5709 209.649 88.9453 209.649 88.2032C209.649 87.5459 209.47 87.0179 209.111 86.6193C208.757 86.2207 208.177 85.9048 207.371 85.6715L205.764 85.2135C205.359 85.099 205.064 84.9633 204.878 84.8064C204.693 84.6453 204.6 84.4544 204.6 84.2339C204.6 83.9328 204.744 83.6826 205.03 83.4833C205.321 83.284 205.676 83.1907 206.093 83.2034C206.532 83.2162 206.905 83.3497 207.213 83.6042C207.525 83.8544 207.725 84.183 207.814 84.5901L209.586 84.2721C209.408 83.5724 209.1 83.0041 208.662 82.5673C208.227 82.1263 207.683 81.8337 207.03 81.6895L207.03 80.5063L205.309 80.5063L205.309 81.6513C204.558 81.7743 203.967 82.0712 203.537 82.5419C203.107 83.0126 202.892 83.6063 202.892 84.323C202.892 85.5146 203.541 86.3119 204.841 86.7147L207.093 87.4145C207.658 87.601 207.941 87.9064 207.941 88.3304C207.941 88.6612 207.782 88.939 207.466 89.1637C207.154 89.3885 206.76 89.5009 206.283 89.5009C205.777 89.5009 205.34 89.3525 204.973 89.0556C204.611 88.7588 204.372 88.3601 204.258 87.8597L202.55 88.1269C202.664 88.8987 202.964 89.539 203.449 90.0479C203.938 90.5568 204.558 90.8855 205.309 91.0339L205.309 92.198Z" fill="#EEBF77"/>
<path d="M196.958 92.1975L198.678 92.1975L198.678 91.0461C199.471 90.9062 200.106 90.5839 200.583 90.0792C201.059 89.5704 201.298 88.9449 201.298 88.2027C201.298 87.5454 201.118 87.0175 200.76 86.6188C200.406 86.2202 199.826 85.9043 199.02 85.671L197.413 85.213C197.008 85.0985 196.713 84.9628 196.527 84.8059C196.342 84.6448 196.249 84.454 196.249 84.2334C196.249 83.9323 196.392 83.6821 196.679 83.4828C196.97 83.2835 197.325 83.1902 197.742 83.2029C198.181 83.2157 198.554 83.3493 198.862 83.6037C199.174 83.8539 199.374 84.1826 199.463 84.5897L201.234 84.2716C201.057 83.5719 200.749 83.0036 200.311 82.5668C199.876 82.1258 199.332 81.8332 198.678 81.689L198.678 80.5059L196.958 80.5059L196.958 81.6509C196.207 81.7738 195.616 82.0707 195.186 82.5414C194.756 83.0121 194.541 83.6058 194.541 84.3225C194.541 85.5141 195.19 86.3114 196.489 86.7142L198.742 87.414C199.307 87.6006 199.59 87.9059 199.59 88.33C199.59 88.6607 199.431 88.9385 199.115 89.1633C198.803 89.388 198.409 89.5004 197.932 89.5004C197.426 89.5004 196.989 89.352 196.622 89.0551C196.26 88.7583 196.021 88.3596 195.907 87.8592L194.199 88.1264C194.313 88.8982 194.613 89.5386 195.098 90.0474C195.587 90.5563 196.207 90.885 196.958 91.0334L196.958 92.1975Z" fill="#EEBF77"/>
<path d="M188.607 92.198L190.327 92.198L190.327 91.0466C191.12 90.9067 191.755 90.5844 192.232 90.0797C192.708 89.5709 192.947 88.9453 192.947 88.2032C192.947 87.5459 192.767 87.0179 192.409 86.6193C192.055 86.2207 191.475 85.9048 190.669 85.6715L189.062 85.2135C188.657 85.099 188.362 84.9633 188.176 84.8064C187.991 84.6453 187.898 84.4544 187.898 84.2339C187.898 83.9328 188.041 83.6826 188.328 83.4833C188.619 83.284 188.974 83.1907 189.391 83.2034C189.83 83.2162 190.203 83.3497 190.511 83.6042C190.823 83.8544 191.023 84.183 191.112 84.5901L192.883 84.2721C192.706 83.5724 192.398 83.0041 191.96 82.5673C191.525 82.1263 190.981 81.8337 190.327 81.6895L190.327 80.5063L188.607 80.5063L188.607 81.6513C187.856 81.7743 187.265 82.0712 186.835 82.5419C186.405 83.0126 186.19 83.6063 186.19 84.323C186.19 85.5146 186.839 86.3119 188.138 86.7147L190.391 87.4145C190.956 87.601 191.238 87.9064 191.238 88.3304C191.238 88.6612 191.08 88.939 190.764 89.1637C190.452 89.3885 190.057 89.5009 189.581 89.5009C189.075 89.5009 188.638 89.3525 188.271 89.0556C187.909 88.7588 187.67 88.3601 187.556 87.8597L185.848 88.1269C185.962 88.8987 186.261 89.539 186.747 90.0479C187.236 90.5568 187.856 90.8855 188.607 91.0339L188.607 92.198Z" fill="#EEBF77"/>
<path d="M194.199 111.331L197.748 114.88L201.297 111.331" stroke="#FFF2E0" stroke-width="2.08779" stroke-linecap="round" stroke-linejoin="round"/>
<rect width="23.8008" height="20.0428" rx="10.0214" transform="matrix(-1 8.74228e-08 8.74228e-08 1 123.711 76.3311)" fill="#FFF2E0"/>
<path d="M111.02 92.1985L112.74 92.1985L112.74 91.0471C113.533 90.9072 114.168 90.5849 114.645 90.0802C115.121 89.5713 115.36 88.9458 115.36 88.2037C115.36 87.5464 115.18 87.0184 114.822 86.6198C114.468 86.2212 113.888 85.9053 113.082 85.672L111.475 85.214C111.07 85.0995 110.775 84.9638 110.589 84.8069C110.404 84.6458 110.311 84.4549 110.311 84.2344C110.311 83.9333 110.454 83.6831 110.741 83.4838C111.032 83.2845 111.387 83.1912 111.804 83.2039C112.243 83.2166 112.616 83.3502 112.924 83.6047C113.236 83.8549 113.436 84.1835 113.525 84.5906L115.296 84.2726C115.119 83.5729 114.811 83.0046 114.373 82.5678C113.938 82.1268 113.394 81.8342 112.74 81.69L112.74 80.5068L111.02 80.5068L111.02 81.6518C110.269 81.7748 109.678 82.0717 109.248 82.5424C108.818 83.0131 108.603 83.6068 108.603 84.3235C108.603 85.5151 109.252 86.3124 110.551 86.7152L112.804 87.4149C113.369 87.6015 113.652 87.9069 113.652 88.3309C113.652 88.6617 113.493 88.9395 113.177 89.1642C112.865 89.389 112.471 89.5014 111.994 89.5014C111.488 89.5014 111.051 89.3529 110.684 89.0561C110.322 88.7592 110.083 88.3606 109.969 87.8602L108.261 88.1274C108.375 88.8992 108.675 89.5395 109.16 90.0484C109.649 90.5573 110.269 90.886 111.02 91.0344L111.02 92.1985Z" fill="#EEBF77"/>
<path d="M108.261 111.331L111.81 114.88L115.36 111.331" stroke="#FFF2E0" stroke-width="2.08779" stroke-linecap="round" stroke-linejoin="round"/>
<rect width="32.152" height="20.0428" rx="10.0214" transform="matrix(-1 8.74228e-08 8.74228e-08 1 41.9683 76.3311)" fill="#FFF2E0"/>
<path d="M29.277 92.1985L30.9978 92.1985L30.9978 91.0471C31.7908 90.9072 32.4255 90.5849 32.9021 90.0802C33.3787 89.5713 33.617 88.9458 33.617 88.2037C33.617 87.5464 33.4378 87.0184 33.0793 86.6198C32.725 86.2212 32.145 85.9053 31.3395 85.672L29.7325 85.214C29.3276 85.0995 29.0323 84.9638 28.8468 84.8069C28.6612 84.6458 28.5684 84.4549 28.5684 84.2344C28.5684 83.9333 28.7118 83.6831 28.9986 83.4838C29.2896 83.2845 29.6439 83.1912 30.0615 83.2039C30.5001 83.2166 30.8734 83.3502 31.1813 83.6047C31.4934 83.8549 31.6937 84.1835 31.7823 84.5906L33.5538 84.2726C33.3766 83.5729 33.0687 83.0046 32.6301 82.5678C32.1957 82.1268 31.6516 81.8342 30.9978 81.69L30.9978 80.5068L29.277 80.5068L29.277 81.6518C28.5262 81.7748 27.9357 82.0717 27.5055 82.5424C27.0753 83.0131 26.8602 83.6068 26.8602 84.3235C26.8602 85.5151 27.5097 86.3124 28.8088 86.7152L31.0611 87.4149C31.6263 87.6015 31.9088 87.9069 31.9088 88.3309C31.9088 88.6617 31.7507 88.9395 31.4344 89.1642C31.1222 89.389 30.7279 89.5014 30.2513 89.5014C29.7451 89.5014 29.3086 89.3529 28.9417 89.0561C28.5789 88.7592 28.3406 88.3606 28.2267 87.8602L26.5186 88.1274C26.6324 88.8992 26.9319 89.5395 27.4169 90.0484C27.9062 90.5573 28.5262 90.886 29.277 91.0344L29.277 92.1985Z" fill="#EEBF77"/>
<path d="M20.9259 92.1985L22.6467 92.1985L22.6467 91.0471C23.4397 90.9072 24.0745 90.5849 24.5511 90.0802C25.0277 89.5713 25.266 88.9458 25.266 88.2037C25.266 87.5464 25.0867 87.0184 24.7282 86.6198C24.3739 86.2212 23.794 85.9053 22.9884 85.672L21.3814 85.214C20.9765 85.0995 20.6813 84.9638 20.4957 84.8069C20.3101 84.6458 20.2173 84.4549 20.2173 84.2344C20.2173 83.9333 20.3607 83.6831 20.6475 83.4838C20.9385 83.2845 21.2928 83.1912 21.7104 83.2039C22.149 83.2166 22.5223 83.3502 22.8302 83.6047C23.1423 83.8549 23.3427 84.1835 23.4312 84.5906L25.2027 84.2726C25.0256 83.5729 24.7177 83.0046 24.279 82.5678C23.8446 82.1268 23.3005 81.8342 22.6467 81.69L22.6467 80.5068L20.9259 80.5068L20.9259 81.6518C20.1751 81.7748 19.5846 82.0717 19.1544 82.5424C18.7242 83.0131 18.5091 83.6068 18.5091 84.3235C18.5091 85.5151 19.1587 86.3124 20.4577 86.7152L22.71 87.4149C23.2752 87.6015 23.5578 87.9069 23.5578 88.3309C23.5578 88.6617 23.3996 88.9395 23.0833 89.1642C22.7712 89.389 22.3768 89.5014 21.9002 89.5014C21.3941 89.5014 20.9575 89.3529 20.5906 89.0561C20.2279 88.7592 19.9896 88.3606 19.8757 87.8602L18.1675 88.1274C18.2814 88.8992 18.5808 89.5395 19.0659 90.0484C19.5551 90.5573 20.1751 90.886 20.9259 91.0344L20.9259 92.1985Z" fill="#EEBF77"/>
<path d="M22.3433 111.331L25.8925 114.88L29.4417 111.331" stroke="#FFF2E0" stroke-width="2.08779" stroke-linecap="round" stroke-linejoin="round"/>
</svg>
