<svg width="46" height="22" viewBox="0 0 46 22" fill="none" xmlns="http://www.w3.org/2000/svg">
<g clip-path="url(#clip0_127_524)">
<path d="M45.8333 9.52253L43.6333 22H1.595L0 0H40.3058L38.6375 9.52253H45.8333Z" fill="white"/>
<path d="M43.3493 11.6253L41.8918 19.9066H3.52932L2.23682 2.09351H10.2851L10.5877 6.68803L12.2835 2.09351H37.8218L36.1627 11.6253H43.3493Z" fill="#002547"/>
<path d="M17.2652 4.19629L11.5177 17.8039H5.45856L4.47314 4.19629H8.51106L9.20773 13.691L13.2136 4.19629H17.2652Z" fill="white"/>
<path d="M30.1677 4.19629L29.4344 8.27671H21.1385L20.2219 13.7234H24.4752L24.6723 12.5887H22.8756L23.4119 9.41145H29.2602L28.3435 14.6266C28.1928 15.5098 27.7303 16.3079 27.0419 16.8729C26.3844 17.4657 25.5351 17.7952 24.654 17.7992H18.5902C18.2415 17.811 17.894 17.7505 17.5693 17.6214C17.2445 17.4924 16.9493 17.2975 16.7019 17.0489C16.4588 16.8027 16.2679 16.5089 16.1411 16.1856C16.0142 15.8623 15.9539 15.5162 15.964 15.1685C15.9642 14.9855 15.978 14.8028 16.0052 14.622L17.2656 7.36429C17.4198 6.48141 17.8855 5.68497 18.5765 5.1226C19.234 4.52981 20.0832 4.20036 20.9644 4.19629H30.1677Z" fill="white"/>
<path d="M40.8742 13.7234L40.1546 17.8039H28.9346L31.3133 4.19629H35.3467L33.6829 13.7234H40.8742Z" fill="white"/>
</g>
<defs>
<clipPath id="clip0_127_524">
<rect width="45.8333" height="22" fill="white"/>
</clipPath>
</defs>
</svg>
