<svg width="25" height="25" viewBox="0 0 25 25" fill="none" xmlns="http://www.w3.org/2000/svg">
<path d="M24.1667 18.5002L23.9444 18.9057L23.8279 19.1136C23.7856 19.1864 23.7432 19.2487 23.7009 19.3111L23.4469 19.7061C23.3622 19.8413 23.2669 19.966 23.1716 20.0908C22.9917 20.3507 22.78 20.5898 22.5788 20.8393C22.473 20.964 22.3671 21.0784 22.2507 21.1927L22.0813 21.3695L21.9966 21.4526L21.912 21.5358C21.6791 21.7541 21.4462 21.9828 21.1921 22.1803C21.0651 22.2843 20.9487 22.3882 20.8111 22.4818L20.4088 22.7729C20.2818 22.8768 20.1336 22.96 19.996 23.0432C19.8584 23.1263 19.7208 23.2199 19.5726 23.3031L19.1386 23.5422L18.9163 23.6565L18.694 23.7605C17.4978 24.3322 16.1852 24.7273 14.8303 24.8936C14.1528 24.9872 13.4647 25.008 12.7661 24.9976C12.0675 24.9872 11.3794 24.904 10.6808 24.7897C9.29406 24.5506 7.91794 24.0827 6.6371 23.3966C5.35626 22.7105 4.17068 21.8165 3.16506 20.7145C2.17002 19.6126 1.35494 18.3235 0.815082 16.9201C0.264637 15.5167 0 14.0093 0 12.5123C0.0105855 11.7638 0.0740984 11.0153 0.21171 10.2668L0.338736 9.71585C0.381077 9.52872 0.434005 9.352 0.486932 9.17527C0.529274 8.98815 0.592787 8.81142 0.6563 8.63469L0.740984 8.3644C0.77274 8.28124 0.804497 8.18768 0.846839 8.10451C1.37611 6.70109 2.20178 5.41202 3.18623 4.31007C4.18127 3.20812 5.36684 2.31409 6.64768 1.62797C7.92853 0.941853 9.29406 0.474045 10.6808 0.224548C11.3688 0.099799 12.0675 0.0166332 12.7661 0.00623744C13.4542 -0.014554 14.1422 0.0166332 14.8197 0.099799C16.1746 0.255735 17.4872 0.650773 18.6834 1.22254L18.9057 1.32649L19.128 1.44085L19.562 1.67995C19.6996 1.76312 19.8372 1.85668 19.9854 1.93984C20.123 2.02301 20.2606 2.11657 20.3982 2.21013L20.8005 2.49082C20.9381 2.58438 21.0545 2.69873 21.1816 2.79229C21.4356 2.98981 21.6685 3.21852 21.912 3.43683C22.0284 3.54079 22.1342 3.66553 22.2507 3.77989C22.3565 3.89424 22.473 4.00859 22.5788 4.13334C22.78 4.38284 22.9917 4.61155 23.1716 4.88183C23.2669 5.00658 23.3622 5.13133 23.4469 5.26648L23.7009 5.66151C23.7432 5.72389 23.7856 5.79666 23.8279 5.85903L23.9444 6.06695L24.1667 6.47238C23.4045 5.48479 22.5047 4.62194 21.4885 3.93582C21.2345 3.76949 20.9804 3.59276 20.7158 3.45762C20.5782 3.38485 20.4512 3.30168 20.3135 3.23931L19.9007 3.04179C19.7631 2.96902 19.6255 2.91704 19.4879 2.85467C19.3503 2.80269 19.2127 2.74031 19.075 2.68834L18.6516 2.54279L18.4399 2.47003L18.2282 2.40765C17.085 2.08538 15.8994 1.93984 14.7456 2.00222C13.5812 2.0542 12.4485 2.2933 11.4217 2.71952C10.903 2.92744 10.4055 3.18733 9.95036 3.47841C9.48459 3.76949 9.05059 4.10215 8.65893 4.45561C8.25668 4.80906 7.89677 5.19371 7.56862 5.59914C7.24047 6.00457 6.94408 6.4308 6.67944 6.86742C6.16075 7.75105 5.76909 8.66588 5.51504 9.61189C5.38801 10.0797 5.29274 10.5579 5.22923 11.0361C5.1763 11.5143 5.13396 12.0029 5.13396 12.4915C5.13396 12.9801 5.1763 13.4583 5.23982 13.9365L5.29274 14.3004C5.31391 14.4147 5.34567 14.5395 5.36684 14.6538C5.38801 14.7786 5.41977 14.8929 5.44094 15.0073C5.45153 15.0696 5.46211 15.1216 5.48328 15.184L5.53621 15.3607C5.79026 16.3067 6.18192 17.2216 6.70061 18.0948C6.95466 18.5314 7.26164 18.9473 7.58979 19.3527C7.91794 19.7581 8.27785 20.1428 8.6801 20.4962C9.47401 21.2031 10.4055 21.8165 11.4429 22.2323C11.9616 22.4402 12.5015 22.6169 13.0625 22.7313C13.6235 22.8457 14.1951 22.9288 14.7773 22.9496C15.9417 23.012 17.1167 22.8664 18.26 22.5442L18.4717 22.4818L18.6834 22.409L19.1068 22.2635L19.5196 22.0972C19.6572 22.0452 19.7949 21.9828 19.9325 21.91L20.3453 21.7125C20.4829 21.6501 20.6099 21.567 20.7476 21.4942C21.0122 21.3487 21.2662 21.1823 21.5203 21.016L21.6156 20.9536L21.7108 20.8809L21.8908 20.7457C22.0072 20.6522 22.1448 20.569 22.2613 20.465C22.4942 20.2675 22.7376 20.07 22.9493 19.8517C23.0552 19.7477 23.1716 19.6438 23.2775 19.5294L23.595 19.1864C23.648 19.124 23.7009 19.072 23.7538 19.0096L23.902 18.8329L24.1667 18.5002Z" fill="#E8A94A"/>
<path d="M14.1006 19.6856C15.085 19.5608 16.0271 19.2802 16.8634 18.8435C17.6997 18.4069 18.4618 17.8559 19.044 17.1802C19.6368 16.5045 20.039 15.7248 20.2825 14.9347C20.4095 14.5397 20.4942 14.1343 20.5577 13.7288C20.6212 13.3234 20.653 12.918 20.653 12.5021C20.653 11.6705 20.5471 10.8596 20.3143 10.0591C20.0814 9.25867 19.6791 8.4582 19.0864 7.78248C18.4936 7.10676 17.7208 6.55578 16.874 6.13995C16.0166 5.72413 15.085 5.46423 14.1006 5.31869C15.085 5.18355 16.1118 5.27711 17.0963 5.5474C18.0807 5.81769 19.0334 6.29589 19.8803 6.91963C20.7377 7.54338 21.5104 8.34385 22.0609 9.31065C22.3361 9.79925 22.5478 10.319 22.6854 10.8596C22.823 11.4002 22.8865 11.9512 22.8971 12.5021C22.8971 13.0531 22.8336 13.6145 22.696 14.1551C22.5584 14.6956 22.3573 15.2258 22.0926 15.7144C21.5634 16.6916 20.78 17.5129 19.9226 18.1366C19.0652 18.7708 18.1019 19.2386 17.1069 19.4881C16.1118 19.7376 15.085 19.8103 14.1006 19.6856Z" fill="#FFE8C7"/>
</svg>
