<svg width="34" height="40" viewBox="0 0 34 40" fill="none" xmlns="http://www.w3.org/2000/svg">
<g clip-path="url(#clip0_127_366)">
<path d="M33.4884 16.8689C33.4884 12.395 31.7243 8.10432 28.5841 4.94078C25.444 1.77725 21.185 0 16.7442 0C7.49376 0 0 7.65611 0 16.9725C0 21.9325 1.71261 25.8035 5.51383 29.5235C9.31505 33.2436 16.7442 40 16.7442 40C16.7442 40 27.6455 30.0621 29.4756 26.3214C30.3059 24.6318 30.4786 22.6904 29.9599 20.8789C29.4411 19.0675 28.2683 17.5172 26.6722 16.5329C25.0761 15.5486 23.1722 15.2016 21.335 15.56C19.4977 15.9185 17.8601 16.9565 16.7442 18.47C15.5611 16.8692 13.7967 15.806 11.8371 15.5131C9.87762 15.2203 7.88275 15.7216 6.28935 16.9074C6.34925 14.1538 7.47703 11.5334 9.43116 9.60735C11.3853 7.68126 14.0104 6.60266 16.7442 6.60254C21.8614 6.60254 25.9388 9.51761 26.8465 14.4096C29.9633 15.327 32.4279 19.0115 32.4279 22.4445V22.847C33.1356 20.9348 33.4949 18.9097 33.4884 16.8689Z" fill="white"/>
</g>
<defs>
<clipPath id="clip0_127_366">
<rect width="33.4884" height="40" fill="white"/>
</clipPath>
</defs>
</svg>
