<svg width="51" height="31" viewBox="0 0 51 31" fill="none" xmlns="http://www.w3.org/2000/svg">
<g clip-path="url(#clip0_315_55)">
<path d="M0.55396 13.2812C0.1509 12.7282 -0.221156 12.3951 0.1509 11.6937C1.34199 9.36715 3.89729 5.87601 5.92551 3.08751L5.76144 3.10573C5.662 3.11702 5.56131 3.10647 5.4663 3.0748C5.37129 3.04312 5.28423 2.99108 5.21111 2.92226C4.95158 2.59189 4.76962 2.20666 4.67887 1.79541C4.66078 1.64708 4.69695 1.59243 4.86231 1.57421C5.61417 1.44409 6.42158 1.33349 7.26388 1.2411C7.50287 0.909291 7.72249 0.613917 7.90981 0.336759C8.18497 -0.0327839 8.42655 -0.0536032 8.60612 0.0596019C8.93683 0.280807 9.212 0.72452 9.59697 1.01989C11.4301 0.853339 13.355 0.759652 15.0977 0.72452C15.1894 0.72452 15.2269 0.742737 15.2269 0.816905C15.211 1.01956 15.1482 1.21565 15.0435 1.38944C14.9143 1.57421 14.7683 1.64968 14.3833 1.72125C12.9351 1.9984 11.0103 2.33021 9.08669 2.63209C8.39038 3.7225 7.49254 5.07056 6.52106 6.49278C8.03382 6.33793 9.70291 6.1909 10.8036 6.11543C10.9328 6.11543 10.9676 6.17008 10.9328 6.24555C10.8313 6.49566 10.6884 6.72664 10.5103 6.92868C10.2519 7.18892 10.053 7.26179 9.59439 7.35418C8.52602 7.57538 6.84661 7.87076 5.41264 8.09196L2.68036 12.101C4.55097 11.8407 6.51331 11.5649 8.34645 11.3619C8.58416 11.3255 8.65779 11.3814 8.65779 11.4738C8.65779 11.5662 8.54798 11.751 8.49243 12.0646C8.45626 12.2493 8.43818 12.304 7.97569 12.4705C6.29018 13.0498 4.56929 13.5187 2.82376 13.8745C2.43711 13.954 2.04493 14.0031 1.65075 14.0216C1.06683 14.0203 0.884676 13.7249 0.55396 13.2812Z" fill="white"/>
<path d="M16.3588 14.87C16.1589 14.3099 15.9996 13.7358 15.8821 13.1525C15.4465 13.3109 14.9886 13.3988 14.5257 13.4127C14.0089 13.4127 13.3152 13.1355 12.7171 12.7478C11.5544 12.0087 11.0854 11.362 11.0854 10.0517C11.0854 8.59302 11.7818 6.94829 12.845 5.41547C14.8189 2.60225 17.9904 0.483887 19.8417 0.483887C20.0857 0.486867 20.3266 0.539066 20.5503 0.637401C20.774 0.735735 20.9758 0.878212 21.1439 1.05642C21.9874 1.40774 22.5559 2.3303 22.5559 3.82669C22.5559 4.98997 22.0792 6.83639 21.3454 8.12979C20.2822 9.9762 18.98 11.3204 17.7153 12.2104C17.7527 12.71 17.7527 13.1707 17.7708 13.5402C17.807 14.4081 17.7708 14.5812 17.4401 14.7959C17.422 14.8141 17.1649 14.8883 16.8174 15.073C16.5965 15.1836 16.4505 15.129 16.3588 14.87ZM13.81 11.7471C14.4155 11.697 15.0065 11.5338 15.5527 11.2657C15.3873 10.2325 15.2775 9.38285 15.0941 9.05365C15.0024 8.88839 15.2401 8.75827 15.7168 8.75827C16.0837 8.75827 16.8911 8.77649 17.1843 9.40888C17.2775 9.62522 17.3569 9.84731 17.422 10.0738C19.6182 8.26381 21.3454 5.36472 21.3454 3.22293C21.3454 2.68683 21.2162 2.24312 20.9979 1.94775C19.0717 2.73238 17.0525 4.25089 15.222 6.76612C14.1032 8.31456 13.3514 10.5487 13.81 11.7498V11.7471Z" fill="white"/>
<path d="M23.0868 13.3005C22.1153 12.9492 21.6567 12.0071 21.6567 10.8803C21.6567 9.36699 22.7936 7.27985 24.4071 5.06389C25.5954 3.40214 26.9005 1.8284 28.3124 0.354818C28.4597 0.206481 28.5708 0.188264 28.7348 0.280649C29.0643 0.465421 29.5099 0.889615 29.8161 1.24094C30.183 1.6313 30.0745 2.09063 29.7244 2.49661C28.7155 3.71584 27.5424 5.1745 26.4947 6.61493C24.6797 9.14448 23.7263 11.0104 23.818 12.3025C25.2119 12.1177 26.8616 10.8439 28.9854 8.33253C30.7463 6.28313 32.4257 3.80823 34.0147 1.11212C34.0277 1.08073 34.0488 1.05341 34.0758 1.03298C34.1029 1.01256 34.1348 0.999761 34.1684 0.995915C34.2019 0.99207 34.2359 0.997315 34.2668 1.01111C34.2977 1.0249 34.3244 1.04675 34.3441 1.07439C34.4552 1.18499 34.5275 1.35154 34.6748 1.5181C34.9332 1.81347 35.0417 2.10885 34.6929 2.79198C33.7576 4.6384 32.2383 7.26164 30.5499 9.43986C28.3124 12.3403 26.5891 13.7247 24.6461 13.7247C24.0961 13.7416 23.5535 13.594 23.0868 13.3005Z" fill="white"/>
<path d="M37.9198 13.873C38.6949 12.0812 39.4235 10.2296 40.0824 8.4795C38.7259 8.86986 37.0207 9.32919 35.2792 9.7729C34.3826 10.8457 33.5558 11.9758 32.804 13.156C32.5457 13.5815 32.4371 13.6544 32.2356 13.6544C31.9424 13.6544 31.5212 13.3044 31.0988 12.8607C30.7874 12.5471 30.5678 11.9004 31.4114 10.8113C33.8659 7.6155 37.8823 3.58956 40.78 1.00536C41.4582 0.409405 41.7695 0.259766 41.9711 0.259766C42.2294 0.259766 42.5214 0.480971 43.4386 0.739912C44.1711 0.9429 44.1349 1.39052 43.6763 2.7711C43.2888 3.93438 42.8327 5.2434 42.3018 6.6487C42.3199 6.88942 42.3379 7.11063 42.3379 7.36957C42.3379 7.62851 42.3199 7.73911 41.7876 7.9421C41.3484 9.04943 40.8536 10.2127 40.2852 11.4137C39.6793 12.6876 39.2026 13.6115 38.8551 13.9433C38.7634 14.0174 38.2492 14.0916 38.1032 14.0916C37.9573 14.0916 37.81 14.0942 37.9198 13.873ZM36.783 8.14769C38.0296 7.77815 39.3667 7.35396 40.6508 6.92846C41.1675 5.46981 41.6235 4.10354 42.0085 2.92204C40.0475 4.73072 38.2686 6.44831 36.6887 8.16591L36.783 8.14769Z" fill="white"/>
<path d="M42.502 13.466C41.714 12.913 41.714 12.4134 42.2268 11.2319C43.0704 9.28005 47.3788 3.93728 49.3217 0.502094C49.339 0.463527 49.3646 0.429335 49.3967 0.402022C49.4287 0.374708 49.4665 0.354964 49.5071 0.344236C49.5477 0.333507 49.5902 0.332066 49.6314 0.340017C49.6727 0.347969 49.7117 0.365111 49.7455 0.39019C50.1681 0.61554 50.5371 0.930776 50.8268 1.31405C51.1019 1.70441 51.1019 2.16374 50.4237 3.36345C49.323 5.31526 45.9319 9.49475 44.923 11.8031C47.2703 11.4726 49.7455 11.1902 50.4237 11.1902C50.5697 11.1902 50.5891 11.2449 50.5529 11.375C50.4237 11.8356 50.2777 12.1128 49.4897 12.3717C47.3452 13.0549 44.9423 13.7198 43.7874 13.9045C43.2552 14.0021 43.0536 13.8538 42.502 13.466Z" fill="white"/>
<path d="M3.17372 30.5896C3.082 30.5896 2.97349 30.5532 3.082 30.3697C5.16607 26.774 7.4382 23.2922 9.88881 19.9392C9.5245 19.9587 9.34235 19.679 9.28809 19.2977C9.25192 19.0375 9.21575 18.4727 9.21575 18.3088C9.21575 18.0329 9.36043 17.9184 9.779 17.813C10.4083 17.6746 11.0477 17.5876 11.6909 17.5528C11.838 17.3371 11.9958 17.1291 12.1638 16.9295C12.4364 16.6003 12.6004 16.5261 12.8549 16.655C13.148 16.8159 13.4279 16.9999 13.692 17.2054C13.7944 17.2936 13.8596 17.4179 13.8742 17.5528C15.002 17.6829 15.9489 18.029 16.5871 18.7447C16.9514 19.1351 17.1697 19.826 17.1697 20.3205C17.1697 23.0699 13.4027 25.9846 10.8177 26.4062C10.0425 26.5363 9.68986 26.3151 9.50771 26.0952C9.34075 25.8872 9.20015 25.659 9.08914 25.416C7.88772 27.2312 6.70567 28.9175 5.88663 29.9442C5.61405 30.2747 5.32208 30.384 4.88544 30.384C4.02893 30.4243 3.51994 30.5896 3.17372 30.5896ZM12.9647 19.3875C12.1638 20.6523 11.0347 22.4479 9.85263 24.2449C12.1999 23.8962 15.6389 21.7336 16.0755 19.7727C15.688 19.4786 15.0937 19.3146 14.2023 19.3146C13.7887 19.3142 13.3755 19.3386 12.9647 19.3875Z" fill="white"/>
<path d="M14.7266 29.8377C14.3262 29.1233 14.0161 28.4818 14.5083 27.7492C16.4732 24.7421 20.022 19.7013 21.66 17.4476C22.0786 16.8607 22.1871 16.7878 22.3693 16.8971C22.6974 17.117 23.116 17.4293 23.3524 17.631C23.8071 18.0149 23.6611 18.3818 23.1702 19.1925C21.8784 21.264 19.1848 25.3511 16.8918 28.6692C18.712 28.3946 20.6588 28.137 22.461 27.9353C22.6974 27.8989 22.7697 27.9548 22.7697 28.0459C22.7286 28.2428 22.6742 28.4367 22.607 28.6262C22.5527 28.8097 22.5527 28.8644 22.098 29.0296C20.4186 29.6347 17.2755 30.461 15.9655 30.569C15.2744 30.6262 15.0018 30.3334 14.7266 29.8377Z" fill="white"/>
<path d="M31.0155 30.8096C31.3695 28.8346 31.8376 26.8821 32.4172 24.962C30.4523 25.6776 28.6708 26.4102 27.2665 27.1259C26.1207 28.5572 25.684 29.2703 25.4838 30.0575C25.4295 30.241 25.3921 30.3698 25.2474 30.3698C25.0833 30.3698 24.573 30.1317 24.0459 29.6919C23.2812 29.0868 23.2992 28.4271 24.1364 27.2534C26.0651 24.5963 31.0517 19.5763 32.8719 18.1449C33.9816 17.2835 34.3459 17.0454 34.7826 17.0454C35.0926 17.0454 35.6739 17.3564 36.2747 17.5217C37.0214 17.7416 37.1673 18.236 36.803 18.897C36.0263 20.3235 35.3277 21.7918 34.7102 23.2951C34.7908 23.3389 34.8644 23.3946 34.9285 23.4604C35.165 23.6985 35.2192 23.8273 35.2192 23.9184C35.2192 24.0095 35.183 24.029 34.7826 24.1565L34.2917 24.3218C33.5876 26.081 32.9417 27.9508 32.3629 29.7973C32.1989 30.3112 32.0167 30.4752 31.726 30.6769C31.6343 30.7328 31.3979 30.8603 31.2519 30.9527C31.1434 31.0295 30.9793 31.0295 31.0155 30.8096ZM32.8125 23.6425C33.2853 22.1943 33.7581 20.8567 34.2129 19.7936C32.5129 21.3165 30.897 22.932 29.3723 24.6328C30.4871 24.284 31.6498 23.9548 32.8125 23.6425Z" fill="white"/>
<path d="M34.9277 29.5627C35.7286 28.3344 36.9301 26.5205 38.2038 24.596C38.5914 22.1576 39.0229 19.3352 39.351 17.4654C39.4414 16.9879 39.5319 16.8604 39.6779 16.8604C39.9362 16.8604 40.8612 17.1206 41.1338 17.2507C41.5885 17.4888 41.7526 17.874 41.5523 19.2481C41.3883 20.2565 41.188 21.8323 40.9878 23.2623C43.5173 20.79 45.756 18.7536 47.7055 17.0672C47.9225 16.8656 48.0323 16.8838 48.1046 17.1037C48.1475 17.2403 48.1722 17.3821 48.1783 17.5253C48.1795 17.5904 48.1671 17.6551 48.1419 17.7152C48.1168 17.7752 48.0794 17.8293 48.0323 17.874C45.4835 20.3242 43.4062 22.4321 40.9155 25.0723C40.0112 26.4464 39.1327 27.7671 38.4403 28.756C38.0527 29.3064 37.8215 29.581 37.2207 29.6734C36.62 29.7657 35.9289 29.8035 35.438 29.9115C34.8553 30.039 34.7274 29.8568 34.9277 29.5627Z" fill="white"/>
</g>
<defs>
<clipPath id="clip0_315_55">
<rect width="51" height="31" fill="white"/>
</clipPath>
</defs>
</svg>
