<svg width="22" height="38" viewBox="0 0 22 38" fill="none" xmlns="http://www.w3.org/2000/svg">
<g clip-path="url(#clip0_127_605)">
<path d="M9.54541 38H-9.34601e-05L-9.34601e-05 6.93537C-9.34601e-05 5.096 0.734163 3.33195 2.04115 2.03132C3.34813 0.730686 5.12078 0 6.96914 0H9.54541L9.54541 38Z" fill="white"/>
<path d="M21.478 38H11.9325L11.9325 16.4937H14.5088C16.3565 16.4937 18.1287 17.2239 19.4356 18.5238C20.7424 19.8237 21.4771 21.5868 21.478 23.4256L21.478 38Z" fill="white"/>
<path d="M11.9326 14.3689H16.8016C19.3919 14.3689 21.4886 11.206 21.4886 7.30809V0H16.6231C14.0328 0 11.9326 3.15941 11.9326 7.05381V14.3689Z" fill="white"/>
</g>
<defs>
<clipPath id="clip0_127_605">
<rect width="21.4783" height="38" fill="white"/>
</clipPath>
</defs>
</svg>
