<svg width="120" height="64" viewBox="0 0 120 64" fill="none" xmlns="http://www.w3.org/2000/svg">
<rect x="0.5" y="0.5" width="119" height="63" rx="4.5" stroke="#243B53" stroke-dasharray="10 5"/>
<path d="M25.5303 30.4697C25.2374 30.1768 24.7626 30.1768 24.4697 30.4697L20.4697 34.4697C20.3291 34.6104 20.25 34.8011 20.25 35C20.25 35.1989 20.3291 35.3896 20.4697 35.5303L24.4697 39.5303C24.7626 39.8232 25.2374 39.8232 25.5303 39.5303C25.8232 39.2374 25.8232 38.7626 25.5303 38.4697L22.8105 35.75L32 35.75C34.0711 35.75 35.75 34.0711 35.75 32L35.75 25C35.75 24.5858 35.4142 24.25 35 24.25C34.5858 24.25 34.25 24.5858 34.25 25L34.25 32C34.25 33.2426 33.2426 34.25 32 34.25L22.8105 34.25L25.5303 31.5303C25.8232 31.2374 25.8232 30.7626 25.5303 30.4697Z" fill="white"/>
<path d="M52.707 30.293C52.3165 29.9024 51.6835 29.9024 51.293 30.293L46.293 35.293C45.9024 35.6835 45.9024 36.3165 46.293 36.707L51.293 41.707C51.6835 42.0976 52.3165 42.0976 52.707 41.707C53.0976 41.3165 53.0976 40.6835 52.707 40.293L49.4141 37L62 37C64.2091 37 66 35.2091 66 33L66 23C66 22.4477 65.5523 22 65 22C64.4477 22 64 22.4477 64 23L64 33C64 34.1046 63.1046 35 62 35L49.4141 35L52.707 31.707C53.0976 31.3165 53.0976 30.6835 52.707 30.293Z" fill="white"/>
<path d="M84.707 28.293C84.3165 27.9024 83.6835 27.9024 83.293 28.293L76.293 35.293C76.1054 35.4805 76 35.7348 76 36C76 36.2652 76.1054 36.5195 76.293 36.707L83.293 43.707C83.6835 44.0976 84.3165 44.0976 84.707 43.707C85.0976 43.3165 85.0976 42.6835 84.707 42.293L79.4141 37L96 37C98.2091 37 100 35.2091 100 33L100 21C100 20.4477 99.5523 20 99 20C98.4477 20 98 20.4477 98 21L98 33C98 34.1046 97.1046 35 96 35L79.4141 35L84.707 29.707C85.0976 29.3165 85.0976 28.6835 84.707 28.293Z" fill="white"/>
</svg>
