<svg width="120" height="64" viewBox="0 0 120 64" fill="none" xmlns="http://www.w3.org/2000/svg">
<rect x="0.5" y="0.5" width="119" height="63" rx="4.5" stroke="#243B53" stroke-dasharray="10 5"/>
<path d="M34.766 32.9503C34.976 32.9503 35.176 33.0303 35.326 33.2003C35.606 33.5103 35.576 33.9803 35.266 34.2603C33.296 36.0303 30.746 37.0003 28.096 37.0003C25.446 37.0003 22.906 36.0303 20.926 34.2603C20.616 33.9803 20.596 33.5103 20.866 33.2003C21.136 32.8903 21.616 32.8703 21.926 33.1403C23.626 34.6603 25.816 35.5003 28.096 35.5003C30.376 35.5003 32.566 34.6603 34.266 33.1403C34.406 33.0103 34.586 32.9503 34.766 32.9503Z" fill="white"/>
<path d="M23.526 30.6103C23.716 30.6103 23.906 30.6803 24.056 30.8203C25.166 31.9103 26.636 32.5103 28.196 32.5103C29.756 32.5103 31.226 31.9103 32.336 30.8203C32.636 30.5303 33.106 30.5303 33.396 30.8303C33.686 31.1303 33.686 31.6003 33.386 31.8903C31.996 33.2603 30.146 34.0103 28.196 34.0103C26.246 34.0103 24.396 33.2603 23.006 31.8903C22.706 31.6003 22.706 31.1303 23.006 30.8303C23.156 30.6803 23.346 30.6103 23.546 30.6003L23.526 30.6103Z" fill="white"/>
<path d="M25.8662 28.5503C26.0562 28.5503 26.2462 28.6203 26.3962 28.7603C27.3662 29.7103 29.0362 29.7103 30.0162 28.7603C30.3062 28.4703 30.7862 28.4703 31.0762 28.7603C31.3662 29.0603 31.3662 29.5303 31.0762 29.8203C30.3062 30.5703 29.2962 30.9903 28.2162 30.9903C27.1362 30.9903 26.1262 30.5703 25.3562 29.8203C25.0562 29.5303 25.0562 29.0603 25.3562 28.7603C25.5062 28.6103 25.6962 28.5403 25.8962 28.5403L25.8662 28.5503Z" fill="white"/>
<path d="M28.196 26.2503C27.6438 26.2503 27.196 26.698 27.196 27.2503C27.196 27.8026 27.6438 28.2503 28.196 28.2503C28.7483 28.2503 29.196 27.8026 29.196 27.2503C29.196 26.698 28.7483 26.2503 28.196 26.2503Z" fill="white"/>
<path d="M52.9875 28C53.2475 28 53.4975 28.1 53.6975 28.29C53.7175 28.31 54.4675 29 55.9875 29C57.5075 29 58.2575 28.31 58.2875 28.28C58.6875 27.91 59.3175 27.92 59.6975 28.31C60.0775 28.7 60.0775 29.32 59.6975 29.71C59.5675 29.84 58.3375 31 55.9875 31C53.6375 31 52.4075 29.84 52.2775 29.71C51.8875 29.32 51.8875 28.69 52.2775 28.3C52.4775 28.1 52.7275 28.01 52.9875 28.01V28Z" fill="white"/>
<path d="M49.9875 31C50.2475 31 50.4975 31.1 50.6975 31.29C50.7675 31.35 52.4975 33 55.9875 33C59.4775 33 61.2175 31.36 61.2875 31.29C61.6875 30.91 62.3175 30.91 62.6975 31.3C63.0875 31.69 63.0875 32.32 62.6975 32.71C62.6075 32.8 60.3575 35 55.9875 35C51.6175 35 49.3775 32.8 49.2775 32.71C48.8875 32.32 48.8875 31.69 49.2775 31.3C49.4775 31.1 49.7275 31.01 49.9875 31.01V31Z" fill="white"/>
<path d="M47.9876 34C48.2376 34 48.4976 34.1 48.6876 34.29C48.7176 34.31 51.5176 37 55.9876 37C60.4576 37 63.2576 34.31 63.2876 34.29C63.6776 33.9 64.3176 33.91 64.6976 34.3C65.0876 34.69 65.0776 35.32 64.6976 35.71C64.5576 35.84 61.3176 39 55.9976 39C50.6776 39 47.4276 35.85 47.2976 35.71C46.9076 35.32 46.8976 34.69 47.2976 34.3C47.4976 34.1 47.7476 34 48.0076 34H47.9876Z" fill="white"/>
<path d="M55.9875 25C55.4353 25 54.9875 25.4477 54.9875 26C54.9875 26.5523 55.4353 27 55.9875 27C56.5398 27 56.9875 26.5523 56.9875 26C56.9875 25.4477 56.5398 25 55.9875 25Z" fill="white"/>
<path d="M85.0196 26.01C85.2796 26.01 85.5296 26.11 85.7296 26.3C85.7496 26.32 86.4996 27.01 88.0196 27.01C89.5396 27.01 90.2896 26.32 90.3196 26.29C90.7196 25.92 91.3496 25.93 91.7296 26.32C92.1096 26.71 92.1096 27.33 91.7296 27.72C91.5996 27.85 90.3696 29.01 88.0196 29.01C85.6696 29.01 84.4396 27.85 84.3096 27.72C83.9196 27.33 83.9196 26.7 84.3096 26.31C84.5096 26.11 84.7596 26.02 85.0196 26.02V26.01Z" fill="white"/>
<path d="M82.0196 29.01C82.2796 29.01 82.5296 29.11 82.7296 29.3C82.7996 29.36 84.5296 31.01 88.0196 31.01C91.5096 31.01 93.2496 29.37 93.3196 29.3C93.7196 28.92 94.3496 28.92 94.7296 29.31C95.1196 29.7 95.1196 30.33 94.7296 30.72C94.6396 30.81 92.3896 33.01 88.0196 33.01C83.6496 33.01 81.4096 30.81 81.3096 30.72C80.9196 30.33 80.9196 29.7 81.3096 29.31C81.5096 29.11 81.7596 29.02 82.0196 29.02V29.01Z" fill="white"/>
<path d="M80.0197 32.01C80.2697 32.01 80.5297 32.11 80.7197 32.3C80.7497 32.32 83.5497 35.01 88.0197 35.01C92.4897 35.01 95.2897 32.32 95.3197 32.3C95.7097 31.92 96.3497 31.92 96.7297 32.31C97.1197 32.7 97.1097 33.33 96.7297 33.72C96.5897 33.85 93.3497 37.01 88.0297 37.01C82.7097 37.01 79.4597 33.86 79.3297 33.72C78.9397 33.33 78.9297 32.7 79.3297 32.31C79.5297 32.11 79.7797 32.01 80.0397 32.01H80.0197Z" fill="white"/>
<path d="M78.0197 35.01C78.2797 35.01 78.5297 35.11 78.7297 35.3C78.7697 35.34 82.5297 39.01 88.0197 39.01C93.5097 39.01 97.2797 35.34 97.3097 35.3C97.6997 34.91 98.3397 34.91 98.7197 35.3C99.1097 35.69 99.1097 36.32 98.7197 36.71C98.5397 36.89 94.3497 41 88.0097 41C81.6697 41 77.4797 36.88 77.2997 36.71C76.9097 36.32 76.9097 35.69 77.2997 35.3C77.4997 35.1 77.7497 35.01 78.0097 35.01H78.0197Z" fill="white"/>
<path d="M88.0197 23.01C87.4674 23.01 87.0197 23.4577 87.0197 24.01C87.0197 24.5623 87.4674 25.01 88.0197 25.01C88.5719 25.01 89.0197 24.5623 89.0197 24.01C89.0197 23.4577 88.5719 23.01 88.0197 23.01Z" fill="white"/>
</svg>
